solid Mechanic
facet normal -0.0871557427475566 -0.9961946980917544 0.0
  outer loop
    vertex 72.97749076112648 871.1993170369083 1.0000000000000002
    vertex 72.28289805045875 871.2600860248593 2.5046333740767123e-30
    vertex 72.97749076112648 871.1993170369083 2.5046333740767123e-30
  endloop
endfacet
facet normal -0.0871557427475566 -0.9961946980917544 0.0
  outer loop
    vertex 72.28289805045875 871.2600860248593 2.5046333740767123e-30
    vertex 72.97749076112648 871.1993170369083 1.0000000000000002
    vertex 72.28289805045875 871.2600860248593 1.0000000000000002
  endloop
endfacet
facet normal -0.7933533402911854 0.6087614290087857 0.0
  outer loop
    vertex 71.0683024519228 877.1085053461119 4.999999999999998
    vertex 70.6392221709085 876.5493170369083 1.0000000000000002
    vertex 70.6392221709085 876.5493170369083 4.999999999999998
  endloop
endfacet
facet normal -0.7933533402911854 0.6087614290087857 0.0
  outer loop
    vertex 70.6392221709085 876.5493170369083 1.0000000000000002
    vertex 71.0683024519228 877.1085053461119 4.999999999999998
    vertex 71.0683024519228 877.1085053461119 1.0000000000000002
  endloop
endfacet
facet normal -0.9238795325113159 0.38268343236501945 0.0
  outer loop
    vertex 70.6392221709085 876.5493170369083 4.999999999999998
    vertex 70.36949103014601 875.898128458685 1.0000000000000002
    vertex 70.36949103014601 875.898128458685 4.999999999999998
  endloop
endfacet
facet normal -0.9238795325113159 0.38268343236501945 0.0
  outer loop
    vertex 70.36949103014601 875.898128458685 1.0000000000000002
    vertex 70.6392221709085 876.5493170369083 4.999999999999998
    vertex 70.6392221709085 876.5493170369083 1.0000000000000002
  endloop
endfacet
facet normal -0.25881904510255205 -0.9659258262890599 0.0
  outer loop
    vertex 72.28289805045875 871.2600860248593 1.0000000000000002
    vertex 71.6094101878238 871.4405465537645 2.5046333740767123e-30
    vertex 72.28289805045875 871.2600860248593 2.5046333740767123e-30
  endloop
endfacet
facet normal -0.25881904510255205 -0.9659258262890599 0.0
  outer loop
    vertex 71.6094101878238 871.4405465537645 2.5046333740767123e-30
    vertex 72.28289805045875 871.2600860248593 1.0000000000000002
    vertex 71.6094101878238 871.4405465537645 1.0000000000000002
  endloop
endfacet
facet normal 0.0 0.0 1.0
  outer loop
    vertex 69.03825974907767 874.5047243262405 1.0000000000000002
    vertex 69.03825974907767 875.893909747576 1.0000000000000002
    vertex 68.97749076112649 875.1993170369083 1.0000000000000002
  endloop
endfacet
facet normal 0.0 0.0 1.0
  outer loop
    vertex 69.03825974907767 875.893909747576 1.0000000000000002
    vertex 69.03825974907767 874.5047243262405 1.0000000000000002
    vertex 69.21872027798285 873.8312364636055 1.0000000000000002
  endloop
endfacet
facet normal 0.0 0.0 1.0
  outer loop
    vertex 69.03825974907767 875.893909747576 1.0000000000000002
    vertex 69.21872027798285 873.8312364636055 1.0000000000000002
    vertex 69.21872027798285 876.567397610211 1.0000000000000002
  endloop
endfacet
facet normal 0.0 0.0 1.0
  outer loop
    vertex 69.21872027798285 876.567397610211 1.0000000000000002
    vertex 69.21872027798285 873.8312364636055 1.0000000000000002
    vertex 69.51338914598874 873.1993170369084 1.0000000000000002
  endloop
endfacet
facet normal 0.0 0.0 1.0
  outer loop
    vertex 69.21872027798285 876.567397610211 1.0000000000000002
    vertex 69.51338914598874 873.1993170369084 1.0000000000000002
    vertex 69.51338914598874 877.1993170369084 1.0000000000000002
  endloop
endfacet
facet normal 0.0 0.0 1.0
  outer loop
    vertex 69.51338914598874 877.1993170369084 1.0000000000000002
    vertex 69.51338914598874 873.1993170369084 1.0000000000000002
    vertex 69.91331298865057 872.6281665981621 1.0000000000000002
  endloop
endfacet
facet normal 0.0 0.0 1.0
  outer loop
    vertex 69.51338914598874 877.1993170369084 1.0000000000000002
    vertex 69.91331298865057 872.6281665981621 1.0000000000000002
    vertex 69.91331298865057 877.7704674756544 1.0000000000000002
  endloop
endfacet
facet normal 0.0 0.0 1.0
  outer loop
    vertex 69.91331298865057 877.7704674756544 1.0000000000000002
    vertex 69.91331298865057 872.6281665981621 1.0000000000000002
    vertex 70.40634032238032 872.1351392644324 1.0000000000000002
  endloop
endfacet
facet normal 0.0 0.0 1.0
  outer loop
    vertex 69.91331298865057 877.7704674756544 1.0000000000000002
    vertex 70.40634032238032 872.1351392644324 1.0000000000000002
    vertex 70.27749076112649 875.1993170369083 1.0000000000000002
  endloop
endfacet
facet normal 0.0 0.0 1.0
  outer loop
    vertex 70.27749076112649 875.1993170369083 1.0000000000000002
    vertex 70.40634032238032 872.1351392644324 1.0000000000000002
    vertex 70.36949103014601 874.5005056151315 1.0000000000000002
  endloop
endfacet
facet normal 0.0 0.0 1.0
  outer loop
    vertex 70.36949103014601 874.5005056151315 1.0000000000000002
    vertex 70.40634032238032 872.1351392644324 1.0000000000000002
    vertex 70.6392221709085 873.8493170369082 1.0000000000000002
  endloop
endfacet
facet normal 0.0 0.0 1.0
  outer loop
    vertex 70.6392221709085 873.8493170369082 1.0000000000000002
    vertex 70.40634032238032 872.1351392644324 1.0000000000000002
    vertex 70.97749076112648 871.7352154217705 1.0000000000000002
  endloop
endfacet
facet normal 0.0 0.0 1.0
  outer loop
    vertex 70.6392221709085 873.8493170369082 1.0000000000000002
    vertex 70.97749076112648 871.7352154217705 1.0000000000000002
    vertex 71.0683024519228 873.2901287277047 1.0000000000000002
  endloop
endfacet
facet normal 0.0 0.0 1.0
  outer loop
    vertex 71.0683024519228 873.2901287277047 1.0000000000000002
    vertex 70.97749076112648 871.7352154217705 1.0000000000000002
    vertex 71.6094101878238 871.4405465537645 1.0000000000000002
  endloop
endfacet
facet normal 0.0 0.0 1.0
  outer loop
    vertex 71.0683024519228 873.2901287277047 1.0000000000000002
    vertex 71.6094101878238 871.4405465537645 1.0000000000000002
    vertex 71.62749076112648 872.8610484466902 1.0000000000000002
  endloop
endfacet
facet normal 0.0 0.0 1.0
  outer loop
    vertex 71.62749076112648 872.8610484466902 1.0000000000000002
    vertex 71.6094101878238 871.4405465537645 1.0000000000000002
    vertex 72.28289805045875 871.2600860248593 1.0000000000000002
  endloop
endfacet
facet normal 0.0 0.0 1.0
  outer loop
    vertex 71.62749076112648 872.8610484466902 1.0000000000000002
    vertex 72.28289805045875 871.2600860248593 1.0000000000000002
    vertex 72.27867933934967 872.5913173059276 1.0000000000000002
  endloop
endfacet
facet normal 0.0 0.0 1.0
  outer loop
    vertex 72.27867933934967 872.5913173059276 1.0000000000000002
    vertex 72.28289805045875 871.2600860248593 1.0000000000000002
    vertex 72.97749076112649 872.4993170369083 1.0000000000000002
  endloop
endfacet
facet normal 0.0 0.0 1.0
  outer loop
    vertex 72.97749076112649 872.4993170369083 1.0000000000000002
    vertex 72.28289805045875 871.2600860248593 1.0000000000000002
    vertex 72.97749076112648 871.1993170369083 1.0000000000000002
  endloop
endfacet
facet normal 0.0 0.0 1.0
  outer loop
    vertex 72.97749076112649 872.4993170369083 1.0000000000000002
    vertex 72.97749076112648 871.1993170369083 1.0000000000000002
    vertex 73.6720834717942 871.2600860248593 1.0000000000000002
  endloop
endfacet
facet normal 0.0 0.0 1.0
  outer loop
    vertex 72.97749076112649 872.4993170369083 1.0000000000000002
    vertex 73.6720834717942 871.2600860248593 1.0000000000000002
    vertex 73.67630218290329 872.5913173059276 1.0000000000000002
  endloop
endfacet
facet normal 0.0 0.0 1.0
  outer loop
    vertex 73.67630218290329 872.5913173059276 1.0000000000000002
    vertex 73.6720834717942 871.2600860248593 1.0000000000000002
    vertex 74.34557133442915 871.4405465537645 1.0000000000000002
  endloop
endfacet
facet normal 0.0 0.0 1.0
  outer loop
    vertex 73.67630218290329 872.5913173059276 1.0000000000000002
    vertex 74.34557133442915 871.4405465537645 1.0000000000000002
    vertex 74.32749076112648 872.8610484466902 1.0000000000000002
  endloop
endfacet
facet normal 0.0 0.0 1.0
  outer loop
    vertex 74.32749076112648 872.8610484466902 1.0000000000000002
    vertex 74.34557133442915 871.4405465537645 1.0000000000000002
    vertex 74.88667907033016 873.2901287277047 1.0000000000000002
  endloop
endfacet
facet normal 0.0 0.0 1.0
  outer loop
    vertex 74.88667907033016 873.2901287277047 1.0000000000000002
    vertex 74.34557133442915 871.4405465537645 1.0000000000000002
    vertex 74.97749076112646 871.7352154217705 1.0000000000000002
  endloop
endfacet
facet normal 0.0 0.0 1.0
  outer loop
    vertex 74.88667907033016 873.2901287277047 1.0000000000000002
    vertex 74.97749076112646 871.7352154217705 1.0000000000000002
    vertex 75.31575935134447 873.8493170369082 1.0000000000000002
  endloop
endfacet
facet normal 0.0 0.0 1.0
  outer loop
    vertex 75.31575935134447 873.8493170369082 1.0000000000000002
    vertex 74.97749076112646 871.7352154217705 1.0000000000000002
    vertex 75.54864119987263 872.1351392644324 1.0000000000000002
  endloop
endfacet
facet normal 0.0 0.0 1.0
  outer loop
    vertex 75.31575935134447 873.8493170369082 1.0000000000000002
    vertex 75.54864119987263 872.1351392644324 1.0000000000000002
    vertex 75.58549049210697 874.5005056151315 1.0000000000000002
  endloop
endfacet
facet normal 0.0 0.0 1.0
  outer loop
    vertex 75.58549049210697 874.5005056151315 1.0000000000000002
    vertex 75.54864119987263 872.1351392644324 1.0000000000000002
    vertex 76.04166853360239 872.6281665981621 1.0000000000000002
  endloop
endfacet
facet normal 0.0 0.0 1.0
  outer loop
    vertex 75.58549049210697 874.5005056151315 1.0000000000000002
    vertex 76.04166853360239 872.6281665981621 1.0000000000000002
    vertex 75.67749076112649 875.1993170369083 1.0000000000000002
  endloop
endfacet
facet normal 0.0 0.0 1.0
  outer loop
    vertex 70.27749076112649 875.1993170369083 1.0000000000000002
    vertex 70.40634032238033 878.2634948093842 1.0000000000000002
    vertex 69.91331298865057 877.7704674756544 1.0000000000000002
  endloop
endfacet
facet normal 0.0 0.0 1.0
  outer loop
    vertex 70.40634032238033 878.2634948093842 1.0000000000000002
    vertex 70.27749076112649 875.1993170369083 1.0000000000000002
    vertex 70.36949103014601 875.898128458685 1.0000000000000002
  endloop
endfacet
facet normal 0.0 0.0 1.0
  outer loop
    vertex 70.40634032238033 878.2634948093842 1.0000000000000002
    vertex 70.36949103014601 875.898128458685 1.0000000000000002
    vertex 70.6392221709085 876.5493170369083 1.0000000000000002
  endloop
endfacet
facet normal 0.0 0.0 1.0
  outer loop
    vertex 70.40634032238033 878.2634948093842 1.0000000000000002
    vertex 70.6392221709085 876.5493170369083 1.0000000000000002
    vertex 70.97749076112649 878.663418652046 1.0000000000000002
  endloop
endfacet
facet normal 0.0 0.0 1.0
  outer loop
    vertex 70.97749076112649 878.663418652046 1.0000000000000002
    vertex 70.6392221709085 876.5493170369083 1.0000000000000002
    vertex 71.0683024519228 877.1085053461119 1.0000000000000002
  endloop
endfacet
facet normal 0.0 0.0 1.0
  outer loop
    vertex 70.97749076112649 878.663418652046 1.0000000000000002
    vertex 71.0683024519228 877.1085053461119 1.0000000000000002
    vertex 71.60941018782381 878.9580875200519 1.0000000000000002
  endloop
endfacet
facet normal 0.0 0.0 1.0
  outer loop
    vertex 71.60941018782381 878.9580875200519 1.0000000000000002
    vertex 71.0683024519228 877.1085053461119 1.0000000000000002
    vertex 71.62749076112648 877.5375856271263 1.0000000000000002
  endloop
endfacet
facet normal 0.0 0.0 1.0
  outer loop
    vertex 71.60941018782381 878.9580875200519 1.0000000000000002
    vertex 71.62749076112648 877.5375856271263 1.0000000000000002
    vertex 72.28289805045877 879.1385480489571 1.0000000000000002
  endloop
endfacet
facet normal 0.0 0.0 1.0
  outer loop
    vertex 72.28289805045877 879.1385480489571 1.0000000000000002
    vertex 71.62749076112648 877.5375856271263 1.0000000000000002
    vertex 72.27867933934967 877.8073167678888 1.0000000000000002
  endloop
endfacet
facet normal 0.0 0.0 1.0
  outer loop
    vertex 72.28289805045877 879.1385480489571 1.0000000000000002
    vertex 72.27867933934967 877.8073167678888 1.0000000000000002
    vertex 72.97749076112649 877.8993170369082 1.0000000000000002
  endloop
endfacet
facet normal 0.0 0.0 1.0
  outer loop
    vertex 72.28289805045877 879.1385480489571 1.0000000000000002
    vertex 72.97749076112649 877.8993170369082 1.0000000000000002
    vertex 72.97749076112649 879.1993170369083 1.0000000000000002
  endloop
endfacet
facet normal 0.0 0.0 1.0
  outer loop
    vertex 72.97749076112649 879.1993170369083 1.0000000000000002
    vertex 72.97749076112649 877.8993170369082 1.0000000000000002
    vertex 73.67630218290329 877.8073167678888 1.0000000000000002
  endloop
endfacet
facet normal 0.0 0.0 1.0
  outer loop
    vertex 72.97749076112649 879.1993170369083 1.0000000000000002
    vertex 73.67630218290329 877.8073167678888 1.0000000000000002
    vertex 73.67208347179421 879.1385480489571 1.0000000000000002
  endloop
endfacet
facet normal 0.0 0.0 1.0
  outer loop
    vertex 73.67208347179421 879.1385480489571 1.0000000000000002
    vertex 73.67630218290329 877.8073167678888 1.0000000000000002
    vertex 74.34557133442915 878.9580875200519 1.0000000000000002
  endloop
endfacet
facet normal 0.0 0.0 1.0
  outer loop
    vertex 74.34557133442915 878.9580875200519 1.0000000000000002
    vertex 73.67630218290329 877.8073167678888 1.0000000000000002
    vertex 74.32749076112648 877.5375856271263 1.0000000000000002
  endloop
endfacet
facet normal 0.0 0.0 1.0
  outer loop
    vertex 74.34557133442915 878.9580875200519 1.0000000000000002
    vertex 74.32749076112648 877.5375856271263 1.0000000000000002
    vertex 74.88667907033016 877.1085053461119 1.0000000000000002
  endloop
endfacet
facet normal 0.0 0.0 1.0
  outer loop
    vertex 74.34557133442915 878.9580875200519 1.0000000000000002
    vertex 74.88667907033016 877.1085053461119 1.0000000000000002
    vertex 74.97749076112649 878.663418652046 1.0000000000000002
  endloop
endfacet
facet normal 0.0 0.0 1.0
  outer loop
    vertex 74.97749076112649 878.663418652046 1.0000000000000002
    vertex 74.88667907033016 877.1085053461119 1.0000000000000002
    vertex 75.31575935134447 876.5493170369083 1.0000000000000002
  endloop
endfacet
facet normal 0.0 0.0 1.0
  outer loop
    vertex 74.97749076112649 878.663418652046 1.0000000000000002
    vertex 75.31575935134447 876.5493170369083 1.0000000000000002
    vertex 75.54864119987265 878.2634948093842 1.0000000000000002
  endloop
endfacet
facet normal 0.0 0.0 1.0
  outer loop
    vertex 75.54864119987265 878.2634948093842 1.0000000000000002
    vertex 75.31575935134447 876.5493170369083 1.0000000000000002
    vertex 75.58549049210697 875.898128458685 1.0000000000000002
  endloop
endfacet
facet normal 0.0 0.0 1.0
  outer loop
    vertex 75.54864119987265 878.2634948093842 1.0000000000000002
    vertex 75.58549049210697 875.898128458685 1.0000000000000002
    vertex 76.04166853360239 877.7704674756544 1.0000000000000002
  endloop
endfacet
facet normal 0.0 0.0 1.0
  outer loop
    vertex 76.04166853360239 877.7704674756544 1.0000000000000002
    vertex 75.58549049210697 875.898128458685 1.0000000000000002
    vertex 75.67749076112649 875.1993170369083 1.0000000000000002
  endloop
endfacet
facet normal 0.0 0.0 1.0
  outer loop
    vertex 76.04166853360239 877.7704674756544 1.0000000000000002
    vertex 75.67749076112649 875.1993170369083 1.0000000000000002
    vertex 76.04166853360239 872.6281665981621 1.0000000000000002
  endloop
endfacet
facet normal 0.0 0.0 1.0
  outer loop
    vertex 76.04166853360239 877.7704674756544 1.0000000000000002
    vertex 76.04166853360239 872.6281665981621 1.0000000000000002
    vertex 76.44159237626423 873.1993170369082 1.0000000000000002
  endloop
endfacet
facet normal 0.0 0.0 1.0
  outer loop
    vertex 76.04166853360239 877.7704674756544 1.0000000000000002
    vertex 76.44159237626423 873.1993170369082 1.0000000000000002
    vertex 76.44159237626424 877.1993170369084 1.0000000000000002
  endloop
endfacet
facet normal 0.0 0.0 1.0
  outer loop
    vertex 76.44159237626424 877.1993170369084 1.0000000000000002
    vertex 76.44159237626423 873.1993170369082 1.0000000000000002
    vertex 76.73626124427011 873.8312364636055 1.0000000000000002
  endloop
endfacet
facet normal 0.0 0.0 1.0
  outer loop
    vertex 76.44159237626424 877.1993170369084 1.0000000000000002
    vertex 76.73626124427011 873.8312364636055 1.0000000000000002
    vertex 76.73626124427012 876.567397610211 1.0000000000000002
  endloop
endfacet
facet normal 0.0 0.0 1.0
  outer loop
    vertex 76.73626124427012 876.567397610211 1.0000000000000002
    vertex 76.73626124427011 873.8312364636055 1.0000000000000002
    vertex 76.91672177317533 874.5047243262405 1.0000000000000002
  endloop
endfacet
facet normal 0.0 0.0 1.0
  outer loop
    vertex 76.73626124427012 876.567397610211 1.0000000000000002
    vertex 76.91672177317533 874.5047243262405 1.0000000000000002
    vertex 76.91672177317533 875.893909747576 1.0000000000000002
  endloop
endfacet
facet normal 0.0 0.0 1.0
  outer loop
    vertex 76.91672177317533 875.893909747576 1.0000000000000002
    vertex 76.91672177317533 874.5047243262405 1.0000000000000002
    vertex 76.97749076112649 875.1993170369083 1.0000000000000002
  endloop
endfacet
facet normal 0.99144486137381 0.13052619222005463 0.0
  outer loop
    vertex 75.58549049210697 875.898128458685 1.0000000000000002
    vertex 75.67749076112649 875.1993170369083 4.999999999999998
    vertex 75.67749076112649 875.1993170369083 1.0000000000000002
  endloop
endfacet
facet normal 0.99144486137381 0.13052619222005463 0.0
  outer loop
    vertex 75.67749076112649 875.1993170369083 4.999999999999998
    vertex 75.58549049210697 875.898128458685 1.0000000000000002
    vertex 75.58549049210697 875.898128458685 4.999999999999998
  endloop
endfacet
facet normal 0.38268343236510344 0.9238795325112812 0.0
  outer loop
    vertex 73.67630218290329 877.8073167678888 4.999999999999998
    vertex 74.32749076112648 877.5375856271263 1.0000000000000002
    vertex 73.67630218290329 877.8073167678888 1.0000000000000002
  endloop
endfacet
facet normal 0.38268343236510344 0.9238795325112812 0.0
  outer loop
    vertex 74.32749076112648 877.5375856271263 1.0000000000000002
    vertex 73.67630218290329 877.8073167678888 4.999999999999998
    vertex 74.32749076112648 877.5375856271263 4.999999999999998
  endloop
endfacet
facet normal 0.6087614290088246 0.7933533402911553 0.0
  outer loop
    vertex 74.32749076112648 877.5375856271263 4.999999999999998
    vertex 74.88667907033016 877.1085053461119 1.0000000000000002
    vertex 74.32749076112648 877.5375856271263 1.0000000000000002
  endloop
endfacet
facet normal 0.6087614290088246 0.7933533402911553 0.0
  outer loop
    vertex 74.88667907033016 877.1085053461119 1.0000000000000002
    vertex 74.32749076112648 877.5375856271263 4.999999999999998
    vertex 74.88667907033016 877.1085053461119 4.999999999999998
  endloop
endfacet
facet normal 0.7933533402911854 0.6087614290087857 0.0
  outer loop
    vertex 74.88667907033016 877.1085053461119 1.0000000000000002
    vertex 75.31575935134447 876.5493170369083 4.999999999999998
    vertex 75.31575935134447 876.5493170369083 1.0000000000000002
  endloop
endfacet
facet normal 0.7933533402911854 0.6087614290087857 0.0
  outer loop
    vertex 75.31575935134447 876.5493170369083 4.999999999999998
    vertex 74.88667907033016 877.1085053461119 1.0000000000000002
    vertex 74.88667907033016 877.1085053461119 4.999999999999998
  endloop
endfacet
facet normal 0.9238795325113045 0.38268343236504676 0.0
  outer loop
    vertex 75.31575935134447 876.5493170369083 1.0000000000000002
    vertex 75.58549049210697 875.898128458685 4.999999999999998
    vertex 75.58549049210697 875.898128458685 1.0000000000000002
  endloop
endfacet
facet normal 0.9238795325113045 0.38268343236504676 0.0
  outer loop
    vertex 75.58549049210697 875.898128458685 4.999999999999998
    vertex 75.31575935134447 876.5493170369083 1.0000000000000002
    vertex 75.31575935134447 876.5493170369083 4.999999999999998
  endloop
endfacet
facet normal 0.9961946980917464 -0.08715574274764731 0.0
  outer loop
    vertex 76.97749076112649 875.1993170369083 2.5046333740767123e-30
    vertex 76.91672177317533 874.5047243262405 1.0000000000000002
    vertex 76.91672177317533 874.5047243262405 2.5046333740767123e-30
  endloop
endfacet
facet normal 0.9961946980917464 -0.08715574274764731 0.0
  outer loop
    vertex 76.91672177317533 874.5047243262405 1.0000000000000002
    vertex 76.97749076112649 875.1993170369083 2.5046333740767123e-30
    vertex 76.97749076112649 875.1993170369083 1.0000000000000002
  endloop
endfacet
facet normal 0.9659258262890651 -0.25881904510253295 0.0
  outer loop
    vertex 76.91672177317533 874.5047243262405 2.5046333740767123e-30
    vertex 76.73626124427011 873.8312364636055 1.0000000000000002
    vertex 76.73626124427011 873.8312364636055 2.5046333740767123e-30
  endloop
endfacet
facet normal 0.9659258262890651 -0.25881904510253295 0.0
  outer loop
    vertex 76.73626124427011 873.8312364636055 1.0000000000000002
    vertex 76.91672177317533 874.5047243262405 2.5046333740767123e-30
    vertex 76.91672177317533 874.5047243262405 1.0000000000000002
  endloop
endfacet
facet normal 0.9063077870366569 -0.4226182617406848 0.0
  outer loop
    vertex 76.73626124427011 873.8312364636055 2.5046333740767123e-30
    vertex 76.44159237626423 873.1993170369082 1.0000000000000002
    vertex 76.44159237626423 873.1993170369082 2.5046333740767123e-30
  endloop
endfacet
facet normal 0.9063077870366569 -0.4226182617406848 0.0
  outer loop
    vertex 76.44159237626423 873.1993170369082 1.0000000000000002
    vertex 76.73626124427011 873.8312364636055 2.5046333740767123e-30
    vertex 76.73626124427011 873.8312364636055 1.0000000000000002
  endloop
endfacet
facet normal 0.8191520442889604 -0.5735764363510909 0.0
  outer loop
    vertex 76.44159237626423 873.1993170369082 2.5046333740767123e-30
    vertex 76.04166853360239 872.6281665981621 1.0000000000000002
    vertex 76.04166853360239 872.6281665981621 2.5046333740767123e-30
  endloop
endfacet
facet normal 0.8191520442889604 -0.5735764363510909 0.0
  outer loop
    vertex 76.04166853360239 872.6281665981621 1.0000000000000002
    vertex 76.44159237626423 873.1993170369082 2.5046333740767123e-30
    vertex 76.44159237626423 873.1993170369082 1.0000000000000002
  endloop
endfacet
facet normal -0.42261826174076983 -0.9063077870366172 0.0
  outer loop
    vertex 71.6094101878238 871.4405465537645 1.0000000000000002
    vertex 70.97749076112648 871.7352154217705 2.5046333740767123e-30
    vertex 71.6094101878238 871.4405465537645 2.5046333740767123e-30
  endloop
endfacet
facet normal -0.42261826174076983 -0.9063077870366172 0.0
  outer loop
    vertex 70.97749076112648 871.7352154217705 2.5046333740767123e-30
    vertex 71.6094101878238 871.4405465537645 1.0000000000000002
    vertex 70.97749076112648 871.7352154217705 1.0000000000000002
  endloop
endfacet
facet normal -0.5735764363510236 -0.8191520442890075 0.0
  outer loop
    vertex 70.97749076112648 871.7352154217705 1.0000000000000002
    vertex 70.40634032238032 872.1351392644324 2.5046333740767123e-30
    vertex 70.97749076112648 871.7352154217705 2.5046333740767123e-30
  endloop
endfacet
facet normal -0.5735764363510236 -0.8191520442890075 0.0
  outer loop
    vertex 70.40634032238032 872.1351392644324 2.5046333740767123e-30
    vertex 70.97749076112648 871.7352154217705 1.0000000000000002
    vertex 70.40634032238032 872.1351392644324 1.0000000000000002
  endloop
endfacet
facet normal -0.7071067811865476 -0.7071067811865476 0.0
  outer loop
    vertex 69.91331298865057 872.6281665981621 1.0000000000000002
    vertex 70.40634032238032 872.1351392644324 2.5046333740767123e-30
    vertex 70.40634032238032 872.1351392644324 1.0000000000000002
  endloop
endfacet
facet normal -0.7071067811865476 -0.7071067811865476 0.0
  outer loop
    vertex 70.40634032238032 872.1351392644324 2.5046333740767123e-30
    vertex 69.91331298865057 872.6281665981621 1.0000000000000002
    vertex 69.91331298865057 872.6281665981621 2.5046333740767123e-30
  endloop
endfacet
facet normal -0.8191520442890455 -0.5735764363509692 0.0
  outer loop
    vertex 69.51338914598874 873.1993170369084 1.0000000000000002
    vertex 69.91331298865057 872.6281665981621 2.5046333740767123e-30
    vertex 69.91331298865057 872.6281665981621 1.0000000000000002
  endloop
endfacet
facet normal -0.8191520442890455 -0.5735764363509692 0.0
  outer loop
    vertex 69.91331298865057 872.6281665981621 2.5046333740767123e-30
    vertex 69.51338914598874 873.1993170369084 1.0000000000000002
    vertex 69.51338914598874 873.1993170369084 2.5046333740767123e-30
  endloop
endfacet
facet normal -0.9063077870366106 -0.4226182617407838 0.0
  outer loop
    vertex 69.21872027798285 873.8312364636055 1.0000000000000002
    vertex 69.51338914598874 873.1993170369084 2.5046333740767123e-30
    vertex 69.51338914598874 873.1993170369084 1.0000000000000002
  endloop
endfacet
facet normal -0.9063077870366106 -0.4226182617407838 0.0
  outer loop
    vertex 69.51338914598874 873.1993170369084 2.5046333740767123e-30
    vertex 69.21872027798285 873.8312364636055 1.0000000000000002
    vertex 69.21872027798285 873.8312364636055 2.5046333740767123e-30
  endloop
endfacet
facet normal -0.9659258262890731 -0.25881904510250275 0.0
  outer loop
    vertex 69.03825974907767 874.5047243262405 1.0000000000000002
    vertex 69.21872027798285 873.8312364636055 2.5046333740767123e-30
    vertex 69.21872027798285 873.8312364636055 1.0000000000000002
  endloop
endfacet
facet normal -0.9659258262890731 -0.25881904510250275 0.0
  outer loop
    vertex 69.21872027798285 873.8312364636055 2.5046333740767123e-30
    vertex 69.03825974907767 874.5047243262405 1.0000000000000002
    vertex 69.03825974907767 874.5047243262405 2.5046333740767123e-30
  endloop
endfacet
facet normal -0.9961946980917451 -0.08715574274766338 0.0
  outer loop
    vertex 68.97749076112649 875.1993170369083 1.0000000000000002
    vertex 69.03825974907767 874.5047243262405 2.5046333740767123e-30
    vertex 69.03825974907767 874.5047243262405 1.0000000000000002
  endloop
endfacet
facet normal -0.9961946980917451 -0.08715574274766338 0.0
  outer loop
    vertex 69.03825974907767 874.5047243262405 2.5046333740767123e-30
    vertex 68.97749076112649 875.1993170369083 1.0000000000000002
    vertex 68.97749076112649 875.1993170369083 2.5046333740767123e-30
  endloop
endfacet
facet normal -0.9961946980917451 0.08715574274766338 0.0
  outer loop
    vertex 69.03825974907767 875.893909747576 1.0000000000000002
    vertex 68.97749076112649 875.1993170369083 2.5046333740767123e-30
    vertex 68.97749076112649 875.1993170369083 1.0000000000000002
  endloop
endfacet
facet normal -0.9961946980917451 0.08715574274766338 0.0
  outer loop
    vertex 68.97749076112649 875.1993170369083 2.5046333740767123e-30
    vertex 69.03825974907767 875.893909747576 1.0000000000000002
    vertex 69.03825974907767 875.893909747576 2.5046333740767123e-30
  endloop
endfacet
facet normal -0.9659258262890692 0.2588190451025179 0.0
  outer loop
    vertex 69.21872027798285 876.567397610211 1.0000000000000002
    vertex 69.03825974907767 875.893909747576 2.5046333740767123e-30
    vertex 69.03825974907767 875.893909747576 1.0000000000000002
  endloop
endfacet
facet normal -0.9659258262890692 0.2588190451025179 0.0
  outer loop
    vertex 69.03825974907767 875.893909747576 2.5046333740767123e-30
    vertex 69.21872027798285 876.567397610211 1.0000000000000002
    vertex 69.21872027798285 876.567397610211 2.5046333740767123e-30
  endloop
endfacet
facet normal -0.9063077870366631 0.42261826174067146 0.0
  outer loop
    vertex 69.51338914598874 877.1993170369084 1.0000000000000002
    vertex 69.21872027798285 876.567397610211 2.5046333740767123e-30
    vertex 69.21872027798285 876.567397610211 1.0000000000000002
  endloop
endfacet
facet normal -0.9063077870366631 0.42261826174067146 0.0
  outer loop
    vertex 69.21872027798285 876.567397610211 2.5046333740767123e-30
    vertex 69.51338914598874 877.1993170369084 1.0000000000000002
    vertex 69.51338914598874 877.1993170369084 2.5046333740767123e-30
  endloop
endfacet
facet normal -0.8191520442889604 0.5735764363510909 0.0
  outer loop
    vertex 69.91331298865057 877.7704674756544 1.0000000000000002
    vertex 69.51338914598874 877.1993170369084 2.5046333740767123e-30
    vertex 69.51338914598874 877.1993170369084 1.0000000000000002
  endloop
endfacet
facet normal -0.8191520442889604 0.5735764363510909 0.0
  outer loop
    vertex 69.51338914598874 877.1993170369084 2.5046333740767123e-30
    vertex 69.91331298865057 877.7704674756544 1.0000000000000002
    vertex 69.91331298865057 877.7704674756544 2.5046333740767123e-30
  endloop
endfacet
facet normal -0.7071067811865396 0.7071067811865556 0.0
  outer loop
    vertex 69.91331298865057 877.7704674756544 1.0000000000000002
    vertex 70.40634032238033 878.2634948093842 2.5046333740767123e-30
    vertex 69.91331298865057 877.7704674756544 2.5046333740767123e-30
  endloop
endfacet
facet normal -0.7071067811865396 0.7071067811865556 0.0
  outer loop
    vertex 70.40634032238033 878.2634948093842 2.5046333740767123e-30
    vertex 69.91331298865057 877.7704674756544 1.0000000000000002
    vertex 70.40634032238033 878.2634948093842 1.0000000000000002
  endloop
endfacet
facet normal -0.573576436351016 0.819152044289013 0.0
  outer loop
    vertex 70.40634032238033 878.2634948093842 1.0000000000000002
    vertex 70.97749076112649 878.663418652046 2.5046333740767123e-30
    vertex 70.40634032238033 878.2634948093842 2.5046333740767123e-30
  endloop
endfacet
facet normal -0.573576436351016 0.819152044289013 0.0
  outer loop
    vertex 70.97749076112649 878.663418652046 2.5046333740767123e-30
    vertex 70.40634032238033 878.2634948093842 1.0000000000000002
    vertex 70.97749076112649 878.663418652046 1.0000000000000002
  endloop
endfacet
facet normal -0.42261826174077594 0.9063077870366143 0.0
  outer loop
    vertex 70.97749076112649 878.663418652046 1.0000000000000002
    vertex 71.60941018782381 878.9580875200519 2.5046333740767123e-30
    vertex 70.97749076112649 878.663418652046 2.5046333740767123e-30
  endloop
endfacet
facet normal -0.42261826174077594 0.9063077870366143 0.0
  outer loop
    vertex 71.60941018782381 878.9580875200519 2.5046333740767123e-30
    vertex 70.97749076112649 878.663418652046 1.0000000000000002
    vertex 71.60941018782381 878.9580875200519 1.0000000000000002
  endloop
endfacet
facet normal -0.25881904510255205 0.9659258262890599 0.0
  outer loop
    vertex 71.60941018782381 878.9580875200519 1.0000000000000002
    vertex 72.28289805045877 879.1385480489571 2.5046333740767123e-30
    vertex 71.60941018782381 878.9580875200519 2.5046333740767123e-30
  endloop
endfacet
facet normal -0.25881904510255205 0.9659258262890599 0.0
  outer loop
    vertex 72.28289805045877 879.1385480489571 2.5046333740767123e-30
    vertex 71.60941018782381 878.9580875200519 1.0000000000000002
    vertex 72.28289805045877 879.1385480489571 1.0000000000000002
  endloop
endfacet
facet normal -0.08715574274755518 0.9961946980917546 0.0
  outer loop
    vertex 72.28289805045877 879.1385480489571 1.0000000000000002
    vertex 72.97749076112649 879.1993170369083 2.5046333740767123e-30
    vertex 72.28289805045877 879.1385480489571 2.5046333740767123e-30
  endloop
endfacet
facet normal -0.08715574274755518 0.9961946980917546 0.0
  outer loop
    vertex 72.97749076112649 879.1993170369083 2.5046333740767123e-30
    vertex 72.28289805045877 879.1385480489571 1.0000000000000002
    vertex 72.97749076112649 879.1993170369083 1.0000000000000002
  endloop
endfacet
facet normal 0.0871557427475566 0.9961946980917544 0.0
  outer loop
    vertex 72.97749076112649 879.1993170369083 1.0000000000000002
    vertex 73.67208347179421 879.1385480489571 2.5046333740767123e-30
    vertex 72.97749076112649 879.1993170369083 2.5046333740767123e-30
  endloop
endfacet
facet normal 0.0871557427475566 0.9961946980917544 0.0
  outer loop
    vertex 73.67208347179421 879.1385480489571 2.5046333740767123e-30
    vertex 72.97749076112649 879.1993170369083 1.0000000000000002
    vertex 73.67208347179421 879.1385480489571 1.0000000000000002
  endloop
endfacet
facet normal 0.25881904510255205 0.9659258262890599 0.0
  outer loop
    vertex 73.67208347179421 879.1385480489571 1.0000000000000002
    vertex 74.34557133442915 878.9580875200519 2.5046333740767123e-30
    vertex 73.67208347179421 879.1385480489571 2.5046333740767123e-30
  endloop
endfacet
facet normal 0.25881904510255205 0.9659258262890599 0.0
  outer loop
    vertex 74.34557133442915 878.9580875200519 2.5046333740767123e-30
    vertex 73.67208347179421 879.1385480489571 1.0000000000000002
    vertex 74.34557133442915 878.9580875200519 1.0000000000000002
  endloop
endfacet
facet normal 0.42261826174076983 0.9063077870366172 0.0
  outer loop
    vertex 74.34557133442915 878.9580875200519 1.0000000000000002
    vertex 74.97749076112649 878.663418652046 2.5046333740767123e-30
    vertex 74.34557133442915 878.9580875200519 2.5046333740767123e-30
  endloop
endfacet
facet normal 0.42261826174076983 0.9063077870366172 0.0
  outer loop
    vertex 74.97749076112649 878.663418652046 2.5046333740767123e-30
    vertex 74.34557133442915 878.9580875200519 1.0000000000000002
    vertex 74.97749076112649 878.663418652046 1.0000000000000002
  endloop
endfacet
facet normal 0.5735764363510235 0.8191520442890076 0.0
  outer loop
    vertex 74.97749076112649 878.663418652046 1.0000000000000002
    vertex 75.54864119987265 878.2634948093842 2.5046333740767123e-30
    vertex 74.97749076112649 878.663418652046 2.5046333740767123e-30
  endloop
endfacet
facet normal 0.5735764363510235 0.8191520442890076 0.0
  outer loop
    vertex 75.54864119987265 878.2634948093842 2.5046333740767123e-30
    vertex 74.97749076112649 878.663418652046 1.0000000000000002
    vertex 75.54864119987265 878.2634948093842 1.0000000000000002
  endloop
endfacet
facet normal 0.7071067811865395 0.7071067811865557 0.0
  outer loop
    vertex 75.54864119987265 878.2634948093842 1.0000000000000002
    vertex 76.04166853360239 877.7704674756544 2.5046333740767123e-30
    vertex 75.54864119987265 878.2634948093842 2.5046333740767123e-30
  endloop
endfacet
facet normal 0.7071067811865395 0.7071067811865557 0.0
  outer loop
    vertex 76.04166853360239 877.7704674756544 2.5046333740767123e-30
    vertex 75.54864119987265 878.2634948093842 1.0000000000000002
    vertex 76.04166853360239 877.7704674756544 1.0000000000000002
  endloop
endfacet
facet normal 0.8191520442889604 0.5735764363510909 0.0
  outer loop
    vertex 76.04166853360239 877.7704674756544 2.5046333740767123e-30
    vertex 76.44159237626424 877.1993170369084 1.0000000000000002
    vertex 76.44159237626424 877.1993170369084 2.5046333740767123e-30
  endloop
endfacet
facet normal 0.8191520442889604 0.5735764363510909 0.0
  outer loop
    vertex 76.44159237626424 877.1993170369084 1.0000000000000002
    vertex 76.04166853360239 877.7704674756544 2.5046333740767123e-30
    vertex 76.04166853360239 877.7704674756544 1.0000000000000002
  endloop
endfacet
facet normal 0.9063077870366569 0.4226182617406848 0.0
  outer loop
    vertex 76.44159237626424 877.1993170369084 2.5046333740767123e-30
    vertex 76.73626124427012 876.567397610211 1.0000000000000002
    vertex 76.73626124427012 876.567397610211 2.5046333740767123e-30
  endloop
endfacet
facet normal 0.9063077870366569 0.4226182617406848 0.0
  outer loop
    vertex 76.73626124427012 876.567397610211 1.0000000000000002
    vertex 76.44159237626424 877.1993170369084 2.5046333740767123e-30
    vertex 76.44159237626424 877.1993170369084 1.0000000000000002
  endloop
endfacet
facet normal 0.9659258262890692 0.2588190451025179 0.0
  outer loop
    vertex 76.73626124427012 876.567397610211 2.5046333740767123e-30
    vertex 76.91672177317533 875.893909747576 1.0000000000000002
    vertex 76.91672177317533 875.893909747576 2.5046333740767123e-30
  endloop
endfacet
facet normal 0.9659258262890692 0.2588190451025179 0.0
  outer loop
    vertex 76.91672177317533 875.893909747576 1.0000000000000002
    vertex 76.73626124427012 876.567397610211 2.5046333740767123e-30
    vertex 76.73626124427012 876.567397610211 1.0000000000000002
  endloop
endfacet
facet normal 0.9961946980917464 0.08715574274764731 0.0
  outer loop
    vertex 76.91672177317533 875.893909747576 2.5046333740767123e-30
    vertex 76.97749076112649 875.1993170369083 1.0000000000000002
    vertex 76.97749076112649 875.1993170369083 2.5046333740767123e-30
  endloop
endfacet
facet normal 0.9961946980917464 0.08715574274764731 0.0
  outer loop
    vertex 76.97749076112649 875.1993170369083 1.0000000000000002
    vertex 76.91672177317533 875.893909747576 2.5046333740767123e-30
    vertex 76.91672177317533 875.893909747576 1.0000000000000002
  endloop
endfacet
facet normal 0.0 0.0 1.0
  outer loop
    vertex 70.36949103014601 874.5005056151315 4.999999999999998
    vertex 70.36949103014601 875.898128458685 4.999999999999998
    vertex 70.27749076112649 875.1993170369083 4.999999999999998
  endloop
endfacet
facet normal 0.0 0.0 1.0
  outer loop
    vertex 70.36949103014601 875.898128458685 4.999999999999998
    vertex 70.36949103014601 874.5005056151315 4.999999999999998
    vertex 70.6392221709085 873.8493170369082 4.999999999999998
  endloop
endfacet
facet normal 0.0 0.0 1.0
  outer loop
    vertex 70.36949103014601 875.898128458685 4.999999999999998
    vertex 70.6392221709085 873.8493170369082 4.999999999999998
    vertex 70.6392221709085 876.5493170369083 4.999999999999998
  endloop
endfacet
facet normal 0.0 0.0 1.0
  outer loop
    vertex 70.6392221709085 876.5493170369083 4.999999999999998
    vertex 70.6392221709085 873.8493170369082 4.999999999999998
    vertex 71.0683024519228 873.2901287277047 4.999999999999998
  endloop
endfacet
facet normal 0.0 0.0 1.0
  outer loop
    vertex 70.6392221709085 876.5493170369083 4.999999999999998
    vertex 71.0683024519228 873.2901287277047 4.999999999999998
    vertex 71.0683024519228 877.1085053461119 4.999999999999998
  endloop
endfacet
facet normal 0.0 0.0 1.0
  outer loop
    vertex 71.0683024519228 877.1085053461119 4.999999999999998
    vertex 71.0683024519228 873.2901287277047 4.999999999999998
    vertex 71.62749076112648 872.8610484466902 4.999999999999998
  endloop
endfacet
facet normal 0.0 0.0 1.0
  outer loop
    vertex 71.0683024519228 877.1085053461119 4.999999999999998
    vertex 71.62749076112648 872.8610484466902 4.999999999999998
    vertex 71.62749076112648 877.5375856271263 4.999999999999998
  endloop
endfacet
facet normal 0.0 0.0 1.0
  outer loop
    vertex 71.62749076112648 877.5375856271263 4.999999999999998
    vertex 71.62749076112648 872.8610484466902 4.999999999999998
    vertex 72.27867933934967 872.5913173059276 4.999999999999998
  endloop
endfacet
facet normal 0.0 0.0 1.0
  outer loop
    vertex 71.62749076112648 877.5375856271263 4.999999999999998
    vertex 72.27867933934967 872.5913173059276 4.999999999999998
    vertex 72.27867933934967 877.8073167678888 4.999999999999998
  endloop
endfacet
facet normal 0.0 0.0 1.0
  outer loop
    vertex 72.27867933934967 877.8073167678888 4.999999999999998
    vertex 72.27867933934967 872.5913173059276 4.999999999999998
    vertex 72.97749076112649 872.4993170369083 4.999999999999998
  endloop
endfacet
facet normal 0.0 0.0 1.0
  outer loop
    vertex 72.27867933934967 877.8073167678888 4.999999999999998
    vertex 72.97749076112649 872.4993170369083 4.999999999999998
    vertex 72.97749076112649 877.8993170369082 4.999999999999998
  endloop
endfacet
facet normal 0.0 0.0 1.0
  outer loop
    vertex 72.97749076112649 877.8993170369082 4.999999999999998
    vertex 72.97749076112649 872.4993170369083 4.999999999999998
    vertex 73.67630218290329 872.5913173059276 4.999999999999998
  endloop
endfacet
facet normal 0.0 0.0 1.0
  outer loop
    vertex 72.97749076112649 877.8993170369082 4.999999999999998
    vertex 73.67630218290329 872.5913173059276 4.999999999999998
    vertex 73.67630218290329 877.8073167678888 4.999999999999998
  endloop
endfacet
facet normal 0.0 0.0 1.0
  outer loop
    vertex 73.67630218290329 877.8073167678888 4.999999999999998
    vertex 73.67630218290329 872.5913173059276 4.999999999999998
    vertex 74.32749076112648 872.8610484466902 4.999999999999998
  endloop
endfacet
facet normal 0.0 0.0 1.0
  outer loop
    vertex 73.67630218290329 877.8073167678888 4.999999999999998
    vertex 74.32749076112648 872.8610484466902 4.999999999999998
    vertex 74.32749076112648 877.5375856271263 4.999999999999998
  endloop
endfacet
facet normal 0.0 0.0 1.0
  outer loop
    vertex 74.32749076112648 877.5375856271263 4.999999999999998
    vertex 74.32749076112648 872.8610484466902 4.999999999999998
    vertex 74.88667907033016 877.1085053461119 4.999999999999998
  endloop
endfacet
facet normal 0.0 0.0 1.0
  outer loop
    vertex 74.88667907033016 877.1085053461119 4.999999999999998
    vertex 74.32749076112648 872.8610484466902 4.999999999999998
    vertex 74.88667907033016 873.2901287277047 4.999999999999998
  endloop
endfacet
facet normal 0.0 0.0 1.0
  outer loop
    vertex 74.88667907033016 877.1085053461119 4.999999999999998
    vertex 74.88667907033016 873.2901287277047 4.999999999999998
    vertex 75.31575935134447 873.8493170369082 4.999999999999998
  endloop
endfacet
facet normal 0.0 0.0 1.0
  outer loop
    vertex 74.88667907033016 877.1085053461119 4.999999999999998
    vertex 75.31575935134447 873.8493170369082 4.999999999999998
    vertex 75.31575935134447 876.5493170369083 4.999999999999998
  endloop
endfacet
facet normal 0.0 0.0 1.0
  outer loop
    vertex 75.31575935134447 876.5493170369083 4.999999999999998
    vertex 75.31575935134447 873.8493170369082 4.999999999999998
    vertex 75.58549049210697 874.5005056151315 4.999999999999998
  endloop
endfacet
facet normal 0.0 0.0 1.0
  outer loop
    vertex 75.31575935134447 876.5493170369083 4.999999999999998
    vertex 75.58549049210697 874.5005056151315 4.999999999999998
    vertex 75.58549049210697 875.898128458685 4.999999999999998
  endloop
endfacet
facet normal 0.0 0.0 1.0
  outer loop
    vertex 75.58549049210697 875.898128458685 4.999999999999998
    vertex 75.58549049210697 874.5005056151315 4.999999999999998
    vertex 75.67749076112649 875.1993170369083 4.999999999999998
  endloop
endfacet
facet normal 0.7933533402911854 -0.6087614290087857 0.0
  outer loop
    vertex 75.31575935134447 873.8493170369082 1.0000000000000002
    vertex 74.88667907033016 873.2901287277047 4.999999999999998
    vertex 74.88667907033016 873.2901287277047 1.0000000000000002
  endloop
endfacet
facet normal 0.7933533402911854 -0.6087614290087857 0.0
  outer loop
    vertex 74.88667907033016 873.2901287277047 4.999999999999998
    vertex 75.31575935134447 873.8493170369082 1.0000000000000002
    vertex 75.31575935134447 873.8493170369082 4.999999999999998
  endloop
endfacet
facet normal 0.9238795325113045 -0.38268343236504676 0.0
  outer loop
    vertex 75.58549049210697 874.5005056151315 1.0000000000000002
    vertex 75.31575935134447 873.8493170369082 4.999999999999998
    vertex 75.31575935134447 873.8493170369082 1.0000000000000002
  endloop
endfacet
facet normal 0.9238795325113045 -0.38268343236504676 0.0
  outer loop
    vertex 75.31575935134447 873.8493170369082 4.999999999999998
    vertex 75.58549049210697 874.5005056151315 1.0000000000000002
    vertex 75.58549049210697 874.5005056151315 4.999999999999998
  endloop
endfacet
facet normal 0.99144486137381 -0.13052619222005463 0.0
  outer loop
    vertex 75.67749076112649 875.1993170369083 1.0000000000000002
    vertex 75.58549049210697 874.5005056151315 4.999999999999998
    vertex 75.58549049210697 874.5005056151315 1.0000000000000002
  endloop
endfacet
facet normal 0.99144486137381 -0.13052619222005463 0.0
  outer loop
    vertex 75.58549049210697 874.5005056151315 4.999999999999998
    vertex 75.67749076112649 875.1993170369083 1.0000000000000002
    vertex 75.67749076112649 875.1993170369083 4.999999999999998
  endloop
endfacet
facet normal 0.0 0.0 -1.0
  outer loop
    vertex 69.03825974907767 875.893909747576 2.5046333740767123e-30
    vertex 69.03825974907767 874.5047243262405 2.5046333740767123e-30
    vertex 68.97749076112649 875.1993170369083 2.5046333740767123e-30
  endloop
endfacet
facet normal 0.0 0.0 -1.0
  outer loop
    vertex 69.03825974907767 874.5047243262405 2.5046333740767123e-30
    vertex 69.03825974907767 875.893909747576 2.5046333740767123e-30
    vertex 69.21872027798285 876.567397610211 2.5046333740767123e-30
  endloop
endfacet
facet normal 0.0 0.0 -1.0
  outer loop
    vertex 69.03825974907767 874.5047243262405 2.5046333740767123e-30
    vertex 69.21872027798285 876.567397610211 2.5046333740767123e-30
    vertex 69.21872027798285 873.8312364636055 2.5046333740767123e-30
  endloop
endfacet
facet normal 0.0 0.0 -1.0
  outer loop
    vertex 69.21872027798285 873.8312364636055 2.5046333740767123e-30
    vertex 69.21872027798285 876.567397610211 2.5046333740767123e-30
    vertex 69.51338914598874 873.1993170369084 2.5046333740767123e-30
  endloop
endfacet
facet normal 0.0 0.0 -1.0
  outer loop
    vertex 69.51338914598874 873.1993170369084 2.5046333740767123e-30
    vertex 69.21872027798285 876.567397610211 2.5046333740767123e-30
    vertex 69.51338914598874 877.1993170369084 2.5046333740767123e-30
  endloop
endfacet
facet normal 0.0 0.0 -1.0
  outer loop
    vertex 69.51338914598874 873.1993170369084 2.5046333740767123e-30
    vertex 69.51338914598874 877.1993170369084 2.5046333740767123e-30
    vertex 69.91331298865057 877.7704674756544 2.5046333740767123e-30
  endloop
endfacet
facet normal 0.0 0.0 -1.0
  outer loop
    vertex 69.51338914598874 873.1993170369084 2.5046333740767123e-30
    vertex 69.91331298865057 877.7704674756544 2.5046333740767123e-30
    vertex 69.91331298865057 872.6281665981621 2.5046333740767123e-30
  endloop
endfacet
facet normal 0.0 0.0 -1.0
  outer loop
    vertex 69.91331298865057 872.6281665981621 2.5046333740767123e-30
    vertex 69.91331298865057 877.7704674756544 2.5046333740767123e-30
    vertex 70.40634032238033 878.2634948093842 2.5046333740767123e-30
  endloop
endfacet
facet normal 0.0 0.0 -1.0
  outer loop
    vertex 69.91331298865057 872.6281665981621 2.5046333740767123e-30
    vertex 70.40634032238033 878.2634948093842 2.5046333740767123e-30
    vertex 70.40634032238032 872.1351392644324 2.5046333740767123e-30
  endloop
endfacet
facet normal 0.0 0.0 -1.0
  outer loop
    vertex 70.40634032238032 872.1351392644324 2.5046333740767123e-30
    vertex 70.40634032238033 878.2634948093842 2.5046333740767123e-30
    vertex 70.97749076112648 871.7352154217705 2.5046333740767123e-30
  endloop
endfacet
facet normal 0.0 0.0 -1.0
  outer loop
    vertex 70.97749076112648 871.7352154217705 2.5046333740767123e-30
    vertex 70.40634032238033 878.2634948093842 2.5046333740767123e-30
    vertex 70.97749076112649 878.663418652046 2.5046333740767123e-30
  endloop
endfacet
facet normal 0.0 0.0 -1.0
  outer loop
    vertex 70.97749076112648 871.7352154217705 2.5046333740767123e-30
    vertex 70.97749076112649 878.663418652046 2.5046333740767123e-30
    vertex 71.6094101878238 871.4405465537645 2.5046333740767123e-30
  endloop
endfacet
facet normal 0.0 0.0 -1.0
  outer loop
    vertex 71.6094101878238 871.4405465537645 2.5046333740767123e-30
    vertex 70.97749076112649 878.663418652046 2.5046333740767123e-30
    vertex 71.60941018782381 878.9580875200519 2.5046333740767123e-30
  endloop
endfacet
facet normal 0.0 0.0 -1.0
  outer loop
    vertex 71.6094101878238 871.4405465537645 2.5046333740767123e-30
    vertex 71.60941018782381 878.9580875200519 2.5046333740767123e-30
    vertex 72.28289805045875 871.2600860248593 2.5046333740767123e-30
  endloop
endfacet
facet normal 0.0 0.0 -1.0
  outer loop
    vertex 72.28289805045875 871.2600860248593 2.5046333740767123e-30
    vertex 71.60941018782381 878.9580875200519 2.5046333740767123e-30
    vertex 72.28289805045877 879.1385480489571 2.5046333740767123e-30
  endloop
endfacet
facet normal 0.0 0.0 -1.0
  outer loop
    vertex 72.28289805045875 871.2600860248593 2.5046333740767123e-30
    vertex 72.28289805045877 879.1385480489571 2.5046333740767123e-30
    vertex 72.97749076112648 871.1993170369083 2.5046333740767123e-30
  endloop
endfacet
facet normal 0.0 0.0 -1.0
  outer loop
    vertex 72.97749076112648 871.1993170369083 2.5046333740767123e-30
    vertex 72.28289805045877 879.1385480489571 2.5046333740767123e-30
    vertex 72.97749076112649 879.1993170369083 2.5046333740767123e-30
  endloop
endfacet
facet normal 0.0 0.0 -1.0
  outer loop
    vertex 72.97749076112648 871.1993170369083 2.5046333740767123e-30
    vertex 72.97749076112649 879.1993170369083 2.5046333740767123e-30
    vertex 73.6720834717942 871.2600860248593 2.5046333740767123e-30
  endloop
endfacet
facet normal 0.0 0.0 -1.0
  outer loop
    vertex 73.6720834717942 871.2600860248593 2.5046333740767123e-30
    vertex 72.97749076112649 879.1993170369083 2.5046333740767123e-30
    vertex 73.67208347179421 879.1385480489571 2.5046333740767123e-30
  endloop
endfacet
facet normal 0.0 0.0 -1.0
  outer loop
    vertex 73.6720834717942 871.2600860248593 2.5046333740767123e-30
    vertex 73.67208347179421 879.1385480489571 2.5046333740767123e-30
    vertex 74.34557133442915 871.4405465537645 2.5046333740767123e-30
  endloop
endfacet
facet normal 0.0 0.0 -1.0
  outer loop
    vertex 74.34557133442915 871.4405465537645 2.5046333740767123e-30
    vertex 73.67208347179421 879.1385480489571 2.5046333740767123e-30
    vertex 74.34557133442915 878.9580875200519 2.5046333740767123e-30
  endloop
endfacet
facet normal 0.0 0.0 -1.0
  outer loop
    vertex 74.34557133442915 871.4405465537645 2.5046333740767123e-30
    vertex 74.34557133442915 878.9580875200519 2.5046333740767123e-30
    vertex 74.97749076112646 871.7352154217705 2.5046333740767123e-30
  endloop
endfacet
facet normal 0.0 0.0 -1.0
  outer loop
    vertex 74.97749076112646 871.7352154217705 2.5046333740767123e-30
    vertex 74.34557133442915 878.9580875200519 2.5046333740767123e-30
    vertex 74.97749076112649 878.663418652046 2.5046333740767123e-30
  endloop
endfacet
facet normal 0.0 0.0 -1.0
  outer loop
    vertex 74.97749076112646 871.7352154217705 2.5046333740767123e-30
    vertex 74.97749076112649 878.663418652046 2.5046333740767123e-30
    vertex 75.54864119987263 872.1351392644324 2.5046333740767123e-30
  endloop
endfacet
facet normal 0.0 0.0 -1.0
  outer loop
    vertex 75.54864119987263 872.1351392644324 2.5046333740767123e-30
    vertex 74.97749076112649 878.663418652046 2.5046333740767123e-30
    vertex 75.54864119987265 878.2634948093842 2.5046333740767123e-30
  endloop
endfacet
facet normal 0.0 0.0 -1.0
  outer loop
    vertex 75.54864119987263 872.1351392644324 2.5046333740767123e-30
    vertex 75.54864119987265 878.2634948093842 2.5046333740767123e-30
    vertex 76.04166853360239 872.6281665981621 2.5046333740767123e-30
  endloop
endfacet
facet normal 0.0 0.0 -1.0
  outer loop
    vertex 76.04166853360239 872.6281665981621 2.5046333740767123e-30
    vertex 75.54864119987265 878.2634948093842 2.5046333740767123e-30
    vertex 76.04166853360239 877.7704674756544 2.5046333740767123e-30
  endloop
endfacet
facet normal 0.0 0.0 -1.0
  outer loop
    vertex 76.04166853360239 872.6281665981621 2.5046333740767123e-30
    vertex 76.04166853360239 877.7704674756544 2.5046333740767123e-30
    vertex 76.44159237626423 873.1993170369082 2.5046333740767123e-30
  endloop
endfacet
facet normal 0.0 0.0 -1.0
  outer loop
    vertex 76.44159237626423 873.1993170369082 2.5046333740767123e-30
    vertex 76.04166853360239 877.7704674756544 2.5046333740767123e-30
    vertex 76.44159237626424 877.1993170369084 2.5046333740767123e-30
  endloop
endfacet
facet normal 0.0 0.0 -1.0
  outer loop
    vertex 76.44159237626423 873.1993170369082 2.5046333740767123e-30
    vertex 76.44159237626424 877.1993170369084 2.5046333740767123e-30
    vertex 76.73626124427011 873.8312364636055 2.5046333740767123e-30
  endloop
endfacet
facet normal 0.0 0.0 -1.0
  outer loop
    vertex 76.73626124427011 873.8312364636055 2.5046333740767123e-30
    vertex 76.44159237626424 877.1993170369084 2.5046333740767123e-30
    vertex 76.73626124427012 876.567397610211 2.5046333740767123e-30
  endloop
endfacet
facet normal 0.0 0.0 -1.0
  outer loop
    vertex 76.73626124427011 873.8312364636055 2.5046333740767123e-30
    vertex 76.73626124427012 876.567397610211 2.5046333740767123e-30
    vertex 76.91672177317533 874.5047243262405 2.5046333740767123e-30
  endloop
endfacet
facet normal 0.0 0.0 -1.0
  outer loop
    vertex 76.91672177317533 874.5047243262405 2.5046333740767123e-30
    vertex 76.73626124427012 876.567397610211 2.5046333740767123e-30
    vertex 76.91672177317533 875.893909747576 2.5046333740767123e-30
  endloop
endfacet
facet normal 0.0 0.0 -1.0
  outer loop
    vertex 76.91672177317533 874.5047243262405 2.5046333740767123e-30
    vertex 76.91672177317533 875.893909747576 2.5046333740767123e-30
    vertex 76.97749076112649 875.1993170369083 2.5046333740767123e-30
  endloop
endfacet
facet normal -0.130526192219822 0.9914448613738407 0.0
  outer loop
    vertex 72.27867933934967 877.8073167678888 4.999999999999998
    vertex 72.97749076112649 877.8993170369082 1.0000000000000002
    vertex 72.27867933934967 877.8073167678888 1.0000000000000002
  endloop
endfacet
facet normal -0.130526192219822 0.9914448613738407 0.0
  outer loop
    vertex 72.97749076112649 877.8993170369082 1.0000000000000002
    vertex 72.27867933934967 877.8073167678888 4.999999999999998
    vertex 72.97749076112649 877.8993170369082 4.999999999999998
  endloop
endfacet
facet normal -0.9914448613738079 -0.13052619222007036 0.0
  outer loop
    vertex 70.27749076112649 875.1993170369083 4.999999999999998
    vertex 70.36949103014601 874.5005056151315 1.0000000000000002
    vertex 70.36949103014601 874.5005056151315 4.999999999999998
  endloop
endfacet
facet normal -0.9914448613738079 -0.13052619222007036 0.0
  outer loop
    vertex 70.36949103014601 874.5005056151315 1.0000000000000002
    vertex 70.27749076112649 875.1993170369083 4.999999999999998
    vertex 70.27749076112649 875.1993170369083 1.0000000000000002
  endloop
endfacet
facet normal -0.9914448613738079 0.13052619222007036 0.0
  outer loop
    vertex 70.36949103014601 875.898128458685 4.999999999999998
    vertex 70.27749076112649 875.1993170369083 1.0000000000000002
    vertex 70.27749076112649 875.1993170369083 4.999999999999998
  endloop
endfacet
facet normal -0.9914448613738079 0.13052619222007036 0.0
  outer loop
    vertex 70.27749076112649 875.1993170369083 1.0000000000000002
    vertex 70.36949103014601 875.898128458685 4.999999999999998
    vertex 70.36949103014601 875.898128458685 1.0000000000000002
  endloop
endfacet
facet normal -0.6087614290088246 0.7933533402911553 0.0
  outer loop
    vertex 71.0683024519228 877.1085053461119 4.999999999999998
    vertex 71.62749076112648 877.5375856271263 1.0000000000000002
    vertex 71.0683024519228 877.1085053461119 1.0000000000000002
  endloop
endfacet
facet normal -0.6087614290088246 0.7933533402911553 0.0
  outer loop
    vertex 71.62749076112648 877.5375856271263 1.0000000000000002
    vertex 71.0683024519228 877.1085053461119 4.999999999999998
    vertex 71.62749076112648 877.5375856271263 4.999999999999998
  endloop
endfacet
facet normal -0.38268343236510344 0.9238795325112812 0.0
  outer loop
    vertex 71.62749076112648 877.5375856271263 4.999999999999998
    vertex 72.27867933934967 877.8073167678888 1.0000000000000002
    vertex 71.62749076112648 877.5375856271263 1.0000000000000002
  endloop
endfacet
facet normal -0.38268343236510344 0.9238795325112812 0.0
  outer loop
    vertex 72.27867933934967 877.8073167678888 1.0000000000000002
    vertex 71.62749076112648 877.5375856271263 4.999999999999998
    vertex 72.27867933934967 877.8073167678888 4.999999999999998
  endloop
endfacet
facet normal -0.9238795325113159 -0.38268343236501945 0.0
  outer loop
    vertex 70.36949103014601 874.5005056151315 4.999999999999998
    vertex 70.6392221709085 873.8493170369082 1.0000000000000002
    vertex 70.6392221709085 873.8493170369082 4.999999999999998
  endloop
endfacet
facet normal -0.9238795325113159 -0.38268343236501945 0.0
  outer loop
    vertex 70.6392221709085 873.8493170369082 1.0000000000000002
    vertex 70.36949103014601 874.5005056151315 4.999999999999998
    vertex 70.36949103014601 874.5005056151315 1.0000000000000002
  endloop
endfacet
facet normal -0.7933533402911854 -0.6087614290087857 0.0
  outer loop
    vertex 70.6392221709085 873.8493170369082 4.999999999999998
    vertex 71.0683024519228 873.2901287277047 1.0000000000000002
    vertex 71.0683024519228 873.2901287277047 4.999999999999998
  endloop
endfacet
facet normal -0.7933533402911854 -0.6087614290087857 0.0
  outer loop
    vertex 71.0683024519228 873.2901287277047 1.0000000000000002
    vertex 70.6392221709085 873.8493170369082 4.999999999999998
    vertex 70.6392221709085 873.8493170369082 1.0000000000000002
  endloop
endfacet
facet normal -0.6087614290088246 -0.7933533402911553 0.0
  outer loop
    vertex 71.62749076112648 872.8610484466902 4.999999999999998
    vertex 71.0683024519228 873.2901287277047 1.0000000000000002
    vertex 71.62749076112648 872.8610484466902 1.0000000000000002
  endloop
endfacet
facet normal -0.6087614290088246 -0.7933533402911553 0.0
  outer loop
    vertex 71.0683024519228 873.2901287277047 1.0000000000000002
    vertex 71.62749076112648 872.8610484466902 4.999999999999998
    vertex 71.0683024519228 873.2901287277047 4.999999999999998
  endloop
endfacet
facet normal -0.38268343236510344 -0.9238795325112812 0.0
  outer loop
    vertex 72.27867933934967 872.5913173059276 4.999999999999998
    vertex 71.62749076112648 872.8610484466902 1.0000000000000002
    vertex 72.27867933934967 872.5913173059276 1.0000000000000002
  endloop
endfacet
facet normal -0.38268343236510344 -0.9238795325112812 0.0
  outer loop
    vertex 71.62749076112648 872.8610484466902 1.0000000000000002
    vertex 72.27867933934967 872.5913173059276 4.999999999999998
    vertex 71.62749076112648 872.8610484466902 4.999999999999998
  endloop
endfacet
facet normal -0.13052619221982198 -0.9914448613738407 0.0
  outer loop
    vertex 72.97749076112649 872.4993170369083 4.999999999999998
    vertex 72.27867933934967 872.5913173059276 1.0000000000000002
    vertex 72.97749076112649 872.4993170369083 1.0000000000000002
  endloop
endfacet
facet normal -0.13052619221982198 -0.9914448613738407 0.0
  outer loop
    vertex 72.27867933934967 872.5913173059276 1.0000000000000002
    vertex 72.97749076112649 872.4993170369083 4.999999999999998
    vertex 72.27867933934967 872.5913173059276 4.999999999999998
  endloop
endfacet
facet normal 0.13052619221982614 -0.9914448613738402 0.0
  outer loop
    vertex 73.67630218290329 872.5913173059276 4.999999999999998
    vertex 72.97749076112649 872.4993170369083 1.0000000000000002
    vertex 73.67630218290329 872.5913173059276 1.0000000000000002
  endloop
endfacet
facet normal 0.13052619221982614 -0.9914448613738402 0.0
  outer loop
    vertex 72.97749076112649 872.4993170369083 1.0000000000000002
    vertex 73.67630218290329 872.5913173059276 4.999999999999998
    vertex 72.97749076112649 872.4993170369083 4.999999999999998
  endloop
endfacet
facet normal 0.38268343236509766 -0.9238795325112835 0.0
  outer loop
    vertex 74.32749076112648 872.8610484466902 4.999999999999998
    vertex 73.67630218290329 872.5913173059276 1.0000000000000002
    vertex 74.32749076112648 872.8610484466902 1.0000000000000002
  endloop
endfacet
facet normal 0.38268343236509766 -0.9238795325112835 0.0
  outer loop
    vertex 73.67630218290329 872.5913173059276 1.0000000000000002
    vertex 74.32749076112648 872.8610484466902 4.999999999999998
    vertex 73.67630218290329 872.5913173059276 4.999999999999998
  endloop
endfacet
facet normal 0.6087614290088323 -0.7933533402911495 0.0
  outer loop
    vertex 74.88667907033016 873.2901287277047 4.999999999999998
    vertex 74.32749076112648 872.8610484466902 1.0000000000000002
    vertex 74.88667907033016 873.2901287277047 1.0000000000000002
  endloop
endfacet
facet normal 0.6087614290088323 -0.7933533402911495 0.0
  outer loop
    vertex 74.32749076112648 872.8610484466902 1.0000000000000002
    vertex 74.88667907033016 873.2901287277047 4.999999999999998
    vertex 74.32749076112648 872.8610484466902 4.999999999999998
  endloop
endfacet
facet normal 0.13052619221982614 0.9914448613738402 0.0
  outer loop
    vertex 72.97749076112649 877.8993170369082 4.999999999999998
    vertex 73.67630218290329 877.8073167678888 1.0000000000000002
    vertex 72.97749076112649 877.8993170369082 1.0000000000000002
  endloop
endfacet
facet normal 0.13052619221982614 0.9914448613738402 0.0
  outer loop
    vertex 73.67630218290329 877.8073167678888 1.0000000000000002
    vertex 72.97749076112649 877.8993170369082 4.999999999999998
    vertex 73.67630218290329 877.8073167678888 4.999999999999998
  endloop
endfacet
facet normal 0.08715574274755518 -0.9961946980917546 0.0
  outer loop
    vertex 73.6720834717942 871.2600860248593 1.0000000000000002
    vertex 72.97749076112648 871.1993170369083 2.5046333740767123e-30
    vertex 73.6720834717942 871.2600860248593 2.5046333740767123e-30
  endloop
endfacet
facet normal 0.08715574274755518 -0.9961946980917546 0.0
  outer loop
    vertex 72.97749076112648 871.1993170369083 2.5046333740767123e-30
    vertex 73.6720834717942 871.2600860248593 1.0000000000000002
    vertex 72.97749076112648 871.1993170369083 1.0000000000000002
  endloop
endfacet
facet normal 0.42261826174077594 -0.9063077870366143 0.0
  outer loop
    vertex 74.97749076112646 871.7352154217705 1.0000000000000002
    vertex 74.34557133442915 871.4405465537645 2.5046333740767123e-30
    vertex 74.97749076112646 871.7352154217705 2.5046333740767123e-30
  endloop
endfacet
facet normal 0.42261826174077594 -0.9063077870366143 0.0
  outer loop
    vertex 74.34557133442915 871.4405465537645 2.5046333740767123e-30
    vertex 74.97749076112646 871.7352154217705 1.0000000000000002
    vertex 74.34557133442915 871.4405465537645 1.0000000000000002
  endloop
endfacet
facet normal 0.25881904510255205 -0.9659258262890599 0.0
  outer loop
    vertex 74.34557133442915 871.4405465537645 1.0000000000000002
    vertex 73.6720834717942 871.2600860248593 2.5046333740767123e-30
    vertex 74.34557133442915 871.4405465537645 2.5046333740767123e-30
  endloop
endfacet
facet normal 0.25881904510255205 -0.9659258262890599 0.0
  outer loop
    vertex 73.6720834717942 871.2600860248593 2.5046333740767123e-30
    vertex 74.34557133442915 871.4405465537645 1.0000000000000002
    vertex 73.6720834717942 871.2600860248593 1.0000000000000002
  endloop
endfacet
facet normal 0.573576436351016 -0.819152044289013 0.0
  outer loop
    vertex 75.54864119987263 872.1351392644324 1.0000000000000002
    vertex 74.97749076112646 871.7352154217705 2.5046333740767123e-30
    vertex 75.54864119987263 872.1351392644324 2.5046333740767123e-30
  endloop
endfacet
facet normal 0.573576436351016 -0.819152044289013 0.0
  outer loop
    vertex 74.97749076112646 871.7352154217705 2.5046333740767123e-30
    vertex 75.54864119987263 872.1351392644324 1.0000000000000002
    vertex 74.97749076112646 871.7352154217705 1.0000000000000002
  endloop
endfacet
facet normal 0.7071067811865396 -0.7071067811865556 0.0
  outer loop
    vertex 76.04166853360239 872.6281665981621 1.0000000000000002
    vertex 75.54864119987263 872.1351392644324 2.5046333740767123e-30
    vertex 76.04166853360239 872.6281665981621 2.5046333740767123e-30
  endloop
endfacet
facet normal 0.7071067811865396 -0.7071067811865556 0.0
  outer loop
    vertex 75.54864119987263 872.1351392644324 2.5046333740767123e-30
    vertex 76.04166853360239 872.6281665981621 1.0000000000000002
    vertex 75.54864119987263 872.1351392644324 1.0000000000000002
  endloop
endfacet
endsolid Mechanic
