solid Mechanic
facet normal 0.7071067811865411 -0.707106781186554 0.0
  outer loop
    vertex 66.27889913892052 817.9119052950687 1.9999999999999991
    vertex 65.66261497175833 817.2956211279065 0.49999999999999994
    vertex 66.27889913892052 817.9119052950687 0.49999999999999994
  endloop
endfacet
facet normal 0.7071067811865411 -0.707106781186554 0.0
  outer loop
    vertex 65.66261497175833 817.2956211279065 0.49999999999999994
    vertex 66.27889913892052 817.9119052950687 1.9999999999999991
    vertex 65.66261497175833 817.2956211279065 1.9999999999999991
  endloop
endfacet
facet normal 0.5735764363510961 -0.8191520442889568 0.0
  outer loop
    vertex 65.66261497175833 817.2956211279065 1.9999999999999991
    vertex 64.94867692332565 816.7957163245792 0.49999999999999994
    vertex 65.66261497175833 817.2956211279065 0.49999999999999994
  endloop
endfacet
facet normal 0.5735764363510961 -0.8191520442889568 0.0
  outer loop
    vertex 64.94867692332565 816.7957163245792 0.49999999999999994
    vertex 65.66261497175833 817.2956211279065 1.9999999999999991
    vertex 64.94867692332565 816.7957163245792 1.9999999999999991
  endloop
endfacet
facet normal 0.4226182617407334 -0.9063077870366341 0.0
  outer loop
    vertex 64.94867692332565 816.7957163245792 1.9999999999999991
    vertex 64.158777639954 816.4273802395718 0.49999999999999994
    vertex 64.94867692332565 816.7957163245792 0.49999999999999994
  endloop
endfacet
facet normal 0.4226182617407334 -0.9063077870366341 0.0
  outer loop
    vertex 64.158777639954 816.4273802395718 0.49999999999999994
    vertex 64.94867692332565 816.7957163245792 1.9999999999999991
    vertex 64.158777639954 816.4273802395718 1.9999999999999991
  endloop
endfacet
facet normal 0.2588190451025062 -0.9659258262890722 0.0
  outer loop
    vertex 64.158777639954 816.4273802395718 1.9999999999999991
    vertex 63.31691781166031 816.2018045784403 0.49999999999999994
    vertex 64.158777639954 816.4273802395718 0.49999999999999994
  endloop
endfacet
facet normal 0.2588190451025062 -0.9659258262890722 0.0
  outer loop
    vertex 63.31691781166031 816.2018045784403 0.49999999999999994
    vertex 64.158777639954 816.4273802395718 1.9999999999999991
    vertex 63.31691781166031 816.2018045784403 1.9999999999999991
  endloop
endfacet
facet normal 0.08715574274765935 -0.9961946980917454 0.0
  outer loop
    vertex 63.31691781166031 816.2018045784403 1.9999999999999991
    vertex 62.44867692332567 816.1258433435013 0.49999999999999994
    vertex 63.31691781166031 816.2018045784403 0.49999999999999994
  endloop
endfacet
facet normal 0.08715574274765935 -0.9961946980917454 0.0
  outer loop
    vertex 62.44867692332567 816.1258433435013 0.49999999999999994
    vertex 63.31691781166031 816.2018045784403 1.9999999999999991
    vertex 62.44867692332567 816.1258433435013 1.9999999999999991
  endloop
endfacet
facet normal -0.08715574274765935 -0.9961946980917454 -0.0
  outer loop
    vertex 62.44867692332567 816.1258433435013 1.9999999999999991
    vertex 61.58043603499103 816.2018045784403 0.49999999999999994
    vertex 62.44867692332567 816.1258433435013 0.49999999999999994
  endloop
endfacet
facet normal -0.08715574274765935 -0.9961946980917454 -0.0
  outer loop
    vertex 61.58043603499103 816.2018045784403 0.49999999999999994
    vertex 62.44867692332567 816.1258433435013 1.9999999999999991
    vertex 61.58043603499103 816.2018045784403 1.9999999999999991
  endloop
endfacet
facet normal -0.2588190451025062 -0.9659258262890722 -0.0
  outer loop
    vertex 61.58043603499103 816.2018045784403 1.9999999999999991
    vertex 60.738576206697346 816.4273802395718 0.49999999999999994
    vertex 61.58043603499103 816.2018045784403 0.49999999999999994
  endloop
endfacet
facet normal -0.2588190451025062 -0.9659258262890722 -0.0
  outer loop
    vertex 60.738576206697346 816.4273802395718 0.49999999999999994
    vertex 61.58043603499103 816.2018045784403 1.9999999999999991
    vertex 60.738576206697346 816.4273802395718 1.9999999999999991
  endloop
endfacet
facet normal -0.4226182617407334 -0.9063077870366341 -0.0
  outer loop
    vertex 60.738576206697346 816.4273802395718 1.9999999999999991
    vertex 59.9486769233257 816.7957163245792 0.49999999999999994
    vertex 60.738576206697346 816.4273802395718 0.49999999999999994
  endloop
endfacet
facet normal -0.4226182617407334 -0.9063077870366341 -0.0
  outer loop
    vertex 59.9486769233257 816.7957163245792 0.49999999999999994
    vertex 60.738576206697346 816.4273802395718 1.9999999999999991
    vertex 59.9486769233257 816.7957163245792 1.9999999999999991
  endloop
endfacet
facet normal -0.5735764363510961 -0.8191520442889568 -0.0
  outer loop
    vertex 59.9486769233257 816.7957163245792 1.9999999999999991
    vertex 59.23473887489301 817.2956211279065 0.49999999999999994
    vertex 59.9486769233257 816.7957163245792 0.49999999999999994
  endloop
endfacet
facet normal -0.5735764363510961 -0.8191520442889568 -0.0
  outer loop
    vertex 59.23473887489301 817.2956211279065 0.49999999999999994
    vertex 59.9486769233257 816.7957163245792 1.9999999999999991
    vertex 59.23473887489301 817.2956211279065 1.9999999999999991
  endloop
endfacet
facet normal -0.7071067811865411 -0.707106781186554 -0.0
  outer loop
    vertex 59.23473887489301 817.2956211279065 1.9999999999999991
    vertex 58.61845470773082 817.9119052950687 0.49999999999999994
    vertex 59.23473887489301 817.2956211279065 0.49999999999999994
  endloop
endfacet
facet normal -0.7071067811865411 -0.707106781186554 -0.0
  outer loop
    vertex 58.61845470773082 817.9119052950687 0.49999999999999994
    vertex 59.23473887489301 817.2956211279065 1.9999999999999991
    vertex 58.61845470773082 817.9119052950687 1.9999999999999991
  endloop
endfacet
facet normal -0.8191520442889635 -0.5735764363510866 -0.0
  outer loop
    vertex 58.11854990440352 818.6258433435013 1.9999999999999991
    vertex 58.61845470773082 817.9119052950687 0.49999999999999994
    vertex 58.61845470773082 817.9119052950687 1.9999999999999991
  endloop
endfacet
facet normal -0.8191520442889635 -0.5735764363510866 -0.0
  outer loop
    vertex 58.61845470773082 817.9119052950687 0.49999999999999994
    vertex 58.11854990440352 818.6258433435013 1.9999999999999991
    vertex 58.11854990440352 818.6258433435013 0.49999999999999994
  endloop
endfacet
facet normal -0.9063077870366328 -0.4226182617407362 -0.0
  outer loop
    vertex 57.75021381939618 819.4157426268729 1.9999999999999991
    vertex 58.11854990440352 818.6258433435013 0.49999999999999994
    vertex 58.11854990440352 818.6258433435013 1.9999999999999991
  endloop
endfacet
facet normal -0.9063077870366328 -0.4226182617407362 -0.0
  outer loop
    vertex 58.11854990440352 818.6258433435013 0.49999999999999994
    vertex 57.75021381939618 819.4157426268729 1.9999999999999991
    vertex 57.75021381939618 819.4157426268729 0.49999999999999994
  endloop
endfacet
facet normal -0.9659258262890811 -0.25881904510247294 -0.0
  outer loop
    vertex 57.524638158264686 820.2576024551668 1.9999999999999991
    vertex 57.75021381939618 819.4157426268729 0.49999999999999994
    vertex 57.75021381939618 819.4157426268729 1.9999999999999991
  endloop
endfacet
facet normal -0.9659258262890811 -0.25881904510247294 -0.0
  outer loop
    vertex 57.75021381939618 819.4157426268729 0.49999999999999994
    vertex 57.524638158264686 820.2576024551668 1.9999999999999991
    vertex 57.524638158264686 820.2576024551668 0.49999999999999994
  endloop
endfacet
facet normal -0.9961946980917448 -0.08715574274766721 -0.0
  outer loop
    vertex 57.44867692332573 821.1258433435013 1.9999999999999991
    vertex 57.524638158264686 820.2576024551668 0.49999999999999994
    vertex 57.524638158264686 820.2576024551668 1.9999999999999991
  endloop
endfacet
facet normal -0.9961946980917448 -0.08715574274766721 -0.0
  outer loop
    vertex 57.524638158264686 820.2576024551668 0.49999999999999994
    vertex 57.44867692332573 821.1258433435013 1.9999999999999991
    vertex 57.44867692332573 821.1258433435013 0.49999999999999994
  endloop
endfacet
facet normal -1.0 6.266592183439314e-15 -8.835789958549298e-31
  outer loop
    vertex 57.448676923325785 830.125843343502 1.9999999999999991
    vertex 57.44867692332573 821.1258433435013 0.49999999999999994
    vertex 57.44867692332573 821.1258433435013 1.9999999999999991
  endloop
endfacet
facet normal -1.0 6.266592183439314e-15 -8.835789958549298e-31
  outer loop
    vertex 57.44867692332573 821.1258433435013 0.49999999999999994
    vertex 57.448676923325785 830.125843343502 1.9999999999999991
    vertex 57.448676923325785 830.125843343502 0.49999999999999994
  endloop
endfacet
facet normal 0.0871557427475267 -0.9961946980917571 0.0
  outer loop
    vertex 62.44867692332573 822.8258433435012 1.9999999999999991
    vertex 62.15347502129195 822.800016523622 0.49999999999999994
    vertex 62.44867692332573 822.8258433435012 0.49999999999999994
  endloop
endfacet
facet normal 0.0871557427475267 -0.9961946980917571 0.0
  outer loop
    vertex 62.15347502129195 822.800016523622 0.49999999999999994
    vertex 62.44867692332573 822.8258433435012 1.9999999999999991
    vertex 62.15347502129195 822.800016523622 1.9999999999999991
  endloop
endfacet
facet normal 0.25881904510277065 -0.9659258262890015 0.0
  outer loop
    vertex 62.15347502129195 822.800016523622 1.9999999999999991
    vertex 61.8672426796721 822.7233207988372 0.49999999999999994
    vertex 62.15347502129195 822.800016523622 0.49999999999999994
  endloop
endfacet
facet normal 0.25881904510277065 -0.9659258262890015 0.0
  outer loop
    vertex 61.8672426796721 822.7233207988372 0.49999999999999994
    vertex 62.15347502129195 822.800016523622 1.9999999999999991
    vertex 61.8672426796721 822.7233207988372 1.9999999999999991
  endloop
endfacet
facet normal 0.42261826174066197 -0.9063077870366676 0.0
  outer loop
    vertex 61.8672426796721 822.7233207988372 1.9999999999999991
    vertex 61.59867692332574 822.5980865299348 0.49999999999999994
    vertex 61.8672426796721 822.7233207988372 0.49999999999999994
  endloop
endfacet
facet normal 0.42261826174066197 -0.9063077870366676 0.0
  outer loop
    vertex 61.59867692332574 822.5980865299348 0.49999999999999994
    vertex 61.8672426796721 822.7233207988372 1.9999999999999991
    vertex 61.59867692332574 822.5980865299348 1.9999999999999991
  endloop
endfacet
facet normal 0.5735764363510539 -0.8191520442889865 0.0
  outer loop
    vertex 61.59867692332574 822.5980865299348 1.9999999999999991
    vertex 61.35593798685863 822.4281188968035 0.49999999999999994
    vertex 61.59867692332574 822.5980865299348 0.49999999999999994
  endloop
endfacet
facet normal 0.5735764363510539 -0.8191520442889865 0.0
  outer loop
    vertex 61.35593798685863 822.4281188968035 0.49999999999999994
    vertex 61.59867692332574 822.5980865299348 1.9999999999999991
    vertex 61.35593798685863 822.4281188968035 1.9999999999999991
  endloop
endfacet
facet normal 0.7071067811865476 -0.7071067811865476 0.0
  outer loop
    vertex 61.35593798685863 822.4281188968035 0.49999999999999994
    vertex 61.14640137002349 822.2185822799684 1.9999999999999991
    vertex 61.14640137002349 822.2185822799684 0.49999999999999994
  endloop
endfacet
facet normal 0.7071067811865476 -0.7071067811865476 0.0
  outer loop
    vertex 61.14640137002349 822.2185822799684 1.9999999999999991
    vertex 61.35593798685863 822.4281188968035 0.49999999999999994
    vertex 61.35593798685863 822.4281188968035 1.9999999999999991
  endloop
endfacet
facet normal 0.8191520442889613 -0.5735764363510896 0.0
  outer loop
    vertex 61.14640137002349 822.2185822799684 0.49999999999999994
    vertex 60.97643373689221 821.9758433435013 1.9999999999999991
    vertex 60.97643373689221 821.9758433435013 0.49999999999999994
  endloop
endfacet
facet normal 0.8191520442889613 -0.5735764363510896 0.0
  outer loop
    vertex 60.97643373689221 821.9758433435013 1.9999999999999991
    vertex 61.14640137002349 822.2185822799684 0.49999999999999994
    vertex 61.14640137002349 822.2185822799684 1.9999999999999991
  endloop
endfacet
facet normal 0.9063077870366122 -0.4226182617407807 0.0
  outer loop
    vertex 60.97643373689221 821.9758433435013 0.49999999999999994
    vertex 60.851199467989716 821.707277587155 1.9999999999999991
    vertex 60.851199467989716 821.707277587155 0.49999999999999994
  endloop
endfacet
facet normal 0.9063077870366122 -0.4226182617407807 0.0
  outer loop
    vertex 60.851199467989716 821.707277587155 1.9999999999999991
    vertex 60.97643373689221 821.9758433435013 0.49999999999999994
    vertex 60.97643373689221 821.9758433435013 1.9999999999999991
  endloop
endfacet
facet normal 0.9659258262890762 -0.25881904510249093 0.0
  outer loop
    vertex 60.851199467989716 821.707277587155 0.49999999999999994
    vertex 60.774503743204995 821.4210452455351 1.9999999999999991
    vertex 60.774503743204995 821.4210452455351 0.49999999999999994
  endloop
endfacet
facet normal 0.9659258262890762 -0.25881904510249093 0.0
  outer loop
    vertex 60.774503743204995 821.4210452455351 1.9999999999999991
    vertex 60.851199467989716 821.707277587155 0.49999999999999994
    vertex 60.851199467989716 821.707277587155 1.9999999999999991
  endloop
endfacet
facet normal 0.9961946980917468 -0.08715574274764333 0.0
  outer loop
    vertex 60.774503743204995 821.4210452455351 0.49999999999999994
    vertex 60.74867692332575 821.1258433435013 1.9999999999999991
    vertex 60.74867692332575 821.1258433435013 0.49999999999999994
  endloop
endfacet
facet normal 0.9961946980917468 -0.08715574274764333 0.0
  outer loop
    vertex 60.74867692332575 821.1258433435013 1.9999999999999991
    vertex 60.774503743204995 821.4210452455351 0.49999999999999994
    vertex 60.774503743204995 821.4210452455351 1.9999999999999991
  endloop
endfacet
facet normal 0.9961946980917468 0.08715574274764333 0.0
  outer loop
    vertex 60.74867692332575 821.1258433435013 0.49999999999999994
    vertex 60.774503743204995 820.8306414414675 1.9999999999999991
    vertex 60.774503743204995 820.8306414414675 0.49999999999999994
  endloop
endfacet
facet normal 0.9961946980917468 0.08715574274764333 0.0
  outer loop
    vertex 60.774503743204995 820.8306414414675 1.9999999999999991
    vertex 60.74867692332575 821.1258433435013 0.49999999999999994
    vertex 60.74867692332575 821.1258433435013 1.9999999999999991
  endloop
endfacet
facet normal 0.9659258262890762 0.25881904510249093 0.0
  outer loop
    vertex 60.774503743204995 820.8306414414675 0.49999999999999994
    vertex 60.851199467989716 820.5444090998476 1.9999999999999991
    vertex 60.851199467989716 820.5444090998476 0.49999999999999994
  endloop
endfacet
facet normal 0.9659258262890762 0.25881904510249093 0.0
  outer loop
    vertex 60.851199467989716 820.5444090998476 1.9999999999999991
    vertex 60.774503743204995 820.8306414414675 0.49999999999999994
    vertex 60.774503743204995 820.8306414414675 1.9999999999999991
  endloop
endfacet
facet normal 0.9063077870366122 0.4226182617407807 0.0
  outer loop
    vertex 60.851199467989716 820.5444090998476 0.49999999999999994
    vertex 60.97643373689221 820.2758433435013 1.9999999999999991
    vertex 60.97643373689221 820.2758433435013 0.49999999999999994
  endloop
endfacet
facet normal 0.9063077870366122 0.4226182617407807 0.0
  outer loop
    vertex 60.97643373689221 820.2758433435013 1.9999999999999991
    vertex 60.851199467989716 820.5444090998476 0.49999999999999994
    vertex 60.851199467989716 820.5444090998476 1.9999999999999991
  endloop
endfacet
facet normal 0.8191520442889791 0.573576436351064 0.0
  outer loop
    vertex 60.97643373689221 820.2758433435013 0.49999999999999994
    vertex 61.146401370023476 820.0331044070342 1.9999999999999991
    vertex 61.146401370023476 820.0331044070342 0.49999999999999994
  endloop
endfacet
facet normal 0.8191520442889791 0.573576436351064 0.0
  outer loop
    vertex 61.146401370023476 820.0331044070342 1.9999999999999991
    vertex 60.97643373689221 820.2758433435013 0.49999999999999994
    vertex 60.97643373689221 820.2758433435013 1.9999999999999991
  endloop
endfacet
facet normal 0.7071067811865285 0.7071067811865666 0.0
  outer loop
    vertex 61.146401370023476 820.0331044070342 1.9999999999999991
    vertex 61.35593798685863 819.823567790199 0.49999999999999994
    vertex 61.146401370023476 820.0331044070342 0.49999999999999994
  endloop
endfacet
facet normal 0.7071067811865285 0.7071067811865666 0.0
  outer loop
    vertex 61.35593798685863 819.823567790199 0.49999999999999994
    vertex 61.146401370023476 820.0331044070342 1.9999999999999991
    vertex 61.35593798685863 819.823567790199 1.9999999999999991
  endloop
endfacet
facet normal 0.5735764363510539 0.8191520442889865 0.0
  outer loop
    vertex 61.35593798685863 819.823567790199 1.9999999999999991
    vertex 61.59867692332574 819.6536001570678 0.49999999999999994
    vertex 61.35593798685863 819.823567790199 0.49999999999999994
  endloop
endfacet
facet normal 0.5735764363510539 0.8191520442889865 0.0
  outer loop
    vertex 61.59867692332574 819.6536001570678 0.49999999999999994
    vertex 61.35593798685863 819.823567790199 1.9999999999999991
    vertex 61.59867692332574 819.6536001570678 1.9999999999999991
  endloop
endfacet
facet normal 0.42261826174066197 0.9063077870366676 0.0
  outer loop
    vertex 61.59867692332574 819.6536001570678 1.9999999999999991
    vertex 61.8672426796721 819.5283658881654 0.49999999999999994
    vertex 61.59867692332574 819.6536001570678 0.49999999999999994
  endloop
endfacet
facet normal 0.42261826174066197 0.9063077870366676 0.0
  outer loop
    vertex 61.8672426796721 819.5283658881654 0.49999999999999994
    vertex 61.59867692332574 819.6536001570678 1.9999999999999991
    vertex 61.8672426796721 819.5283658881654 1.9999999999999991
  endloop
endfacet
facet normal 0.25881904510277065 0.9659258262890015 0.0
  outer loop
    vertex 61.8672426796721 819.5283658881654 1.9999999999999991
    vertex 62.15347502129195 819.4516701633805 0.49999999999999994
    vertex 61.8672426796721 819.5283658881654 0.49999999999999994
  endloop
endfacet
facet normal 0.25881904510277065 0.9659258262890015 0.0
  outer loop
    vertex 62.15347502129195 819.4516701633805 0.49999999999999994
    vertex 61.8672426796721 819.5283658881654 1.9999999999999991
    vertex 62.15347502129195 819.4516701633805 1.9999999999999991
  endloop
endfacet
facet normal 0.0871557427475267 0.9961946980917571 0.0
  outer loop
    vertex 62.15347502129195 819.4516701633805 1.9999999999999991
    vertex 62.44867692332573 819.4258433435014 0.49999999999999994
    vertex 62.15347502129195 819.4516701633805 0.49999999999999994
  endloop
endfacet
facet normal 0.0871557427475267 0.9961946980917571 0.0
  outer loop
    vertex 62.44867692332573 819.4258433435014 0.49999999999999994
    vertex 62.15347502129195 819.4516701633805 1.9999999999999991
    vertex 62.44867692332573 819.4258433435014 1.9999999999999991
  endloop
endfacet
facet normal -0.0871557427475267 0.9961946980917571 0.0
  outer loop
    vertex 62.44867692332573 819.4258433435014 1.9999999999999991
    vertex 62.7438788253595 819.4516701633805 0.49999999999999994
    vertex 62.44867692332573 819.4258433435014 0.49999999999999994
  endloop
endfacet
facet normal -0.0871557427475267 0.9961946980917571 0.0
  outer loop
    vertex 62.7438788253595 819.4516701633805 0.49999999999999994
    vertex 62.44867692332573 819.4258433435014 1.9999999999999991
    vertex 62.7438788253595 819.4516701633805 1.9999999999999991
  endloop
endfacet
facet normal -0.25881904510277065 0.9659258262890015 0.0
  outer loop
    vertex 62.7438788253595 819.4516701633805 1.9999999999999991
    vertex 63.03011116697935 819.5283658881654 0.49999999999999994
    vertex 62.7438788253595 819.4516701633805 0.49999999999999994
  endloop
endfacet
facet normal -0.25881904510277065 0.9659258262890015 0.0
  outer loop
    vertex 63.03011116697935 819.5283658881654 0.49999999999999994
    vertex 62.7438788253595 819.4516701633805 1.9999999999999991
    vertex 63.03011116697935 819.5283658881654 1.9999999999999991
  endloop
endfacet
facet normal -0.42261826174066197 0.9063077870366676 0.0
  outer loop
    vertex 63.03011116697935 819.5283658881654 1.9999999999999991
    vertex 63.298676923325715 819.6536001570678 0.49999999999999994
    vertex 63.03011116697935 819.5283658881654 0.49999999999999994
  endloop
endfacet
facet normal -0.42261826174066197 0.9063077870366676 0.0
  outer loop
    vertex 63.298676923325715 819.6536001570678 0.49999999999999994
    vertex 63.03011116697935 819.5283658881654 1.9999999999999991
    vertex 63.298676923325715 819.6536001570678 1.9999999999999991
  endloop
endfacet
facet normal -0.5735764363510539 0.8191520442889865 0.0
  outer loop
    vertex 63.298676923325715 819.6536001570678 1.9999999999999991
    vertex 63.54141585979283 819.823567790199 0.49999999999999994
    vertex 63.298676923325715 819.6536001570678 0.49999999999999994
  endloop
endfacet
facet normal -0.5735764363510539 0.8191520442889865 0.0
  outer loop
    vertex 63.54141585979283 819.823567790199 0.49999999999999994
    vertex 63.298676923325715 819.6536001570678 1.9999999999999991
    vertex 63.54141585979283 819.823567790199 1.9999999999999991
  endloop
endfacet
facet normal -0.7071067811865476 0.7071067811865476 0.0
  outer loop
    vertex 63.750952476627965 820.0331044070342 1.9999999999999991
    vertex 63.54141585979283 819.823567790199 0.49999999999999994
    vertex 63.54141585979283 819.823567790199 1.9999999999999991
  endloop
endfacet
facet normal -0.7071067811865476 0.7071067811865476 0.0
  outer loop
    vertex 63.54141585979283 819.823567790199 0.49999999999999994
    vertex 63.750952476627965 820.0331044070342 1.9999999999999991
    vertex 63.750952476627965 820.0331044070342 0.49999999999999994
  endloop
endfacet
facet normal -0.8191520442889613 0.5735764363510896 0.0
  outer loop
    vertex 63.920920109759244 820.2758433435013 1.9999999999999991
    vertex 63.750952476627965 820.0331044070342 0.49999999999999994
    vertex 63.750952476627965 820.0331044070342 1.9999999999999991
  endloop
endfacet
facet normal -0.8191520442889613 0.5735764363510896 0.0
  outer loop
    vertex 63.750952476627965 820.0331044070342 0.49999999999999994
    vertex 63.920920109759244 820.2758433435013 1.9999999999999991
    vertex 63.920920109759244 820.2758433435013 0.49999999999999994
  endloop
endfacet
facet normal -0.9063077870366122 0.4226182617407807 0.0
  outer loop
    vertex 64.04615437866174 820.5444090998476 1.9999999999999991
    vertex 63.920920109759244 820.2758433435013 0.49999999999999994
    vertex 63.920920109759244 820.2758433435013 1.9999999999999991
  endloop
endfacet
facet normal -0.9063077870366122 0.4226182617407807 0.0
  outer loop
    vertex 63.920920109759244 820.2758433435013 0.49999999999999994
    vertex 64.04615437866174 820.5444090998476 1.9999999999999991
    vertex 64.04615437866174 820.5444090998476 0.49999999999999994
  endloop
endfacet
facet normal -0.9659258262890859 0.25881904510245546 0.0
  outer loop
    vertex 64.12285010344645 820.8306414414675 1.9999999999999991
    vertex 64.04615437866174 820.5444090998476 0.49999999999999994
    vertex 64.04615437866174 820.5444090998476 1.9999999999999991
  endloop
endfacet
facet normal -0.9659258262890859 0.25881904510245546 0.0
  outer loop
    vertex 64.04615437866174 820.5444090998476 0.49999999999999994
    vertex 64.12285010344645 820.8306414414675 1.9999999999999991
    vertex 64.12285010344645 820.8306414414675 0.49999999999999994
  endloop
endfacet
facet normal -0.9961946980917437 0.08715574274768112 0.0
  outer loop
    vertex 64.1486769233257 821.1258433435013 1.9999999999999991
    vertex 64.12285010344645 820.8306414414675 0.49999999999999994
    vertex 64.12285010344645 820.8306414414675 1.9999999999999991
  endloop
endfacet
facet normal -0.9961946980917437 0.08715574274768112 0.0
  outer loop
    vertex 64.12285010344645 820.8306414414675 0.49999999999999994
    vertex 64.1486769233257 821.1258433435013 1.9999999999999991
    vertex 64.1486769233257 821.1258433435013 0.49999999999999994
  endloop
endfacet
facet normal -0.9961946980917468 -0.08715574274764333 -0.0
  outer loop
    vertex 64.12285010344647 821.4210452455351 1.9999999999999991
    vertex 64.1486769233257 821.1258433435013 0.49999999999999994
    vertex 64.1486769233257 821.1258433435013 1.9999999999999991
  endloop
endfacet
facet normal -0.9961946980917468 -0.08715574274764333 -0.0
  outer loop
    vertex 64.1486769233257 821.1258433435013 0.49999999999999994
    vertex 64.12285010344647 821.4210452455351 1.9999999999999991
    vertex 64.12285010344647 821.4210452455351 0.49999999999999994
  endloop
endfacet
facet normal -0.9659258262890859 -0.25881904510245546 -0.0
  outer loop
    vertex 64.04615437866175 821.707277587155 1.9999999999999991
    vertex 64.12285010344647 821.4210452455351 0.49999999999999994
    vertex 64.12285010344647 821.4210452455351 1.9999999999999991
  endloop
endfacet
facet normal -0.9659258262890859 -0.25881904510245546 -0.0
  outer loop
    vertex 64.12285010344647 821.4210452455351 0.49999999999999994
    vertex 64.04615437866175 821.707277587155 1.9999999999999991
    vertex 64.04615437866175 821.707277587155 0.49999999999999994
  endloop
endfacet
facet normal -0.9063077870366122 -0.4226182617407807 -0.0
  outer loop
    vertex 63.92092010975926 821.9758433435013 1.9999999999999991
    vertex 64.04615437866175 821.707277587155 0.49999999999999994
    vertex 64.04615437866175 821.707277587155 1.9999999999999991
  endloop
endfacet
facet normal -0.9063077870366122 -0.4226182617407807 -0.0
  outer loop
    vertex 64.04615437866175 821.707277587155 0.49999999999999994
    vertex 63.92092010975926 821.9758433435013 1.9999999999999991
    vertex 63.92092010975926 821.9758433435013 0.49999999999999994
  endloop
endfacet
facet normal -0.8191520442889613 -0.5735764363510896 -0.0
  outer loop
    vertex 63.75095247662798 822.2185822799684 1.9999999999999991
    vertex 63.92092010975926 821.9758433435013 0.49999999999999994
    vertex 63.92092010975926 821.9758433435013 1.9999999999999991
  endloop
endfacet
facet normal -0.8191520442889613 -0.5735764363510896 -0.0
  outer loop
    vertex 63.92092010975926 821.9758433435013 0.49999999999999994
    vertex 63.75095247662798 822.2185822799684 1.9999999999999991
    vertex 63.75095247662798 822.2185822799684 0.49999999999999994
  endloop
endfacet
facet normal 0.0 0.0 -1.0
  outer loop
    vertex 61.58043603499109 835.0498821085629 0.49999999999999994
    vertex 60.74867692332575 821.1258433435013 0.49999999999999994
    vertex 60.7385762066974 834.8243064474315 0.49999999999999994
  endloop
endfacet
facet normal 0.0 0.0 -1.0
  outer loop
    vertex 60.74867692332575 821.1258433435013 0.49999999999999994
    vertex 61.58043603499109 835.0498821085629 0.49999999999999994
    vertex 60.774503743204995 821.4210452455351 0.49999999999999994
  endloop
endfacet
facet normal 0.0 0.0 -1.0
  outer loop
    vertex 60.774503743204995 821.4210452455351 0.49999999999999994
    vertex 61.58043603499109 835.0498821085629 0.49999999999999994
    vertex 60.851199467989716 821.707277587155 0.49999999999999994
  endloop
endfacet
facet normal 0.0 0.0 -1.0
  outer loop
    vertex 60.851199467989716 821.707277587155 0.49999999999999994
    vertex 61.58043603499109 835.0498821085629 0.49999999999999994
    vertex 60.97643373689221 821.9758433435013 0.49999999999999994
  endloop
endfacet
facet normal 0.0 0.0 -1.0
  outer loop
    vertex 60.97643373689221 821.9758433435013 0.49999999999999994
    vertex 61.58043603499109 835.0498821085629 0.49999999999999994
    vertex 61.14640137002349 822.2185822799684 0.49999999999999994
  endloop
endfacet
facet normal 0.0 0.0 -1.0
  outer loop
    vertex 61.14640137002349 822.2185822799684 0.49999999999999994
    vertex 61.58043603499109 835.0498821085629 0.49999999999999994
    vertex 61.35593798685863 822.4281188968035 0.49999999999999994
  endloop
endfacet
facet normal 0.0 0.0 -1.0
  outer loop
    vertex 61.35593798685863 822.4281188968035 0.49999999999999994
    vertex 61.58043603499109 835.0498821085629 0.49999999999999994
    vertex 61.59867692332574 822.5980865299348 0.49999999999999994
  endloop
endfacet
facet normal 0.0 0.0 -1.0
  outer loop
    vertex 61.59867692332574 822.5980865299348 0.49999999999999994
    vertex 61.58043603499109 835.0498821085629 0.49999999999999994
    vertex 62.44867692332573 835.1258433435019 0.49999999999999994
  endloop
endfacet
facet normal 0.0 0.0 -1.0
  outer loop
    vertex 61.59867692332574 822.5980865299348 0.49999999999999994
    vertex 62.44867692332573 835.1258433435019 0.49999999999999994
    vertex 61.8672426796721 822.7233207988372 0.49999999999999994
  endloop
endfacet
facet normal 0.0 0.0 -1.0
  outer loop
    vertex 61.8672426796721 822.7233207988372 0.49999999999999994
    vertex 62.44867692332573 835.1258433435019 0.49999999999999994
    vertex 62.15347502129195 822.800016523622 0.49999999999999994
  endloop
endfacet
facet normal 0.0 0.0 -1.0
  outer loop
    vertex 62.15347502129195 822.800016523622 0.49999999999999994
    vertex 62.44867692332573 835.1258433435019 0.49999999999999994
    vertex 62.44867692332573 822.8258433435012 0.49999999999999994
  endloop
endfacet
facet normal 0.0 0.0 -1.0
  outer loop
    vertex 62.44867692332573 822.8258433435012 0.49999999999999994
    vertex 62.44867692332573 835.1258433435019 0.49999999999999994
    vertex 63.31691781166037 835.0498821085629 0.49999999999999994
  endloop
endfacet
facet normal 0.0 0.0 -1.0
  outer loop
    vertex 62.44867692332573 822.8258433435012 0.49999999999999994
    vertex 63.31691781166037 835.0498821085629 0.49999999999999994
    vertex 62.743878825359516 822.800016523622 0.49999999999999994
  endloop
endfacet
facet normal 0.0 0.0 -1.0
  outer loop
    vertex 62.743878825359516 822.800016523622 0.49999999999999994
    vertex 63.31691781166037 835.0498821085629 0.49999999999999994
    vertex 63.03011116697937 822.7233207988372 0.49999999999999994
  endloop
endfacet
facet normal 0.0 0.0 -1.0
  outer loop
    vertex 63.03011116697937 822.7233207988372 0.49999999999999994
    vertex 63.31691781166037 835.0498821085629 0.49999999999999994
    vertex 63.29867692332573 822.5980865299348 0.49999999999999994
  endloop
endfacet
facet normal 0.0 0.0 -1.0
  outer loop
    vertex 63.29867692332573 822.5980865299348 0.49999999999999994
    vertex 63.31691781166037 835.0498821085629 0.49999999999999994
    vertex 63.541415859792835 822.4281188968035 0.49999999999999994
  endloop
endfacet
facet normal 0.0 0.0 -1.0
  outer loop
    vertex 63.541415859792835 822.4281188968035 0.49999999999999994
    vertex 63.31691781166037 835.0498821085629 0.49999999999999994
    vertex 64.15877763995405 834.8243064474315 0.49999999999999994
  endloop
endfacet
facet normal 0.0 0.0 -1.0
  outer loop
    vertex 63.541415859792835 822.4281188968035 0.49999999999999994
    vertex 64.15877763995405 834.8243064474315 0.49999999999999994
    vertex 63.75095247662798 822.2185822799684 0.49999999999999994
  endloop
endfacet
facet normal 0.0 0.0 -1.0
  outer loop
    vertex 63.75095247662798 822.2185822799684 0.49999999999999994
    vertex 64.15877763995405 834.8243064474315 0.49999999999999994
    vertex 63.92092010975926 821.9758433435013 0.49999999999999994
  endloop
endfacet
facet normal 0.0 0.0 -1.0
  outer loop
    vertex 63.92092010975926 821.9758433435013 0.49999999999999994
    vertex 64.15877763995405 834.8243064474315 0.49999999999999994
    vertex 64.04615437866175 821.707277587155 0.49999999999999994
  endloop
endfacet
facet normal 0.0 0.0 -1.0
  outer loop
    vertex 64.04615437866175 821.707277587155 0.49999999999999994
    vertex 64.15877763995405 834.8243064474315 0.49999999999999994
    vertex 64.12285010344647 821.4210452455351 0.49999999999999994
  endloop
endfacet
facet normal 0.0 0.0 -1.0
  outer loop
    vertex 64.12285010344647 821.4210452455351 0.49999999999999994
    vertex 64.15877763995405 834.8243064474315 0.49999999999999994
    vertex 64.1486769233257 821.1258433435013 0.49999999999999994
  endloop
endfacet
facet normal 0.0 0.0 -1.0
  outer loop
    vertex 64.1486769233257 821.1258433435013 0.49999999999999994
    vertex 64.15877763995405 834.8243064474315 0.49999999999999994
    vertex 64.158777639954 816.4273802395718 0.49999999999999994
  endloop
endfacet
facet normal 0.0 0.0 -1.0
  outer loop
    vertex 64.158777639954 816.4273802395718 0.49999999999999994
    vertex 64.15877763995405 834.8243064474315 0.49999999999999994
    vertex 64.94867692332565 816.7957163245792 0.49999999999999994
  endloop
endfacet
facet normal 0.0 0.0 -1.0
  outer loop
    vertex 64.94867692332565 816.7957163245792 0.49999999999999994
    vertex 64.15877763995405 834.8243064474315 0.49999999999999994
    vertex 64.9486769233257 834.4559703624241 0.49999999999999994
  endloop
endfacet
facet normal 0.0 0.0 -1.0
  outer loop
    vertex 64.94867692332565 816.7957163245792 0.49999999999999994
    vertex 64.9486769233257 834.4559703624241 0.49999999999999994
    vertex 65.66261497175833 817.2956211279065 0.49999999999999994
  endloop
endfacet
facet normal 0.0 0.0 -1.0
  outer loop
    vertex 65.66261497175833 817.2956211279065 0.49999999999999994
    vertex 64.9486769233257 834.4559703624241 0.49999999999999994
    vertex 65.66261497175839 833.9560655590967 0.49999999999999994
  endloop
endfacet
facet normal 0.0 0.0 -1.0
  outer loop
    vertex 65.66261497175833 817.2956211279065 0.49999999999999994
    vertex 65.66261497175839 833.9560655590967 0.49999999999999994
    vertex 66.27889913892052 817.9119052950687 0.49999999999999994
  endloop
endfacet
facet normal 0.0 0.0 -1.0
  outer loop
    vertex 66.27889913892052 817.9119052950687 0.49999999999999994
    vertex 65.66261497175839 833.9560655590967 0.49999999999999994
    vertex 66.27889913892058 833.3397813919345 0.49999999999999994
  endloop
endfacet
facet normal 0.0 0.0 -1.0
  outer loop
    vertex 66.27889913892052 817.9119052950687 0.49999999999999994
    vertex 66.27889913892058 833.3397813919345 0.49999999999999994
    vertex 66.77880394224782 818.6258433435013 0.49999999999999994
  endloop
endfacet
facet normal 0.0 0.0 -1.0
  outer loop
    vertex 66.77880394224782 818.6258433435013 0.49999999999999994
    vertex 66.27889913892058 833.3397813919345 0.49999999999999994
    vertex 66.77880394224788 832.625843343502 0.49999999999999994
  endloop
endfacet
facet normal 0.0 0.0 -1.0
  outer loop
    vertex 66.77880394224782 818.6258433435013 0.49999999999999994
    vertex 66.77880394224788 832.625843343502 0.49999999999999994
    vertex 67.14714002725516 819.4157426268729 0.49999999999999994
  endloop
endfacet
facet normal 0.0 0.0 -1.0
  outer loop
    vertex 67.14714002725516 819.4157426268729 0.49999999999999994
    vertex 66.77880394224788 832.625843343502 0.49999999999999994
    vertex 67.14714002725522 831.8359440601304 0.49999999999999994
  endloop
endfacet
facet normal 0.0 0.0 -1.0
  outer loop
    vertex 67.14714002725516 819.4157426268729 0.49999999999999994
    vertex 67.14714002725522 831.8359440601304 0.49999999999999994
    vertex 67.37271568838666 820.2576024551668 0.49999999999999994
  endloop
endfacet
facet normal 0.0 0.0 -1.0
  outer loop
    vertex 67.37271568838666 820.2576024551668 0.49999999999999994
    vertex 67.14714002725522 831.8359440601304 0.49999999999999994
    vertex 67.37271568838672 830.9940842318365 0.49999999999999994
  endloop
endfacet
facet normal 0.0 0.0 -1.0
  outer loop
    vertex 67.37271568838666 820.2576024551668 0.49999999999999994
    vertex 67.37271568838672 830.9940842318365 0.49999999999999994
    vertex 67.44867692332573 821.1258433435013 0.49999999999999994
  endloop
endfacet
facet normal 0.0 0.0 -1.0
  outer loop
    vertex 67.44867692332573 821.1258433435013 0.49999999999999994
    vertex 67.37271568838672 830.9940842318365 0.49999999999999994
    vertex 67.44867692332568 830.125843343502 0.49999999999999994
  endloop
endfacet
facet normal 0.0 0.0 -1.0
  outer loop
    vertex 57.448676923325785 830.125843343502 0.49999999999999994
    vertex 57.524638158264686 820.2576024551668 0.49999999999999994
    vertex 57.44867692332573 821.1258433435013 0.49999999999999994
  endloop
endfacet
facet normal 0.0 0.0 -1.0
  outer loop
    vertex 57.524638158264686 820.2576024551668 0.49999999999999994
    vertex 57.448676923325785 830.125843343502 0.49999999999999994
    vertex 57.52463815826474 830.9940842318365 0.49999999999999994
  endloop
endfacet
facet normal 0.0 0.0 -1.0
  outer loop
    vertex 57.524638158264686 820.2576024551668 0.49999999999999994
    vertex 57.52463815826474 830.9940842318365 0.49999999999999994
    vertex 57.75021381939618 819.4157426268729 0.49999999999999994
  endloop
endfacet
facet normal 0.0 0.0 -1.0
  outer loop
    vertex 57.75021381939618 819.4157426268729 0.49999999999999994
    vertex 57.52463815826474 830.9940842318365 0.49999999999999994
    vertex 57.75021381939624 831.8359440601304 0.49999999999999994
  endloop
endfacet
facet normal 0.0 0.0 -1.0
  outer loop
    vertex 57.75021381939618 819.4157426268729 0.49999999999999994
    vertex 57.75021381939624 831.8359440601304 0.49999999999999994
    vertex 58.11854990440352 818.6258433435013 0.49999999999999994
  endloop
endfacet
facet normal 0.0 0.0 -1.0
  outer loop
    vertex 58.11854990440352 818.6258433435013 0.49999999999999994
    vertex 57.75021381939624 831.8359440601304 0.49999999999999994
    vertex 58.11854990440358 832.625843343502 0.49999999999999994
  endloop
endfacet
facet normal 0.0 0.0 -1.0
  outer loop
    vertex 58.11854990440352 818.6258433435013 0.49999999999999994
    vertex 58.11854990440358 832.625843343502 0.49999999999999994
    vertex 58.61845470773082 817.9119052950687 0.49999999999999994
  endloop
endfacet
facet normal 0.0 0.0 -1.0
  outer loop
    vertex 58.61845470773082 817.9119052950687 0.49999999999999994
    vertex 58.11854990440358 832.625843343502 0.49999999999999994
    vertex 58.618454707730876 833.3397813919345 0.49999999999999994
  endloop
endfacet
facet normal 0.0 0.0 -1.0
  outer loop
    vertex 58.61845470773082 817.9119052950687 0.49999999999999994
    vertex 58.618454707730876 833.3397813919345 0.49999999999999994
    vertex 59.23473887489301 817.2956211279065 0.49999999999999994
  endloop
endfacet
facet normal 0.0 0.0 -1.0
  outer loop
    vertex 59.23473887489301 817.2956211279065 0.49999999999999994
    vertex 58.618454707730876 833.3397813919345 0.49999999999999994
    vertex 59.23473887489307 833.9560655590967 0.49999999999999994
  endloop
endfacet
facet normal 0.0 0.0 -1.0
  outer loop
    vertex 59.23473887489301 817.2956211279065 0.49999999999999994
    vertex 59.23473887489307 833.9560655590967 0.49999999999999994
    vertex 59.9486769233257 816.7957163245792 0.49999999999999994
  endloop
endfacet
facet normal 0.0 0.0 -1.0
  outer loop
    vertex 59.9486769233257 816.7957163245792 0.49999999999999994
    vertex 59.23473887489307 833.9560655590967 0.49999999999999994
    vertex 59.948676923325756 834.4559703624241 0.49999999999999994
  endloop
endfacet
facet normal 0.0 0.0 -1.0
  outer loop
    vertex 59.9486769233257 816.7957163245792 0.49999999999999994
    vertex 59.948676923325756 834.4559703624241 0.49999999999999994
    vertex 60.738576206697346 816.4273802395718 0.49999999999999994
  endloop
endfacet
facet normal 0.0 0.0 -1.0
  outer loop
    vertex 60.738576206697346 816.4273802395718 0.49999999999999994
    vertex 59.948676923325756 834.4559703624241 0.49999999999999994
    vertex 60.7385762066974 834.8243064474315 0.49999999999999994
  endloop
endfacet
facet normal 0.0 0.0 -1.0
  outer loop
    vertex 60.738576206697346 816.4273802395718 0.49999999999999994
    vertex 60.7385762066974 834.8243064474315 0.49999999999999994
    vertex 60.74867692332575 821.1258433435013 0.49999999999999994
  endloop
endfacet
facet normal 0.0 0.0 -1.0
  outer loop
    vertex 60.738576206697346 816.4273802395718 0.49999999999999994
    vertex 60.74867692332575 821.1258433435013 0.49999999999999994
    vertex 60.774503743204995 820.8306414414675 0.49999999999999994
  endloop
endfacet
facet normal 0.0 0.0 -1.0
  outer loop
    vertex 60.738576206697346 816.4273802395718 0.49999999999999994
    vertex 60.774503743204995 820.8306414414675 0.49999999999999994
    vertex 61.58043603499103 816.2018045784403 0.49999999999999994
  endloop
endfacet
facet normal 0.0 0.0 -1.0
  outer loop
    vertex 61.58043603499103 816.2018045784403 0.49999999999999994
    vertex 60.774503743204995 820.8306414414675 0.49999999999999994
    vertex 60.851199467989716 820.5444090998476 0.49999999999999994
  endloop
endfacet
facet normal 0.0 0.0 -1.0
  outer loop
    vertex 61.58043603499103 816.2018045784403 0.49999999999999994
    vertex 60.851199467989716 820.5444090998476 0.49999999999999994
    vertex 60.97643373689221 820.2758433435013 0.49999999999999994
  endloop
endfacet
facet normal 0.0 0.0 -1.0
  outer loop
    vertex 61.58043603499103 816.2018045784403 0.49999999999999994
    vertex 60.97643373689221 820.2758433435013 0.49999999999999994
    vertex 61.146401370023476 820.0331044070342 0.49999999999999994
  endloop
endfacet
facet normal 0.0 0.0 -1.0
  outer loop
    vertex 61.58043603499103 816.2018045784403 0.49999999999999994
    vertex 61.146401370023476 820.0331044070342 0.49999999999999994
    vertex 61.35593798685863 819.823567790199 0.49999999999999994
  endloop
endfacet
facet normal 0.0 0.0 -1.0
  outer loop
    vertex 61.58043603499103 816.2018045784403 0.49999999999999994
    vertex 61.35593798685863 819.823567790199 0.49999999999999994
    vertex 61.59867692332574 819.6536001570678 0.49999999999999994
  endloop
endfacet
facet normal 0.0 0.0 -1.0
  outer loop
    vertex 61.58043603499103 816.2018045784403 0.49999999999999994
    vertex 61.59867692332574 819.6536001570678 0.49999999999999994
    vertex 62.44867692332567 816.1258433435013 0.49999999999999994
  endloop
endfacet
facet normal 0.0 0.0 -1.0
  outer loop
    vertex 62.44867692332567 816.1258433435013 0.49999999999999994
    vertex 61.59867692332574 819.6536001570678 0.49999999999999994
    vertex 61.8672426796721 819.5283658881654 0.49999999999999994
  endloop
endfacet
facet normal 0.0 0.0 -1.0
  outer loop
    vertex 62.44867692332567 816.1258433435013 0.49999999999999994
    vertex 61.8672426796721 819.5283658881654 0.49999999999999994
    vertex 62.15347502129195 819.4516701633805 0.49999999999999994
  endloop
endfacet
facet normal 0.0 0.0 -1.0
  outer loop
    vertex 62.44867692332567 816.1258433435013 0.49999999999999994
    vertex 62.15347502129195 819.4516701633805 0.49999999999999994
    vertex 62.44867692332573 819.4258433435014 0.49999999999999994
  endloop
endfacet
facet normal 0.0 0.0 -1.0
  outer loop
    vertex 62.44867692332567 816.1258433435013 0.49999999999999994
    vertex 62.44867692332573 819.4258433435014 0.49999999999999994
    vertex 63.31691781166031 816.2018045784403 0.49999999999999994
  endloop
endfacet
facet normal 0.0 0.0 -1.0
  outer loop
    vertex 63.31691781166031 816.2018045784403 0.49999999999999994
    vertex 62.44867692332573 819.4258433435014 0.49999999999999994
    vertex 62.7438788253595 819.4516701633805 0.49999999999999994
  endloop
endfacet
facet normal 0.0 0.0 -1.0
  outer loop
    vertex 63.31691781166031 816.2018045784403 0.49999999999999994
    vertex 62.7438788253595 819.4516701633805 0.49999999999999994
    vertex 63.03011116697935 819.5283658881654 0.49999999999999994
  endloop
endfacet
facet normal 0.0 0.0 -1.0
  outer loop
    vertex 63.31691781166031 816.2018045784403 0.49999999999999994
    vertex 63.03011116697935 819.5283658881654 0.49999999999999994
    vertex 63.298676923325715 819.6536001570678 0.49999999999999994
  endloop
endfacet
facet normal 0.0 0.0 -1.0
  outer loop
    vertex 63.31691781166031 816.2018045784403 0.49999999999999994
    vertex 63.298676923325715 819.6536001570678 0.49999999999999994
    vertex 63.54141585979283 819.823567790199 0.49999999999999994
  endloop
endfacet
facet normal 0.0 0.0 -1.0
  outer loop
    vertex 63.31691781166031 816.2018045784403 0.49999999999999994
    vertex 63.54141585979283 819.823567790199 0.49999999999999994
    vertex 64.158777639954 816.4273802395718 0.49999999999999994
  endloop
endfacet
facet normal 0.0 0.0 -1.0
  outer loop
    vertex 64.158777639954 816.4273802395718 0.49999999999999994
    vertex 63.54141585979283 819.823567790199 0.49999999999999994
    vertex 63.750952476627965 820.0331044070342 0.49999999999999994
  endloop
endfacet
facet normal 0.0 0.0 -1.0
  outer loop
    vertex 64.158777639954 816.4273802395718 0.49999999999999994
    vertex 63.750952476627965 820.0331044070342 0.49999999999999994
    vertex 63.920920109759244 820.2758433435013 0.49999999999999994
  endloop
endfacet
facet normal 0.0 0.0 -1.0
  outer loop
    vertex 64.158777639954 816.4273802395718 0.49999999999999994
    vertex 63.920920109759244 820.2758433435013 0.49999999999999994
    vertex 64.04615437866174 820.5444090998476 0.49999999999999994
  endloop
endfacet
facet normal 0.0 0.0 -1.0
  outer loop
    vertex 64.158777639954 816.4273802395718 0.49999999999999994
    vertex 64.04615437866174 820.5444090998476 0.49999999999999994
    vertex 64.12285010344645 820.8306414414675 0.49999999999999994
  endloop
endfacet
facet normal 0.0 0.0 -1.0
  outer loop
    vertex 64.158777639954 816.4273802395718 0.49999999999999994
    vertex 64.12285010344645 820.8306414414675 0.49999999999999994
    vertex 64.1486769233257 821.1258433435013 0.49999999999999994
  endloop
endfacet
facet normal 1.0 6.266592183439312e-15 -8.835789958547524e-31
  outer loop
    vertex 67.44867692332568 830.125843343502 0.49999999999999994
    vertex 67.44867692332573 821.1258433435013 1.9999999999999991
    vertex 67.44867692332573 821.1258433435013 0.49999999999999994
  endloop
endfacet
facet normal 1.0 6.266592183439312e-15 -8.835789958547524e-31
  outer loop
    vertex 67.44867692332573 821.1258433435013 1.9999999999999991
    vertex 67.44867692332568 830.125843343502 0.49999999999999994
    vertex 67.44867692332568 830.125843343502 1.9999999999999991
  endloop
endfacet
facet normal 0.9659258262890811 -0.25881904510247294 0.0
  outer loop
    vertex 67.37271568838666 820.2576024551668 0.49999999999999994
    vertex 67.14714002725516 819.4157426268729 1.9999999999999991
    vertex 67.14714002725516 819.4157426268729 0.49999999999999994
  endloop
endfacet
facet normal 0.9659258262890811 -0.25881904510247294 0.0
  outer loop
    vertex 67.14714002725516 819.4157426268729 1.9999999999999991
    vertex 67.37271568838666 820.2576024551668 0.49999999999999994
    vertex 67.37271568838666 820.2576024551668 1.9999999999999991
  endloop
endfacet
facet normal 0.9961946980917334 -0.08715574274779564 0.0
  outer loop
    vertex 67.44867692332573 821.1258433435013 0.49999999999999994
    vertex 67.37271568838666 820.2576024551668 1.9999999999999991
    vertex 67.37271568838666 820.2576024551668 0.49999999999999994
  endloop
endfacet
facet normal 0.9961946980917334 -0.08715574274779564 0.0
  outer loop
    vertex 67.37271568838666 820.2576024551668 1.9999999999999991
    vertex 67.44867692332573 821.1258433435013 0.49999999999999994
    vertex 67.44867692332573 821.1258433435013 1.9999999999999991
  endloop
endfacet
facet normal -0.7071067811865476 -0.7071067811865476 -0.0
  outer loop
    vertex 63.541415859792835 822.4281188968035 1.9999999999999991
    vertex 63.75095247662798 822.2185822799684 0.49999999999999994
    vertex 63.75095247662798 822.2185822799684 1.9999999999999991
  endloop
endfacet
facet normal -0.7071067811865476 -0.7071067811865476 -0.0
  outer loop
    vertex 63.75095247662798 822.2185822799684 0.49999999999999994
    vertex 63.541415859792835 822.4281188968035 1.9999999999999991
    vertex 63.541415859792835 822.4281188968035 0.49999999999999994
  endloop
endfacet
facet normal -0.5735764363510539 -0.8191520442889865 -0.0
  outer loop
    vertex 63.541415859792835 822.4281188968035 1.9999999999999991
    vertex 63.29867692332573 822.5980865299348 0.49999999999999994
    vertex 63.541415859792835 822.4281188968035 0.49999999999999994
  endloop
endfacet
facet normal -0.5735764363510539 -0.8191520442889865 -0.0
  outer loop
    vertex 63.29867692332573 822.5980865299348 0.49999999999999994
    vertex 63.541415859792835 822.4281188968035 1.9999999999999991
    vertex 63.29867692332573 822.5980865299348 1.9999999999999991
  endloop
endfacet
facet normal -0.42261826174066197 -0.9063077870366676 -0.0
  outer loop
    vertex 63.29867692332573 822.5980865299348 1.9999999999999991
    vertex 63.03011116697937 822.7233207988372 0.49999999999999994
    vertex 63.29867692332573 822.5980865299348 0.49999999999999994
  endloop
endfacet
facet normal -0.42261826174066197 -0.9063077870366676 -0.0
  outer loop
    vertex 63.03011116697937 822.7233207988372 0.49999999999999994
    vertex 63.29867692332573 822.5980865299348 1.9999999999999991
    vertex 63.03011116697937 822.7233207988372 1.9999999999999991
  endloop
endfacet
facet normal -0.25881904510277065 -0.9659258262890015 -0.0
  outer loop
    vertex 63.03011116697937 822.7233207988372 1.9999999999999991
    vertex 62.743878825359516 822.800016523622 0.49999999999999994
    vertex 63.03011116697937 822.7233207988372 0.49999999999999994
  endloop
endfacet
facet normal -0.25881904510277065 -0.9659258262890015 -0.0
  outer loop
    vertex 62.743878825359516 822.800016523622 0.49999999999999994
    vertex 63.03011116697937 822.7233207988372 1.9999999999999991
    vertex 62.743878825359516 822.800016523622 1.9999999999999991
  endloop
endfacet
facet normal -0.0871557427475234 -0.9961946980917573 -0.0
  outer loop
    vertex 62.743878825359516 822.800016523622 1.9999999999999991
    vertex 62.44867692332573 822.8258433435012 0.49999999999999994
    vertex 62.743878825359516 822.800016523622 0.49999999999999994
  endloop
endfacet
facet normal -0.0871557427475234 -0.9961946980917573 -0.0
  outer loop
    vertex 62.44867692332573 822.8258433435012 0.49999999999999994
    vertex 62.743878825359516 822.800016523622 1.9999999999999991
    vertex 62.44867692332573 822.8258433435012 1.9999999999999991
  endloop
endfacet
facet normal 0.0 1.0 9.023892744153292e-14
  outer loop
    vertex 60.305819780468575 827.1258433435008 3.9999999999999947
    vertex 65.44867692332572 827.1258433435011 1.9999999999999991
    vertex 59.44867692332572 827.1258433435011 1.9999999999999991
  endloop
endfacet
facet normal 0.0 1.0 9.023892744153292e-14
  outer loop
    vertex 65.44867692332572 827.1258433435011 1.9999999999999991
    vertex 60.305819780468575 827.1258433435008 3.9999999999999947
    vertex 64.59153406618287 827.1258433435008 3.9999999999999947
  endloop
endfacet
facet normal 0.0 0.0 -1.0
  outer loop
    vertex 64.59153406618287 831.1258433434999 3.9999999999999947
    vertex 60.305819780468575 827.1258433435008 3.9999999999999947
    vertex 60.305819780468575 831.1258433434999 3.9999999999999947
  endloop
endfacet
facet normal 0.0 0.0 -1.0
  outer loop
    vertex 60.305819780468575 827.1258433435008 3.9999999999999947
    vertex 64.59153406618287 831.1258433434999 3.9999999999999947
    vertex 64.59153406618287 827.1258433435008 3.9999999999999947
  endloop
endfacet
facet normal 0.8191520442889635 0.5735764363510866 0.0
  outer loop
    vertex 66.27889913892058 833.3397813919345 0.49999999999999994
    vertex 66.77880394224788 832.625843343502 1.9999999999999991
    vertex 66.77880394224788 832.625843343502 0.49999999999999994
  endloop
endfacet
facet normal 0.8191520442889635 0.5735764363510866 0.0
  outer loop
    vertex 66.77880394224788 832.625843343502 1.9999999999999991
    vertex 66.27889913892058 833.3397813919345 0.49999999999999994
    vertex 66.27889913892058 833.3397813919345 1.9999999999999991
  endloop
endfacet
facet normal 0.9961946980917449 0.08715574274766721 0.0
  outer loop
    vertex 67.37271568838672 830.9940842318365 0.49999999999999994
    vertex 67.44867692332568 830.125843343502 1.9999999999999991
    vertex 67.44867692332568 830.125843343502 0.49999999999999994
  endloop
endfacet
facet normal 0.9961946980917449 0.08715574274766721 0.0
  outer loop
    vertex 67.44867692332568 830.125843343502 1.9999999999999991
    vertex 67.37271568838672 830.9940842318365 0.49999999999999994
    vertex 67.37271568838672 830.9940842318365 1.9999999999999991
  endloop
endfacet
facet normal 0.9659258262890811 0.25881904510247294 0.0
  outer loop
    vertex 67.14714002725522 831.8359440601304 0.49999999999999994
    vertex 67.37271568838672 830.9940842318365 1.9999999999999991
    vertex 67.37271568838672 830.9940842318365 0.49999999999999994
  endloop
endfacet
facet normal 0.9659258262890811 0.25881904510247294 0.0
  outer loop
    vertex 67.37271568838672 830.9940842318365 1.9999999999999991
    vertex 67.14714002725522 831.8359440601304 0.49999999999999994
    vertex 67.14714002725522 831.8359440601304 1.9999999999999991
  endloop
endfacet
facet normal 0.9063077870366328 0.4226182617407362 0.0
  outer loop
    vertex 66.77880394224788 832.625843343502 0.49999999999999994
    vertex 67.14714002725522 831.8359440601304 1.9999999999999991
    vertex 67.14714002725522 831.8359440601304 0.49999999999999994
  endloop
endfacet
facet normal 0.9063077870366328 0.4226182617407362 0.0
  outer loop
    vertex 67.14714002725522 831.8359440601304 1.9999999999999991
    vertex 66.77880394224788 832.625843343502 0.49999999999999994
    vertex 66.77880394224788 832.625843343502 1.9999999999999991
  endloop
endfacet
facet normal 6.832462175914351e-18 -0.9615239476408527 0.27472112789727465
  outer loop
    vertex 63.94867692332571 825.6258433435008 5.499999999999996
    vertex 59.44867692332572 824.6258433435012 1.9999999999999991
    vertex 65.44867692332572 824.6258433435012 1.9999999999999991
  endloop
endfacet
facet normal 6.832462175914351e-18 -0.9615239476408527 0.27472112789727465
  outer loop
    vertex 59.44867692332572 824.6258433435012 1.9999999999999991
    vertex 63.94867692332571 825.6258433435008 5.499999999999996
    vertex 60.94867692332572 825.6258433435008 5.499999999999996
  endloop
endfacet
facet normal 0.9191450300180571 3.356374414378604e-17 0.3939192985791696
  outer loop
    vertex 65.44867692332572 827.1258433435011 1.9999999999999991
    vertex 63.94867692332571 825.6258433435008 5.499999999999996
    vertex 65.44867692332572 824.6258433435012 1.9999999999999991
  endloop
endfacet
facet normal 0.9191450300180571 3.356374414378604e-17 0.3939192985791696
  outer loop
    vertex 63.94867692332571 825.6258433435008 5.499999999999996
    vertex 65.44867692332572 827.1258433435011 1.9999999999999991
    vertex 64.59153406618287 827.1258433435008 3.9999999999999947
  endloop
endfacet
facet normal 0.9191450300180571 3.356374414378604e-17 0.3939192985791696
  outer loop
    vertex 65.44867692332572 833.6258433434991 1.9999999999999984
    vertex 64.59153406618287 831.1258433434999 3.9999999999999947
    vertex 65.44867692332572 831.1258433434996 1.9999999999999984
  endloop
endfacet
facet normal 0.9191450300180571 3.356374414378604e-17 0.3939192985791696
  outer loop
    vertex 64.59153406618287 831.1258433434999 3.9999999999999947
    vertex 65.44867692332572 833.6258433434991 1.9999999999999984
    vertex 63.94867692332571 832.6258433434994 5.499999999999995
  endloop
endfacet
facet normal 0.9191450300180571 3.356374414378604e-17 0.3939192985791696
  outer loop
    vertex 64.59153406618287 827.1258433435008 3.9999999999999947
    vertex 63.94867692332571 832.6258433434994 5.499999999999995
    vertex 63.94867692332571 825.6258433435008 5.499999999999996
  endloop
endfacet
facet normal 0.9191450300180571 3.356374414378604e-17 0.3939192985791696
  outer loop
    vertex 63.94867692332571 832.6258433434994 5.499999999999995
    vertex 64.59153406618287 827.1258433435008 3.9999999999999947
    vertex 64.59153406618287 831.1258433434999 3.9999999999999947
  endloop
endfacet
facet normal 0.9063077870366328 -0.4226182617407362 0.0
  outer loop
    vertex 67.14714002725516 819.4157426268729 0.49999999999999994
    vertex 66.77880394224782 818.6258433435013 1.9999999999999991
    vertex 66.77880394224782 818.6258433435013 0.49999999999999994
  endloop
endfacet
facet normal 0.9063077870366328 -0.4226182617407362 0.0
  outer loop
    vertex 66.77880394224782 818.6258433435013 1.9999999999999991
    vertex 67.14714002725516 819.4157426268729 0.49999999999999994
    vertex 67.14714002725516 819.4157426268729 1.9999999999999991
  endloop
endfacet
facet normal 0.8191520442889635 -0.5735764363510866 0.0
  outer loop
    vertex 66.77880394224782 818.6258433435013 0.49999999999999994
    vertex 66.27889913892052 817.9119052950687 1.9999999999999991
    vertex 66.27889913892052 817.9119052950687 0.49999999999999994
  endloop
endfacet
facet normal 0.8191520442889635 -0.5735764363510866 0.0
  outer loop
    vertex 66.27889913892052 817.9119052950687 1.9999999999999991
    vertex 66.77880394224782 818.6258433435013 0.49999999999999994
    vertex 66.77880394224782 818.6258433435013 1.9999999999999991
  endloop
endfacet
facet normal 0.0 1.0071308866244522e-16 1.0
  outer loop
    vertex 63.94867692332571 825.6258433435008 5.499999999999996
    vertex 60.94867692332572 832.6258433434994 5.499999999999995
    vertex 60.94867692332572 825.6258433435008 5.499999999999996
  endloop
endfacet
facet normal 0.0 1.0071308866244522e-16 1.0
  outer loop
    vertex 60.94867692332572 832.6258433434994 5.499999999999995
    vertex 63.94867692332571 825.6258433435008 5.499999999999996
    vertex 63.94867692332571 832.6258433434994 5.499999999999995
  endloop
endfacet
facet normal 6.832462176002207e-18 0.9615239476408396 0.27472112789732056
  outer loop
    vertex 60.94867692332572 832.6258433434994 5.499999999999995
    vertex 65.44867692332572 833.6258433434991 1.9999999999999984
    vertex 59.44867692332572 833.6258433434991 1.9999999999999984
  endloop
endfacet
facet normal 6.832462176002207e-18 0.9615239476408396 0.27472112789732056
  outer loop
    vertex 65.44867692332572 833.6258433434991 1.9999999999999984
    vertex 60.94867692332572 832.6258433434994 5.499999999999995
    vertex 63.94867692332571 832.6258433434994 5.499999999999995
  endloop
endfacet
facet normal -1.8576054362177953e-30 -1.0 1.8047785488306577e-13
  outer loop
    vertex 64.59153406618287 831.1258433434999 3.9999999999999947
    vertex 59.44867692332572 831.1258433434996 1.9999999999999984
    vertex 65.44867692332572 831.1258433434996 1.9999999999999984
  endloop
endfacet
facet normal -1.8576054362177953e-30 -1.0 1.8047785488306577e-13
  outer loop
    vertex 59.44867692332572 831.1258433434996 1.9999999999999984
    vertex 64.59153406618287 831.1258433434999 3.9999999999999947
    vertex 60.305819780468575 831.1258433434999 3.9999999999999947
  endloop
endfacet
facet normal -0.08715574274765935 0.9961946980917455 1.9356170174352783e-18
  outer loop
    vertex 61.58043603499109 835.0498821085629 1.9999999999999991
    vertex 62.44867692332573 835.1258433435019 0.49999999999999994
    vertex 61.58043603499109 835.0498821085629 0.49999999999999994
  endloop
endfacet
facet normal -0.08715574274765935 0.9961946980917455 1.9356170174352783e-18
  outer loop
    vertex 62.44867692332573 835.1258433435019 0.49999999999999994
    vertex 61.58043603499109 835.0498821085629 1.9999999999999991
    vertex 62.44867692332573 835.1258433435019 1.9999999999999991
  endloop
endfacet
facet normal -0.2588190451025062 0.9659258262890722 0.0
  outer loop
    vertex 60.7385762066974 834.8243064474315 1.9999999999999991
    vertex 61.58043603499109 835.0498821085629 0.49999999999999994
    vertex 60.7385762066974 834.8243064474315 0.49999999999999994
  endloop
endfacet
facet normal -0.2588190451025062 0.9659258262890722 0.0
  outer loop
    vertex 61.58043603499109 835.0498821085629 0.49999999999999994
    vertex 60.7385762066974 834.8243064474315 1.9999999999999991
    vertex 61.58043603499109 835.0498821085629 1.9999999999999991
  endloop
endfacet
facet normal -0.4226182617407334 0.9063077870366341 0.0
  outer loop
    vertex 59.948676923325756 834.4559703624241 1.9999999999999991
    vertex 60.7385762066974 834.8243064474315 0.49999999999999994
    vertex 59.948676923325756 834.4559703624241 0.49999999999999994
  endloop
endfacet
facet normal -0.4226182617407334 0.9063077870366341 0.0
  outer loop
    vertex 60.7385762066974 834.8243064474315 0.49999999999999994
    vertex 59.948676923325756 834.4559703624241 1.9999999999999991
    vertex 60.7385762066974 834.8243064474315 1.9999999999999991
  endloop
endfacet
facet normal -0.5735764363510961 0.8191520442889568 0.0
  outer loop
    vertex 59.23473887489307 833.9560655590967 1.9999999999999991
    vertex 59.948676923325756 834.4559703624241 0.49999999999999994
    vertex 59.23473887489307 833.9560655590967 0.49999999999999994
  endloop
endfacet
facet normal -0.5735764363510961 0.8191520442889568 0.0
  outer loop
    vertex 59.948676923325756 834.4559703624241 0.49999999999999994
    vertex 59.23473887489307 833.9560655590967 1.9999999999999991
    vertex 59.948676923325756 834.4559703624241 1.9999999999999991
  endloop
endfacet
facet normal -0.7071067811865411 0.707106781186554 0.0
  outer loop
    vertex 58.618454707730876 833.3397813919345 1.9999999999999991
    vertex 59.23473887489307 833.9560655590967 0.49999999999999994
    vertex 58.618454707730876 833.3397813919345 0.49999999999999994
  endloop
endfacet
facet normal -0.7071067811865411 0.707106781186554 0.0
  outer loop
    vertex 59.23473887489307 833.9560655590967 0.49999999999999994
    vertex 58.618454707730876 833.3397813919345 1.9999999999999991
    vertex 59.23473887489307 833.9560655590967 1.9999999999999991
  endloop
endfacet
facet normal -0.8191520442889635 0.5735764363510866 0.0
  outer loop
    vertex 58.618454707730876 833.3397813919345 1.9999999999999991
    vertex 58.11854990440358 832.625843343502 0.49999999999999994
    vertex 58.11854990440358 832.625843343502 1.9999999999999991
  endloop
endfacet
facet normal -0.8191520442889635 0.5735764363510866 0.0
  outer loop
    vertex 58.11854990440358 832.625843343502 0.49999999999999994
    vertex 58.618454707730876 833.3397813919345 1.9999999999999991
    vertex 58.618454707730876 833.3397813919345 0.49999999999999994
  endloop
endfacet
facet normal -0.9063077870366328 0.4226182617407362 0.0
  outer loop
    vertex 58.11854990440358 832.625843343502 1.9999999999999991
    vertex 57.75021381939624 831.8359440601304 0.49999999999999994
    vertex 57.75021381939624 831.8359440601304 1.9999999999999991
  endloop
endfacet
facet normal -0.9063077870366328 0.4226182617407362 0.0
  outer loop
    vertex 57.75021381939624 831.8359440601304 0.49999999999999994
    vertex 58.11854990440358 832.625843343502 1.9999999999999991
    vertex 58.11854990440358 832.625843343502 0.49999999999999994
  endloop
endfacet
facet normal -0.9659258262890811 0.25881904510247294 0.0
  outer loop
    vertex 57.75021381939624 831.8359440601304 1.9999999999999991
    vertex 57.52463815826474 830.9940842318365 0.49999999999999994
    vertex 57.52463815826474 830.9940842318365 1.9999999999999991
  endloop
endfacet
facet normal -0.9659258262890811 0.25881904510247294 0.0
  outer loop
    vertex 57.52463815826474 830.9940842318365 0.49999999999999994
    vertex 57.75021381939624 831.8359440601304 1.9999999999999991
    vertex 57.75021381939624 831.8359440601304 0.49999999999999994
  endloop
endfacet
facet normal -0.9961946980917449 0.08715574274766721 0.0
  outer loop
    vertex 57.52463815826474 830.9940842318365 1.9999999999999991
    vertex 57.448676923325785 830.125843343502 0.49999999999999994
    vertex 57.448676923325785 830.125843343502 1.9999999999999991
  endloop
endfacet
facet normal -0.9961946980917449 0.08715574274766721 0.0
  outer loop
    vertex 57.448676923325785 830.125843343502 0.49999999999999994
    vertex 57.52463815826474 830.9940842318365 1.9999999999999991
    vertex 57.52463815826474 830.9940842318365 0.49999999999999994
  endloop
endfacet
facet normal -3.180884385077486e-32 1.0691586502946624e-46 1.0
  outer loop
    vertex 60.738576206697346 816.4273802395718 1.9999999999999991
    vertex 60.774503743204995 820.8306414414675 1.9999999999999991
    vertex 60.74867692332575 821.1258433435013 1.9999999999999991
  endloop
endfacet
facet normal -3.180884385077486e-32 1.0691586502946624e-46 1.0
  outer loop
    vertex 60.774503743204995 820.8306414414675 1.9999999999999991
    vertex 60.738576206697346 816.4273802395718 1.9999999999999991
    vertex 61.58043603499103 816.2018045784403 1.9999999999999991
  endloop
endfacet
facet normal -3.180884385077486e-32 1.0691586502946624e-46 1.0
  outer loop
    vertex 60.774503743204995 820.8306414414675 1.9999999999999991
    vertex 61.58043603499103 816.2018045784403 1.9999999999999991
    vertex 60.851199467989716 820.5444090998476 1.9999999999999991
  endloop
endfacet
facet normal -3.180884385077486e-32 1.0691586502946624e-46 1.0
  outer loop
    vertex 60.851199467989716 820.5444090998476 1.9999999999999991
    vertex 61.58043603499103 816.2018045784403 1.9999999999999991
    vertex 60.97643373689221 820.2758433435013 1.9999999999999991
  endloop
endfacet
facet normal -3.180884385077486e-32 1.0691586502946624e-46 1.0
  outer loop
    vertex 60.97643373689221 820.2758433435013 1.9999999999999991
    vertex 61.58043603499103 816.2018045784403 1.9999999999999991
    vertex 61.146401370023476 820.0331044070342 1.9999999999999991
  endloop
endfacet
facet normal -3.180884385077486e-32 1.0691586502946624e-46 1.0
  outer loop
    vertex 61.146401370023476 820.0331044070342 1.9999999999999991
    vertex 61.58043603499103 816.2018045784403 1.9999999999999991
    vertex 61.35593798685863 819.823567790199 1.9999999999999991
  endloop
endfacet
facet normal -3.180884385077486e-32 1.0691586502946624e-46 1.0
  outer loop
    vertex 61.35593798685863 819.823567790199 1.9999999999999991
    vertex 61.58043603499103 816.2018045784403 1.9999999999999991
    vertex 61.59867692332574 819.6536001570678 1.9999999999999991
  endloop
endfacet
facet normal -3.180884385077486e-32 1.0691586502946624e-46 1.0
  outer loop
    vertex 61.59867692332574 819.6536001570678 1.9999999999999991
    vertex 61.58043603499103 816.2018045784403 1.9999999999999991
    vertex 62.44867692332567 816.1258433435013 1.9999999999999991
  endloop
endfacet
facet normal -3.180884385077486e-32 1.0691586502946624e-46 1.0
  outer loop
    vertex 61.59867692332574 819.6536001570678 1.9999999999999991
    vertex 62.44867692332567 816.1258433435013 1.9999999999999991
    vertex 61.8672426796721 819.5283658881654 1.9999999999999991
  endloop
endfacet
facet normal -3.180884385077486e-32 1.0691586502946624e-46 1.0
  outer loop
    vertex 61.8672426796721 819.5283658881654 1.9999999999999991
    vertex 62.44867692332567 816.1258433435013 1.9999999999999991
    vertex 62.15347502129195 819.4516701633805 1.9999999999999991
  endloop
endfacet
facet normal -3.180884385077486e-32 1.0691586502946624e-46 1.0
  outer loop
    vertex 62.15347502129195 819.4516701633805 1.9999999999999991
    vertex 62.44867692332567 816.1258433435013 1.9999999999999991
    vertex 62.44867692332573 819.4258433435014 1.9999999999999991
  endloop
endfacet
facet normal -3.180884385077486e-32 1.0691586502946624e-46 1.0
  outer loop
    vertex 62.44867692332573 819.4258433435014 1.9999999999999991
    vertex 62.44867692332567 816.1258433435013 1.9999999999999991
    vertex 63.31691781166031 816.2018045784403 1.9999999999999991
  endloop
endfacet
facet normal -3.180884385077486e-32 1.0691586502946624e-46 1.0
  outer loop
    vertex 62.44867692332573 819.4258433435014 1.9999999999999991
    vertex 63.31691781166031 816.2018045784403 1.9999999999999991
    vertex 62.7438788253595 819.4516701633805 1.9999999999999991
  endloop
endfacet
facet normal -3.180884385077486e-32 1.0691586502946624e-46 1.0
  outer loop
    vertex 62.7438788253595 819.4516701633805 1.9999999999999991
    vertex 63.31691781166031 816.2018045784403 1.9999999999999991
    vertex 63.03011116697935 819.5283658881654 1.9999999999999991
  endloop
endfacet
facet normal -3.180884385077486e-32 1.0691586502946624e-46 1.0
  outer loop
    vertex 63.03011116697935 819.5283658881654 1.9999999999999991
    vertex 63.31691781166031 816.2018045784403 1.9999999999999991
    vertex 63.298676923325715 819.6536001570678 1.9999999999999991
  endloop
endfacet
facet normal -3.180884385077486e-32 1.0691586502946624e-46 1.0
  outer loop
    vertex 63.298676923325715 819.6536001570678 1.9999999999999991
    vertex 63.31691781166031 816.2018045784403 1.9999999999999991
    vertex 63.54141585979283 819.823567790199 1.9999999999999991
  endloop
endfacet
facet normal -3.180884385077486e-32 1.0691586502946624e-46 1.0
  outer loop
    vertex 63.54141585979283 819.823567790199 1.9999999999999991
    vertex 63.31691781166031 816.2018045784403 1.9999999999999991
    vertex 64.158777639954 816.4273802395718 1.9999999999999991
  endloop
endfacet
facet normal -3.180884385077486e-32 1.0691586502946624e-46 1.0
  outer loop
    vertex 63.54141585979283 819.823567790199 1.9999999999999991
    vertex 64.158777639954 816.4273802395718 1.9999999999999991
    vertex 63.750952476627965 820.0331044070342 1.9999999999999991
  endloop
endfacet
facet normal -3.180884385077486e-32 1.0691586502946624e-46 1.0
  outer loop
    vertex 63.750952476627965 820.0331044070342 1.9999999999999991
    vertex 64.158777639954 816.4273802395718 1.9999999999999991
    vertex 63.920920109759244 820.2758433435013 1.9999999999999991
  endloop
endfacet
facet normal -3.180884385077486e-32 1.0691586502946624e-46 1.0
  outer loop
    vertex 63.920920109759244 820.2758433435013 1.9999999999999991
    vertex 64.158777639954 816.4273802395718 1.9999999999999991
    vertex 64.04615437866174 820.5444090998476 1.9999999999999991
  endloop
endfacet
facet normal -3.180884385077486e-32 1.0691586502946624e-46 1.0
  outer loop
    vertex 64.04615437866174 820.5444090998476 1.9999999999999991
    vertex 64.158777639954 816.4273802395718 1.9999999999999991
    vertex 64.12285010344645 820.8306414414675 1.9999999999999991
  endloop
endfacet
facet normal -3.180884385077486e-32 1.0691586502946624e-46 1.0
  outer loop
    vertex 64.12285010344645 820.8306414414675 1.9999999999999991
    vertex 64.158777639954 816.4273802395718 1.9999999999999991
    vertex 64.1486769233257 821.1258433435013 1.9999999999999991
  endloop
endfacet
facet normal -3.180884385077486e-32 1.0691586502946624e-46 1.0
  outer loop
    vertex 57.524638158264686 820.2576024551668 1.9999999999999991
    vertex 57.448676923325785 830.125843343502 1.9999999999999991
    vertex 57.44867692332573 821.1258433435013 1.9999999999999991
  endloop
endfacet
facet normal -3.180884385077486e-32 1.0691586502946624e-46 1.0
  outer loop
    vertex 57.448676923325785 830.125843343502 1.9999999999999991
    vertex 57.524638158264686 820.2576024551668 1.9999999999999991
    vertex 57.52463815826474 830.9940842318365 1.9999999999999991
  endloop
endfacet
facet normal -3.180884385077486e-32 1.0691586502946624e-46 1.0
  outer loop
    vertex 57.52463815826474 830.9940842318365 1.9999999999999991
    vertex 57.524638158264686 820.2576024551668 1.9999999999999991
    vertex 57.75021381939618 819.4157426268729 1.9999999999999991
  endloop
endfacet
facet normal -3.180884385077486e-32 1.0691586502946624e-46 1.0
  outer loop
    vertex 57.52463815826474 830.9940842318365 1.9999999999999991
    vertex 57.75021381939618 819.4157426268729 1.9999999999999991
    vertex 57.75021381939624 831.8359440601304 1.9999999999999991
  endloop
endfacet
facet normal -3.180884385077486e-32 1.0691586502946624e-46 1.0
  outer loop
    vertex 57.75021381939624 831.8359440601304 1.9999999999999991
    vertex 57.75021381939618 819.4157426268729 1.9999999999999991
    vertex 58.11854990440352 818.6258433435013 1.9999999999999991
  endloop
endfacet
facet normal -3.180884385077486e-32 1.0691586502946624e-46 1.0
  outer loop
    vertex 57.75021381939624 831.8359440601304 1.9999999999999991
    vertex 58.11854990440352 818.6258433435013 1.9999999999999991
    vertex 58.11854990440358 832.625843343502 1.9999999999999991
  endloop
endfacet
facet normal -3.180884385077486e-32 1.0691586502946624e-46 1.0
  outer loop
    vertex 58.11854990440358 832.625843343502 1.9999999999999991
    vertex 58.11854990440352 818.6258433435013 1.9999999999999991
    vertex 58.61845470773082 817.9119052950687 1.9999999999999991
  endloop
endfacet
facet normal -3.180884385077486e-32 1.0691586502946624e-46 1.0
  outer loop
    vertex 58.11854990440358 832.625843343502 1.9999999999999991
    vertex 58.61845470773082 817.9119052950687 1.9999999999999991
    vertex 58.618454707730876 833.3397813919345 1.9999999999999991
  endloop
endfacet
facet normal -3.180884385077486e-32 1.0691586502946624e-46 1.0
  outer loop
    vertex 58.618454707730876 833.3397813919345 1.9999999999999991
    vertex 58.61845470773082 817.9119052950687 1.9999999999999991
    vertex 59.23473887489301 817.2956211279065 1.9999999999999991
  endloop
endfacet
facet normal -3.180884385077486e-32 1.0691586502946624e-46 1.0
  outer loop
    vertex 58.618454707730876 833.3397813919345 1.9999999999999991
    vertex 59.23473887489301 817.2956211279065 1.9999999999999991
    vertex 59.23473887489307 833.9560655590967 1.9999999999999991
  endloop
endfacet
facet normal -3.180884385077486e-32 1.0691586502946624e-46 1.0
  outer loop
    vertex 59.23473887489307 833.9560655590967 1.9999999999999991
    vertex 59.23473887489301 817.2956211279065 1.9999999999999991
    vertex 59.44867692332572 824.6258433435012 1.9999999999999991
  endloop
endfacet
facet normal -3.180884385077486e-32 1.0691586502946624e-46 1.0
  outer loop
    vertex 59.44867692332572 824.6258433435012 1.9999999999999991
    vertex 59.23473887489301 817.2956211279065 1.9999999999999991
    vertex 59.9486769233257 816.7957163245792 1.9999999999999991
  endloop
endfacet
facet normal -3.180884385077486e-32 1.0691586502946624e-46 1.0
  outer loop
    vertex 59.44867692332572 824.6258433435012 1.9999999999999991
    vertex 59.9486769233257 816.7957163245792 1.9999999999999991
    vertex 60.774503743204995 821.4210452455351 1.9999999999999991
  endloop
endfacet
facet normal -3.180884385077486e-32 1.0691586502946624e-46 1.0
  outer loop
    vertex 59.44867692332572 824.6258433435012 1.9999999999999991
    vertex 60.774503743204995 821.4210452455351 1.9999999999999991
    vertex 60.851199467989716 821.707277587155 1.9999999999999991
  endloop
endfacet
facet normal -3.180884385077486e-32 1.0691586502946624e-46 1.0
  outer loop
    vertex 59.44867692332572 824.6258433435012 1.9999999999999991
    vertex 60.851199467989716 821.707277587155 1.9999999999999991
    vertex 60.97643373689221 821.9758433435013 1.9999999999999991
  endloop
endfacet
facet normal -3.180884385077486e-32 1.0691586502946624e-46 1.0
  outer loop
    vertex 59.44867692332572 824.6258433435012 1.9999999999999991
    vertex 60.97643373689221 821.9758433435013 1.9999999999999991
    vertex 61.14640137002349 822.2185822799684 1.9999999999999991
  endloop
endfacet
facet normal -3.180884385077486e-32 1.0691586502946624e-46 1.0
  outer loop
    vertex 59.44867692332572 824.6258433435012 1.9999999999999991
    vertex 61.14640137002349 822.2185822799684 1.9999999999999991
    vertex 61.35593798685863 822.4281188968035 1.9999999999999991
  endloop
endfacet
facet normal -3.180884385077486e-32 1.0691586502946624e-46 1.0
  outer loop
    vertex 59.44867692332572 824.6258433435012 1.9999999999999991
    vertex 61.35593798685863 822.4281188968035 1.9999999999999991
    vertex 61.59867692332574 822.5980865299348 1.9999999999999991
  endloop
endfacet
facet normal -3.180884385077486e-32 1.0691586502946624e-46 1.0
  outer loop
    vertex 59.44867692332572 824.6258433435012 1.9999999999999991
    vertex 61.59867692332574 822.5980865299348 1.9999999999999991
    vertex 65.44867692332572 824.6258433435012 1.9999999999999991
  endloop
endfacet
facet normal -3.180884385077486e-32 1.0691586502946624e-46 1.0
  outer loop
    vertex 60.774503743204995 821.4210452455351 1.9999999999999991
    vertex 59.9486769233257 816.7957163245792 1.9999999999999991
    vertex 60.74867692332575 821.1258433435013 1.9999999999999991
  endloop
endfacet
facet normal -3.180884385077486e-32 1.0691586502946624e-46 1.0
  outer loop
    vertex 60.74867692332575 821.1258433435013 1.9999999999999991
    vertex 59.9486769233257 816.7957163245792 1.9999999999999991
    vertex 60.738576206697346 816.4273802395718 1.9999999999999991
  endloop
endfacet
facet normal -3.180884385077486e-32 1.0691586502946624e-46 1.0
  outer loop
    vertex 65.44867692332572 824.6258433435012 1.9999999999999991
    vertex 61.59867692332574 822.5980865299348 1.9999999999999991
    vertex 61.8672426796721 822.7233207988372 1.9999999999999991
  endloop
endfacet
facet normal -3.180884385077486e-32 1.0691586502946624e-46 1.0
  outer loop
    vertex 65.44867692332572 824.6258433435012 1.9999999999999991
    vertex 61.8672426796721 822.7233207988372 1.9999999999999991
    vertex 62.15347502129195 822.800016523622 1.9999999999999991
  endloop
endfacet
facet normal -3.180884385077486e-32 1.0691586502946624e-46 1.0
  outer loop
    vertex 65.44867692332572 824.6258433435012 1.9999999999999991
    vertex 62.15347502129195 822.800016523622 1.9999999999999991
    vertex 62.44867692332573 822.8258433435012 1.9999999999999991
  endloop
endfacet
facet normal -3.180884385077486e-32 1.0691586502946624e-46 1.0
  outer loop
    vertex 65.44867692332572 824.6258433435012 1.9999999999999991
    vertex 62.44867692332573 822.8258433435012 1.9999999999999991
    vertex 62.743878825359516 822.800016523622 1.9999999999999991
  endloop
endfacet
facet normal -3.180884385077486e-32 1.0691586502946624e-46 1.0
  outer loop
    vertex 65.44867692332572 824.6258433435012 1.9999999999999991
    vertex 62.743878825359516 822.800016523622 1.9999999999999991
    vertex 63.03011116697937 822.7233207988372 1.9999999999999991
  endloop
endfacet
facet normal -3.180884385077486e-32 1.0691586502946624e-46 1.0
  outer loop
    vertex 65.44867692332572 824.6258433435012 1.9999999999999991
    vertex 63.03011116697937 822.7233207988372 1.9999999999999991
    vertex 63.29867692332573 822.5980865299348 1.9999999999999991
  endloop
endfacet
facet normal -3.180884385077486e-32 1.0691586502946624e-46 1.0
  outer loop
    vertex 65.44867692332572 824.6258433435012 1.9999999999999991
    vertex 63.29867692332573 822.5980865299348 1.9999999999999991
    vertex 63.541415859792835 822.4281188968035 1.9999999999999991
  endloop
endfacet
facet normal -3.180884385077486e-32 1.0691586502946624e-46 1.0
  outer loop
    vertex 65.44867692332572 824.6258433435012 1.9999999999999991
    vertex 63.541415859792835 822.4281188968035 1.9999999999999991
    vertex 63.75095247662798 822.2185822799684 1.9999999999999991
  endloop
endfacet
facet normal -3.180884385077486e-32 1.0691586502946624e-46 1.0
  outer loop
    vertex 65.44867692332572 824.6258433435012 1.9999999999999991
    vertex 63.75095247662798 822.2185822799684 1.9999999999999991
    vertex 63.92092010975926 821.9758433435013 1.9999999999999991
  endloop
endfacet
facet normal -3.180884385077486e-32 1.0691586502946624e-46 1.0
  outer loop
    vertex 65.44867692332572 824.6258433435012 1.9999999999999991
    vertex 63.92092010975926 821.9758433435013 1.9999999999999991
    vertex 64.04615437866175 821.707277587155 1.9999999999999991
  endloop
endfacet
facet normal -3.180884385077486e-32 1.0691586502946624e-46 1.0
  outer loop
    vertex 65.44867692332572 824.6258433435012 1.9999999999999991
    vertex 64.04615437866175 821.707277587155 1.9999999999999991
    vertex 64.12285010344647 821.4210452455351 1.9999999999999991
  endloop
endfacet
facet normal -3.180884385077486e-32 1.0691586502946624e-46 1.0
  outer loop
    vertex 65.44867692332572 824.6258433435012 1.9999999999999991
    vertex 64.12285010344647 821.4210452455351 1.9999999999999991
    vertex 64.1486769233257 821.1258433435013 1.9999999999999991
  endloop
endfacet
facet normal -3.180884385077486e-32 1.0691586502946624e-46 1.0
  outer loop
    vertex 65.44867692332572 824.6258433435012 1.9999999999999991
    vertex 64.1486769233257 821.1258433435013 1.9999999999999991
    vertex 64.158777639954 816.4273802395718 1.9999999999999991
  endloop
endfacet
facet normal -3.180884385077486e-32 1.0691586502946624e-46 1.0
  outer loop
    vertex 65.44867692332572 824.6258433435012 1.9999999999999991
    vertex 64.158777639954 816.4273802395718 1.9999999999999991
    vertex 64.94867692332565 816.7957163245792 1.9999999999999991
  endloop
endfacet
facet normal -3.180884385077486e-32 1.0691586502946624e-46 1.0
  outer loop
    vertex 65.44867692332572 824.6258433435012 1.9999999999999991
    vertex 64.94867692332565 816.7957163245792 1.9999999999999991
    vertex 65.66261497175833 817.2956211279065 1.9999999999999991
  endloop
endfacet
facet normal -3.180884385077486e-32 1.0691586502946624e-46 1.0
  outer loop
    vertex 65.44867692332572 824.6258433435012 1.9999999999999991
    vertex 65.66261497175833 817.2956211279065 1.9999999999999991
    vertex 65.44867692332572 827.1258433435011 1.9999999999999991
  endloop
endfacet
facet normal -3.180884385077486e-32 1.0691586502946624e-46 1.0
  outer loop
    vertex 65.44867692332572 827.1258433435011 1.9999999999999991
    vertex 65.66261497175833 817.2956211279065 1.9999999999999991
    vertex 65.44867692332572 831.1258433434996 1.9999999999999984
  endloop
endfacet
facet normal -3.180884385077486e-32 1.0691586502946624e-46 1.0
  outer loop
    vertex 65.44867692332572 831.1258433434996 1.9999999999999984
    vertex 65.66261497175833 817.2956211279065 1.9999999999999991
    vertex 65.44867692332572 833.6258433434991 1.9999999999999984
  endloop
endfacet
facet normal -3.180884385077486e-32 1.0691586502946624e-46 1.0
  outer loop
    vertex 59.23473887489307 833.9560655590967 1.9999999999999991
    vertex 59.44867692332572 833.6258433434991 1.9999999999999984
    vertex 59.948676923325756 834.4559703624241 1.9999999999999991
  endloop
endfacet
facet normal -3.180884385077486e-32 1.0691586502946624e-46 1.0
  outer loop
    vertex 59.44867692332572 833.6258433434991 1.9999999999999984
    vertex 59.23473887489307 833.9560655590967 1.9999999999999991
    vertex 59.44867692332572 824.6258433435012 1.9999999999999991
  endloop
endfacet
facet normal -3.180884385077486e-32 1.0691586502946624e-46 1.0
  outer loop
    vertex 59.44867692332572 833.6258433434991 1.9999999999999984
    vertex 59.44867692332572 824.6258433435012 1.9999999999999991
    vertex 59.44867692332572 827.1258433435011 1.9999999999999991
  endloop
endfacet
facet normal -3.180884385077486e-32 1.0691586502946624e-46 1.0
  outer loop
    vertex 59.44867692332572 833.6258433434991 1.9999999999999984
    vertex 59.44867692332572 827.1258433435011 1.9999999999999991
    vertex 59.44867692332572 831.1258433434996 1.9999999999999984
  endloop
endfacet
facet normal -3.180884385077486e-32 1.0691586502946624e-46 1.0
  outer loop
    vertex 59.948676923325756 834.4559703624241 1.9999999999999991
    vertex 59.44867692332572 833.6258433434991 1.9999999999999984
    vertex 65.44867692332572 833.6258433434991 1.9999999999999984
  endloop
endfacet
facet normal -3.180884385077486e-32 1.0691586502946624e-46 1.0
  outer loop
    vertex 59.948676923325756 834.4559703624241 1.9999999999999991
    vertex 65.44867692332572 833.6258433434991 1.9999999999999984
    vertex 60.7385762066974 834.8243064474315 1.9999999999999991
  endloop
endfacet
facet normal -3.180884385077486e-32 1.0691586502946624e-46 1.0
  outer loop
    vertex 60.7385762066974 834.8243064474315 1.9999999999999991
    vertex 65.44867692332572 833.6258433434991 1.9999999999999984
    vertex 61.58043603499109 835.0498821085629 1.9999999999999991
  endloop
endfacet
facet normal -3.180884385077486e-32 1.0691586502946624e-46 1.0
  outer loop
    vertex 61.58043603499109 835.0498821085629 1.9999999999999991
    vertex 65.44867692332572 833.6258433434991 1.9999999999999984
    vertex 62.44867692332573 835.1258433435019 1.9999999999999991
  endloop
endfacet
facet normal -3.180884385077486e-32 1.0691586502946624e-46 1.0
  outer loop
    vertex 62.44867692332573 835.1258433435019 1.9999999999999991
    vertex 65.44867692332572 833.6258433434991 1.9999999999999984
    vertex 63.31691781166037 835.0498821085629 1.9999999999999991
  endloop
endfacet
facet normal -3.180884385077486e-32 1.0691586502946624e-46 1.0
  outer loop
    vertex 63.31691781166037 835.0498821085629 1.9999999999999991
    vertex 65.44867692332572 833.6258433434991 1.9999999999999984
    vertex 64.15877763995405 834.8243064474315 1.9999999999999991
  endloop
endfacet
facet normal -3.180884385077486e-32 1.0691586502946624e-46 1.0
  outer loop
    vertex 64.15877763995405 834.8243064474315 1.9999999999999991
    vertex 65.44867692332572 833.6258433434991 1.9999999999999984
    vertex 64.9486769233257 834.4559703624241 1.9999999999999991
  endloop
endfacet
facet normal -3.180884385077486e-32 1.0691586502946624e-46 1.0
  outer loop
    vertex 64.9486769233257 834.4559703624241 1.9999999999999991
    vertex 65.44867692332572 833.6258433434991 1.9999999999999984
    vertex 65.66261497175839 833.9560655590967 1.9999999999999991
  endloop
endfacet
facet normal -3.180884385077486e-32 1.0691586502946624e-46 1.0
  outer loop
    vertex 65.66261497175839 833.9560655590967 1.9999999999999991
    vertex 65.44867692332572 833.6258433434991 1.9999999999999984
    vertex 65.66261497175833 817.2956211279065 1.9999999999999991
  endloop
endfacet
facet normal -3.180884385077486e-32 1.0691586502946624e-46 1.0
  outer loop
    vertex 65.66261497175839 833.9560655590967 1.9999999999999991
    vertex 65.66261497175833 817.2956211279065 1.9999999999999991
    vertex 66.27889913892052 817.9119052950687 1.9999999999999991
  endloop
endfacet
facet normal -3.180884385077486e-32 1.0691586502946624e-46 1.0
  outer loop
    vertex 65.66261497175839 833.9560655590967 1.9999999999999991
    vertex 66.27889913892052 817.9119052950687 1.9999999999999991
    vertex 66.27889913892058 833.3397813919345 1.9999999999999991
  endloop
endfacet
facet normal -3.180884385077486e-32 1.0691586502946624e-46 1.0
  outer loop
    vertex 66.27889913892058 833.3397813919345 1.9999999999999991
    vertex 66.27889913892052 817.9119052950687 1.9999999999999991
    vertex 66.77880394224782 818.6258433435013 1.9999999999999991
  endloop
endfacet
facet normal -3.180884385077486e-32 1.0691586502946624e-46 1.0
  outer loop
    vertex 66.27889913892058 833.3397813919345 1.9999999999999991
    vertex 66.77880394224782 818.6258433435013 1.9999999999999991
    vertex 66.77880394224788 832.625843343502 1.9999999999999991
  endloop
endfacet
facet normal -3.180884385077486e-32 1.0691586502946624e-46 1.0
  outer loop
    vertex 66.77880394224788 832.625843343502 1.9999999999999991
    vertex 66.77880394224782 818.6258433435013 1.9999999999999991
    vertex 67.14714002725516 819.4157426268729 1.9999999999999991
  endloop
endfacet
facet normal -3.180884385077486e-32 1.0691586502946624e-46 1.0
  outer loop
    vertex 66.77880394224788 832.625843343502 1.9999999999999991
    vertex 67.14714002725516 819.4157426268729 1.9999999999999991
    vertex 67.14714002725522 831.8359440601304 1.9999999999999991
  endloop
endfacet
facet normal -3.180884385077486e-32 1.0691586502946624e-46 1.0
  outer loop
    vertex 67.14714002725522 831.8359440601304 1.9999999999999991
    vertex 67.14714002725516 819.4157426268729 1.9999999999999991
    vertex 67.37271568838666 820.2576024551668 1.9999999999999991
  endloop
endfacet
facet normal -3.180884385077486e-32 1.0691586502946624e-46 1.0
  outer loop
    vertex 67.14714002725522 831.8359440601304 1.9999999999999991
    vertex 67.37271568838666 820.2576024551668 1.9999999999999991
    vertex 67.37271568838672 830.9940842318365 1.9999999999999991
  endloop
endfacet
facet normal -3.180884385077486e-32 1.0691586502946624e-46 1.0
  outer loop
    vertex 67.37271568838672 830.9940842318365 1.9999999999999991
    vertex 67.37271568838666 820.2576024551668 1.9999999999999991
    vertex 67.44867692332573 821.1258433435013 1.9999999999999991
  endloop
endfacet
facet normal -3.180884385077486e-32 1.0691586502946624e-46 1.0
  outer loop
    vertex 67.37271568838672 830.9940842318365 1.9999999999999991
    vertex 67.44867692332573 821.1258433435013 1.9999999999999991
    vertex 67.44867692332568 830.125843343502 1.9999999999999991
  endloop
endfacet
facet normal -3.180884385077486e-32 1.0691586502946624e-46 1.0
  outer loop
    vertex 65.44867692332572 827.1258433435011 1.9999999999999991
    vertex 59.44867692332572 831.1258433434996 1.9999999999999984
    vertex 59.44867692332572 827.1258433435011 1.9999999999999991
  endloop
endfacet
facet normal -3.180884385077486e-32 1.0691586502946624e-46 1.0
  outer loop
    vertex 59.44867692332572 831.1258433434996 1.9999999999999984
    vertex 65.44867692332572 827.1258433435011 1.9999999999999991
    vertex 65.44867692332572 831.1258433434996 1.9999999999999984
  endloop
endfacet
facet normal -0.9191450300180581 2.8120974823210976e-17 0.39391929857916735
  outer loop
    vertex 60.94867692332572 825.6258433435008 5.499999999999996
    vertex 59.44867692332572 827.1258433435011 1.9999999999999991
    vertex 59.44867692332572 824.6258433435012 1.9999999999999991
  endloop
endfacet
facet normal -0.9191450300180581 2.8120974823210976e-17 0.39391929857916735
  outer loop
    vertex 59.44867692332572 827.1258433435011 1.9999999999999991
    vertex 60.94867692332572 825.6258433435008 5.499999999999996
    vertex 60.305819780468575 827.1258433435008 3.9999999999999947
  endloop
endfacet
facet normal -0.9191450300180581 2.8120974823210976e-17 0.39391929857916735
  outer loop
    vertex 60.94867692332572 832.6258433434994 5.499999999999995
    vertex 60.305819780468575 827.1258433435008 3.9999999999999947
    vertex 60.94867692332572 825.6258433435008 5.499999999999996
  endloop
endfacet
facet normal -0.9191450300180581 2.8120974823210976e-17 0.39391929857916735
  outer loop
    vertex 60.305819780468575 827.1258433435008 3.9999999999999947
    vertex 60.94867692332572 832.6258433434994 5.499999999999995
    vertex 60.305819780468575 831.1258433434999 3.9999999999999947
  endloop
endfacet
facet normal -0.9191450300180581 2.8120974823210976e-17 0.39391929857916735
  outer loop
    vertex 60.305819780468575 831.1258433434999 3.9999999999999947
    vertex 59.44867692332572 833.6258433434991 1.9999999999999984
    vertex 59.44867692332572 831.1258433434996 1.9999999999999984
  endloop
endfacet
facet normal -0.9191450300180581 2.8120974823210976e-17 0.39391929857916735
  outer loop
    vertex 59.44867692332572 833.6258433434991 1.9999999999999984
    vertex 60.305819780468575 831.1258433434999 3.9999999999999947
    vertex 60.94867692332572 832.6258433434994 5.499999999999995
  endloop
endfacet
facet normal 0.5735764363510961 0.8191520442889568 0.0
  outer loop
    vertex 64.9486769233257 834.4559703624241 1.9999999999999991
    vertex 65.66261497175839 833.9560655590967 0.49999999999999994
    vertex 64.9486769233257 834.4559703624241 0.49999999999999994
  endloop
endfacet
facet normal 0.5735764363510961 0.8191520442889568 0.0
  outer loop
    vertex 65.66261497175839 833.9560655590967 0.49999999999999994
    vertex 64.9486769233257 834.4559703624241 1.9999999999999991
    vertex 65.66261497175839 833.9560655590967 1.9999999999999991
  endloop
endfacet
facet normal 0.7071067811865411 0.707106781186554 0.0
  outer loop
    vertex 65.66261497175839 833.9560655590967 1.9999999999999991
    vertex 66.27889913892058 833.3397813919345 0.49999999999999994
    vertex 65.66261497175839 833.9560655590967 0.49999999999999994
  endloop
endfacet
facet normal 0.7071067811865411 0.707106781186554 0.0
  outer loop
    vertex 66.27889913892058 833.3397813919345 0.49999999999999994
    vertex 65.66261497175839 833.9560655590967 1.9999999999999991
    vertex 66.27889913892058 833.3397813919345 1.9999999999999991
  endloop
endfacet
facet normal 0.4226182617407334 0.9063077870366341 0.0
  outer loop
    vertex 64.15877763995405 834.8243064474315 1.9999999999999991
    vertex 64.9486769233257 834.4559703624241 0.49999999999999994
    vertex 64.15877763995405 834.8243064474315 0.49999999999999994
  endloop
endfacet
facet normal 0.4226182617407334 0.9063077870366341 0.0
  outer loop
    vertex 64.9486769233257 834.4559703624241 0.49999999999999994
    vertex 64.15877763995405 834.8243064474315 1.9999999999999991
    vertex 64.9486769233257 834.4559703624241 1.9999999999999991
  endloop
endfacet
facet normal 0.2588190451025062 0.9659258262890722 0.0
  outer loop
    vertex 63.31691781166037 835.0498821085629 1.9999999999999991
    vertex 64.15877763995405 834.8243064474315 0.49999999999999994
    vertex 63.31691781166037 835.0498821085629 0.49999999999999994
  endloop
endfacet
facet normal 0.2588190451025062 0.9659258262890722 0.0
  outer loop
    vertex 64.15877763995405 834.8243064474315 0.49999999999999994
    vertex 63.31691781166037 835.0498821085629 1.9999999999999991
    vertex 64.15877763995405 834.8243064474315 1.9999999999999991
  endloop
endfacet
facet normal 0.08715574274765935 0.9961946980917455 1.9356170174352783e-18
  outer loop
    vertex 62.44867692332573 835.1258433435019 1.9999999999999991
    vertex 63.31691781166037 835.0498821085629 0.49999999999999994
    vertex 62.44867692332573 835.1258433435019 0.49999999999999994
  endloop
endfacet
facet normal 0.08715574274765935 0.9961946980917455 1.9356170174352783e-18
  outer loop
    vertex 63.31691781166037 835.0498821085629 0.49999999999999994
    vertex 62.44867692332573 835.1258433435019 1.9999999999999991
    vertex 63.31691781166037 835.0498821085629 1.9999999999999991
  endloop
endfacet
endsolid Mechanic
