solid Mechanic
facet normal -0.7071067811865462 2.009708387124002e-15 -0.7071067811865488
  outer loop
    vertex 8.796843382923822 855.9537064621599 12.450237518924013
    vertex 8.84838027899428 843.7258433435021 12.39870062285351
    vertex 8.796843382923784 843.9181816581016 12.450237518924013
  endloop
endfacet
facet normal -0.7071067811865462 2.009708387124002e-15 -0.7071067811865488
  outer loop
    vertex 8.84838027899428 843.7258433435021 12.39870062285351
    vertex 8.796843382923822 855.9537064621599 12.450237518924013
    vertex 8.848380278994338 856.1460447767596 12.398700622853495
  endloop
endfacet
facet normal -0.7071067811865462 2.009708387124002e-15 -0.7071067811865488
  outer loop
    vertex 8.84838027899428 843.7258433435021 12.39870062285351
    vertex 8.848380278994338 856.1460447767596 12.398700622853495
    vertex 9.216716364001627 842.9359440601305 12.030364537846172
  endloop
endfacet
facet normal -0.7071067811865462 2.009708387124002e-15 -0.7071067811865488
  outer loop
    vertex 9.216716364001627 842.9359440601305 12.030364537846172
    vertex 8.848380278994338 856.1460447767596 12.398700622853495
    vertex 9.216716364001684 856.9359440601312 12.030364537846152
  endloop
endfacet
facet normal -0.7071067811865462 2.009708387124002e-15 -0.7071067811865488
  outer loop
    vertex 9.216716364001627 842.9359440601305 12.030364537846172
    vertex 9.216716364001684 856.9359440601312 12.030364537846152
    vertex 9.596843382923785 842.3930664157481 11.650237518924014
  endloop
endfacet
facet normal -0.7071067811865462 2.009708387124002e-15 -0.7071067811865488
  outer loop
    vertex 9.596843382923785 842.3930664157481 11.650237518924014
    vertex 9.216716364001684 856.9359440601312 12.030364537846152
    vertex 9.59684338292382 857.4788217045136 11.650237518924014
  endloop
endfacet
facet normal 0.9063077870366337 0.4226182617407343 -2.788256965184999e-15
  outer loop
    vertex 18.110416764219174 856.435316720454 12.263810900219317
    vertex 18.245306486853323 856.1460447767596 13.950237518924013
    vertex 18.245306486853323 856.1460447767596 12.398700622853518
  endloop
endfacet
facet normal 0.9063077870366337 0.4226182617407343 -2.788256965184999e-15
  outer loop
    vertex 18.245306486853323 856.1460447767596 13.950237518924013
    vertex 18.110416764219174 856.435316720454 12.263810900219317
    vertex 17.876970401845973 856.9359440601312 13.950237518924013
  endloop
endfacet
facet normal 0.9063077870366337 0.4226182617407343 -2.788256965184999e-15
  outer loop
    vertex 17.876970401845973 856.9359440601312 13.950237518924013
    vertex 18.110416764219174 856.435316720454 12.263810900219317
    vertex 17.876970401845973 856.9359440601312 12.030364537846172
  endloop
endfacet
facet normal -2.1999742412011303e-31 2.563837644726049e-33 -1.0
  outer loop
    vertex 12.678602494589187 859.3599828251921 11.650237518924014
    vertex 11.84684338292383 845.4359440601305 11.650237518924024
    vertex 11.836742666295505 859.1344071640607 11.650237518924014
  endloop
endfacet
facet normal -2.1999742412011303e-31 2.563837644726049e-33 -1.0
  outer loop
    vertex 11.84684338292383 845.4359440601305 11.650237518924024
    vertex 12.678602494589187 859.3599828251921 11.650237518924014
    vertex 11.872670202803075 845.7311459621643 11.650237518924024
  endloop
endfacet
facet normal -2.1999742412011303e-31 2.563837644726049e-33 -1.0
  outer loop
    vertex 11.872670202803075 845.7311459621643 11.650237518924024
    vertex 12.678602494589187 859.3599828251921 11.650237518924014
    vertex 11.949365927587786 846.0173783037842 11.650237518924024
  endloop
endfacet
facet normal -2.1999742412011303e-31 2.563837644726049e-33 -1.0
  outer loop
    vertex 11.949365927587786 846.0173783037842 11.650237518924024
    vertex 12.678602494589187 859.3599828251921 11.650237518924014
    vertex 12.074600196490286 846.2859440601305 11.650237518924024
  endloop
endfacet
facet normal -2.1999742412011303e-31 2.563837644726049e-33 -1.0
  outer loop
    vertex 12.074600196490286 846.2859440601305 11.650237518924024
    vertex 12.678602494589187 859.3599828251921 11.650237518924014
    vertex 12.244567829621568 846.5286829965976 11.650237518924024
  endloop
endfacet
facet normal -2.1999742412011303e-31 2.563837644726049e-33 -1.0
  outer loop
    vertex 12.244567829621568 846.5286829965976 11.650237518924024
    vertex 12.678602494589187 859.3599828251921 11.650237518924014
    vertex 12.454104446456713 846.7382196134328 11.650237518924024
  endloop
endfacet
facet normal -2.1999742412011303e-31 2.563837644726049e-33 -1.0
  outer loop
    vertex 12.454104446456713 846.7382196134328 11.650237518924024
    vertex 12.678602494589187 859.3599828251921 11.650237518924014
    vertex 12.696843382923829 846.908187246564 11.650237518924024
  endloop
endfacet
facet normal -2.1999742412011303e-31 2.563837644726049e-33 -1.0
  outer loop
    vertex 12.696843382923829 846.908187246564 11.650237518924024
    vertex 12.678602494589187 859.3599828251921 11.650237518924014
    vertex 13.546843382923829 859.4359440601311 11.650237518924014
  endloop
endfacet
facet normal -2.1999742412011303e-31 2.563837644726049e-33 -1.0
  outer loop
    vertex 12.696843382923829 846.908187246564 11.650237518924024
    vertex 13.546843382923829 859.4359440601311 11.650237518924014
    vertex 12.965409139270193 847.0334215154664 11.650237518924024
  endloop
endfacet
facet normal -2.1999742412011303e-31 2.563837644726049e-33 -1.0
  outer loop
    vertex 12.965409139270193 847.0334215154664 11.650237518924024
    vertex 13.546843382923829 859.4359440601311 11.650237518924014
    vertex 13.251641480890047 847.1101172402513 11.650237518924024
  endloop
endfacet
facet normal -2.1999742412011303e-31 2.563837644726049e-33 -1.0
  outer loop
    vertex 13.251641480890047 847.1101172402513 11.650237518924024
    vertex 13.546843382923829 859.4359440601311 11.650237518924014
    vertex 13.546843382923829 847.1359440601304 11.650237518924024
  endloop
endfacet
facet normal -2.1999742412011303e-31 2.563837644726049e-33 -1.0
  outer loop
    vertex 13.546843382923829 847.1359440601304 11.650237518924024
    vertex 13.546843382923829 859.4359440601311 11.650237518924014
    vertex 14.415084271258472 859.3599828251921 11.650237518924014
  endloop
endfacet
facet normal -2.1999742412011303e-31 2.563837644726049e-33 -1.0
  outer loop
    vertex 13.546843382923829 847.1359440601304 11.650237518924024
    vertex 14.415084271258472 859.3599828251921 11.650237518924014
    vertex 13.842045284957612 847.1101172402513 11.650237518924024
  endloop
endfacet
facet normal -2.1999742412011303e-31 2.563837644726049e-33 -1.0
  outer loop
    vertex 13.842045284957612 847.1101172402513 11.650237518924024
    vertex 14.415084271258472 859.3599828251921 11.650237518924014
    vertex 14.128277626577466 847.0334215154664 11.650237518924024
  endloop
endfacet
facet normal -2.1999742412011303e-31 2.563837644726049e-33 -1.0
  outer loop
    vertex 14.128277626577466 847.0334215154664 11.650237518924024
    vertex 14.415084271258472 859.3599828251921 11.650237518924014
    vertex 14.39684338292383 846.908187246564 11.650237518924024
  endloop
endfacet
facet normal -2.1999742412011303e-31 2.563837644726049e-33 -1.0
  outer loop
    vertex 14.39684338292383 846.908187246564 11.650237518924024
    vertex 14.415084271258472 859.3599828251921 11.650237518924014
    vertex 14.639582319390946 846.7382196134328 11.650237518924024
  endloop
endfacet
facet normal -2.1999742412011303e-31 2.563837644726049e-33 -1.0
  outer loop
    vertex 14.639582319390946 846.7382196134328 11.650237518924024
    vertex 14.415084271258472 859.3599828251921 11.650237518924014
    vertex 15.256944099552154 859.1344071640607 11.650237518924014
  endloop
endfacet
facet normal -2.1999742412011303e-31 2.563837644726049e-33 -1.0
  outer loop
    vertex 14.639582319390946 846.7382196134328 11.650237518924024
    vertex 15.256944099552154 859.1344071640607 11.650237518924014
    vertex 14.849118936226091 846.5286829965976 11.650237518924024
  endloop
endfacet
facet normal -2.1999742412011303e-31 2.563837644726049e-33 -1.0
  outer loop
    vertex 14.849118936226091 846.5286829965976 11.650237518924024
    vertex 15.256944099552154 859.1344071640607 11.650237518924014
    vertex 15.019086569357373 846.2859440601305 11.650237518924024
  endloop
endfacet
facet normal -2.1999742412011303e-31 2.563837644726049e-33 -1.0
  outer loop
    vertex 15.019086569357373 846.2859440601305 11.650237518924024
    vertex 15.256944099552154 859.1344071640607 11.650237518924014
    vertex 15.144320838259873 846.0173783037842 11.650237518924024
  endloop
endfacet
facet normal -2.1999742412011303e-31 2.563837644726049e-33 -1.0
  outer loop
    vertex 15.144320838259873 846.0173783037842 11.650237518924024
    vertex 15.256944099552154 859.1344071640607 11.650237518924014
    vertex 15.221016563044582 845.7311459621643 11.650237518924024
  endloop
endfacet
facet normal -2.1999742412011303e-31 2.563837644726049e-33 -1.0
  outer loop
    vertex 15.221016563044582 845.7311459621643 11.650237518924024
    vertex 15.256944099552154 859.1344071640607 11.650237518924014
    vertex 15.24684338292383 845.4359440601305 11.650237518924024
  endloop
endfacet
facet normal -2.1999742412011303e-31 2.563837644726049e-33 -1.0
  outer loop
    vertex 15.24684338292383 845.4359440601305 11.650237518924024
    vertex 15.256944099552154 859.1344071640607 11.650237518924014
    vertex 15.256944099552097 840.737480956201 11.650237518924014
  endloop
endfacet
facet normal -2.1999742412011303e-31 2.563837644726049e-33 -1.0
  outer loop
    vertex 15.256944099552097 840.737480956201 11.650237518924014
    vertex 15.256944099552154 859.1344071640607 11.650237518924014
    vertex 16.046843382923747 841.1058170412084 11.650237518924014
  endloop
endfacet
facet normal -2.1999742412011303e-31 2.563837644726049e-33 -1.0
  outer loop
    vertex 16.046843382923747 841.1058170412084 11.650237518924014
    vertex 15.256944099552154 859.1344071640607 11.650237518924014
    vertex 16.046843382923804 858.7660710790533 11.650237518924014
  endloop
endfacet
facet normal -2.1999742412011303e-31 2.563837644726049e-33 -1.0
  outer loop
    vertex 16.046843382923747 841.1058170412084 11.650237518924014
    vertex 16.046843382923804 858.7660710790533 11.650237518924014
    vertex 16.760781431356435 841.6057218445358 11.650237518924014
  endloop
endfacet
facet normal -2.1999742412011303e-31 2.563837644726049e-33 -1.0
  outer loop
    vertex 16.760781431356435 841.6057218445358 11.650237518924014
    vertex 16.046843382923804 858.7660710790533 11.650237518924014
    vertex 16.76078143135649 858.2661662757259 11.650237518924014
  endloop
endfacet
facet normal -2.1999742412011303e-31 2.563837644726049e-33 -1.0
  outer loop
    vertex 16.760781431356435 841.6057218445358 11.650237518924014
    vertex 16.76078143135649 858.2661662757259 11.650237518924014
    vertex 17.377065598518623 842.2220060116979 11.650237518924014
  endloop
endfacet
facet normal -2.1999742412011303e-31 2.563837644726049e-33 -1.0
  outer loop
    vertex 17.377065598518623 842.2220060116979 11.650237518924014
    vertex 16.76078143135649 858.2661662757259 11.650237518924014
    vertex 17.37706559851868 857.6498821085637 11.650237518924014
  endloop
endfacet
facet normal -2.1999742412011303e-31 2.563837644726049e-33 -1.0
  outer loop
    vertex 17.377065598518623 842.2220060116979 11.650237518924014
    vertex 17.37706559851868 857.6498821085637 11.650237518924014
    vertex 17.49684338292378 842.3930664157481 11.650237518924014
  endloop
endfacet
facet normal -2.1999742412011303e-31 2.563837644726049e-33 -1.0
  outer loop
    vertex 17.49684338292378 842.3930664157481 11.650237518924014
    vertex 17.37706559851868 857.6498821085637 11.650237518924014
    vertex 17.496843382923817 857.4788217045136 11.650237518924014
  endloop
endfacet
facet normal -2.1999742412011303e-31 2.563837644726049e-33 -1.0
  outer loop
    vertex 9.59684338292382 857.4788217045136 11.650237518924014
    vertex 9.716621167328922 842.2220060116979 11.650237518924014
    vertex 9.596843382923785 842.3930664157481 11.650237518924014
  endloop
endfacet
facet normal -2.1999742412011303e-31 2.563837644726049e-33 -1.0
  outer loop
    vertex 9.716621167328922 842.2220060116979 11.650237518924014
    vertex 9.59684338292382 857.4788217045136 11.650237518924014
    vertex 9.716621167328979 857.6498821085637 11.650237518924014
  endloop
endfacet
facet normal -2.1999742412011303e-31 2.563837644726049e-33 -1.0
  outer loop
    vertex 9.716621167328922 842.2220060116979 11.650237518924014
    vertex 9.716621167328979 857.6498821085637 11.650237518924014
    vertex 10.33290533449111 841.6057218445358 11.650237518924014
  endloop
endfacet
facet normal -2.1999742412011303e-31 2.563837644726049e-33 -1.0
  outer loop
    vertex 10.33290533449111 841.6057218445358 11.650237518924014
    vertex 9.716621167328979 857.6498821085637 11.650237518924014
    vertex 10.332905334491167 858.2661662757259 11.650237518924014
  endloop
endfacet
facet normal -2.1999742412011303e-31 2.563837644726049e-33 -1.0
  outer loop
    vertex 10.33290533449111 841.6057218445358 11.650237518924014
    vertex 10.332905334491167 858.2661662757259 11.650237518924014
    vertex 11.0468433829238 841.1058170412084 11.650237518924014
  endloop
endfacet
facet normal -2.1999742412011303e-31 2.563837644726049e-33 -1.0
  outer loop
    vertex 11.0468433829238 841.1058170412084 11.650237518924014
    vertex 10.332905334491167 858.2661662757259 11.650237518924014
    vertex 11.046843382923857 858.7660710790533 11.650237518924014
  endloop
endfacet
facet normal -2.1999742412011303e-31 2.563837644726049e-33 -1.0
  outer loop
    vertex 11.0468433829238 841.1058170412084 11.650237518924014
    vertex 11.046843382923857 858.7660710790533 11.650237518924014
    vertex 11.836742666295448 840.737480956201 11.650237518924014
  endloop
endfacet
facet normal -2.1999742412011303e-31 2.563837644726049e-33 -1.0
  outer loop
    vertex 11.836742666295448 840.737480956201 11.650237518924014
    vertex 11.046843382923857 858.7660710790533 11.650237518924014
    vertex 11.836742666295505 859.1344071640607 11.650237518924014
  endloop
endfacet
facet normal -2.1999742412011303e-31 2.563837644726049e-33 -1.0
  outer loop
    vertex 11.836742666295448 840.737480956201 11.650237518924014
    vertex 11.836742666295505 859.1344071640607 11.650237518924014
    vertex 11.84684338292383 845.4359440601305 11.650237518924024
  endloop
endfacet
facet normal -2.1999742412011303e-31 2.563837644726049e-33 -1.0
  outer loop
    vertex 11.836742666295448 840.737480956201 11.650237518924014
    vertex 11.84684338292383 845.4359440601305 11.650237518924024
    vertex 11.872670202803075 845.1407421580967 11.650237518924024
  endloop
endfacet
facet normal -2.1999742412011303e-31 2.563837644726049e-33 -1.0
  outer loop
    vertex 11.836742666295448 840.737480956201 11.650237518924014
    vertex 11.872670202803075 845.1407421580967 11.650237518924024
    vertex 12.67860249458913 840.5119052950695 11.650237518924014
  endloop
endfacet
facet normal -2.1999742412011303e-31 2.563837644726049e-33 -1.0
  outer loop
    vertex 12.67860249458913 840.5119052950695 11.650237518924014
    vertex 11.872670202803075 845.1407421580967 11.650237518924024
    vertex 11.949365927587783 844.8545098164768 11.650237518924024
  endloop
endfacet
facet normal -2.1999742412011303e-31 2.563837644726049e-33 -1.0
  outer loop
    vertex 12.67860249458913 840.5119052950695 11.650237518924014
    vertex 11.949365927587783 844.8545098164768 11.650237518924024
    vertex 12.074600196490282 844.5859440601305 11.650237518924024
  endloop
endfacet
facet normal -2.1999742412011303e-31 2.563837644726049e-33 -1.0
  outer loop
    vertex 12.67860249458913 840.5119052950695 11.650237518924014
    vertex 12.074600196490282 844.5859440601305 11.650237518924024
    vertex 12.244567829621564 844.3432051236634 11.650237518924024
  endloop
endfacet
facet normal -2.1999742412011303e-31 2.563837644726049e-33 -1.0
  outer loop
    vertex 12.67860249458913 840.5119052950695 11.650237518924014
    vertex 12.244567829621564 844.3432051236634 11.650237518924024
    vertex 12.454104446456709 844.1336685068283 11.650237518924024
  endloop
endfacet
facet normal -2.1999742412011303e-31 2.563837644726049e-33 -1.0
  outer loop
    vertex 12.67860249458913 840.5119052950695 11.650237518924014
    vertex 12.454104446456709 844.1336685068283 11.650237518924024
    vertex 12.696843382923827 843.963700873697 11.650237518924024
  endloop
endfacet
facet normal -2.1999742412011303e-31 2.563837644726049e-33 -1.0
  outer loop
    vertex 12.67860249458913 840.5119052950695 11.650237518924014
    vertex 12.696843382923827 843.963700873697 11.650237518924024
    vertex 13.546843382923774 840.4359440601305 11.650237518924014
  endloop
endfacet
facet normal -2.1999742412011303e-31 2.563837644726049e-33 -1.0
  outer loop
    vertex 13.546843382923774 840.4359440601305 11.650237518924014
    vertex 12.696843382923827 843.963700873697 11.650237518924024
    vertex 12.96540913927019 843.8384666047946 11.650237518924024
  endloop
endfacet
facet normal -2.1999742412011303e-31 2.563837644726049e-33 -1.0
  outer loop
    vertex 13.546843382923774 840.4359440601305 11.650237518924014
    vertex 12.96540913927019 843.8384666047946 11.650237518924024
    vertex 13.251641480890044 843.7617708800097 11.650237518924024
  endloop
endfacet
facet normal -2.1999742412011303e-31 2.563837644726049e-33 -1.0
  outer loop
    vertex 13.546843382923774 840.4359440601305 11.650237518924014
    vertex 13.251641480890044 843.7617708800097 11.650237518924024
    vertex 13.546843382923823 843.7359440601306 11.650237518924024
  endloop
endfacet
facet normal -2.1999742412011303e-31 2.563837644726049e-33 -1.0
  outer loop
    vertex 13.546843382923774 840.4359440601305 11.650237518924014
    vertex 13.546843382923823 843.7359440601306 11.650237518924024
    vertex 14.415084271258415 840.5119052950695 11.650237518924014
  endloop
endfacet
facet normal -2.1999742412011303e-31 2.563837644726049e-33 -1.0
  outer loop
    vertex 14.415084271258415 840.5119052950695 11.650237518924014
    vertex 13.546843382923823 843.7359440601306 11.650237518924024
    vertex 13.842045284957607 843.7617708800097 11.650237518924024
  endloop
endfacet
facet normal -2.1999742412011303e-31 2.563837644726049e-33 -1.0
  outer loop
    vertex 14.415084271258415 840.5119052950695 11.650237518924014
    vertex 13.842045284957607 843.7617708800097 11.650237518924024
    vertex 14.12827762657746 843.8384666047946 11.650237518924024
  endloop
endfacet
facet normal -2.1999742412011303e-31 2.563837644726049e-33 -1.0
  outer loop
    vertex 14.415084271258415 840.5119052950695 11.650237518924014
    vertex 14.12827762657746 843.8384666047946 11.650237518924024
    vertex 14.396843382923825 843.963700873697 11.650237518924024
  endloop
endfacet
facet normal -2.1999742412011303e-31 2.563837644726049e-33 -1.0
  outer loop
    vertex 14.415084271258415 840.5119052950695 11.650237518924014
    vertex 14.396843382923825 843.963700873697 11.650237518924024
    vertex 14.639582319390941 844.1336685068283 11.650237518924024
  endloop
endfacet
facet normal -2.1999742412011303e-31 2.563837644726049e-33 -1.0
  outer loop
    vertex 14.415084271258415 840.5119052950695 11.650237518924014
    vertex 14.639582319390941 844.1336685068283 11.650237518924024
    vertex 15.256944099552097 840.737480956201 11.650237518924014
  endloop
endfacet
facet normal -2.1999742412011303e-31 2.563837644726049e-33 -1.0
  outer loop
    vertex 15.256944099552097 840.737480956201 11.650237518924014
    vertex 14.639582319390941 844.1336685068283 11.650237518924024
    vertex 14.849118936226086 844.3432051236634 11.650237518924024
  endloop
endfacet
facet normal -2.1999742412011303e-31 2.563837644726049e-33 -1.0
  outer loop
    vertex 15.256944099552097 840.737480956201 11.650237518924014
    vertex 14.849118936226086 844.3432051236634 11.650237518924024
    vertex 15.01908656935737 844.5859440601305 11.650237518924024
  endloop
endfacet
facet normal -2.1999742412011303e-31 2.563837644726049e-33 -1.0
  outer loop
    vertex 15.256944099552097 840.737480956201 11.650237518924014
    vertex 15.01908656935737 844.5859440601305 11.650237518924024
    vertex 15.144320838259873 844.8545098164768 11.650237518924024
  endloop
endfacet
facet normal -2.1999742412011303e-31 2.563837644726049e-33 -1.0
  outer loop
    vertex 15.256944099552097 840.737480956201 11.650237518924014
    vertex 15.144320838259873 844.8545098164768 11.650237518924024
    vertex 15.22101656304458 845.1407421580967 11.650237518924024
  endloop
endfacet
facet normal -2.1999742412011303e-31 2.563837644726049e-33 -1.0
  outer loop
    vertex 15.256944099552097 840.737480956201 11.650237518924014
    vertex 15.22101656304458 845.1407421580967 11.650237518924024
    vertex 15.24684338292383 845.4359440601305 11.650237518924024
  endloop
endfacet
facet normal -1.0 6.266592183439314e-15 -8.835789958549298e-31
  outer loop
    vertex 8.546843382923884 854.4359440601312 13.950237518924013
    vertex 8.546843382923827 845.4359440601305 12.450237518924013
    vertex 8.546843382923827 845.4359440601305 13.950237518924013
  endloop
endfacet
facet normal -1.0 6.266592183439314e-15 -8.835789958549298e-31
  outer loop
    vertex 8.546843382923827 845.4359440601305 12.450237518924013
    vertex 8.546843382923884 854.4359440601312 13.950237518924013
    vertex 8.546843382923884 854.4359440601312 12.450237518924013
  endloop
endfacet
facet normal 0.0 0.0 -1.0
  outer loop
    vertex 8.546843382923884 854.4359440601312 12.450237518924013
    vertex 8.622804617862787 844.567703171796 12.450237518924013
    vertex 8.546843382923827 845.4359440601305 12.450237518924013
  endloop
endfacet
facet normal 0.0 0.0 -1.0
  outer loop
    vertex 8.622804617862787 844.567703171796 12.450237518924013
    vertex 8.546843382923884 854.4359440601312 12.450237518924013
    vertex 8.622804617862844 855.3041849484657 12.450237518924013
  endloop
endfacet
facet normal 0.0 0.0 -1.0
  outer loop
    vertex 8.622804617862787 844.567703171796 12.450237518924013
    vertex 8.622804617862844 855.3041849484657 12.450237518924013
    vertex 8.796843382923784 843.9181816581016 12.450237518924013
  endloop
endfacet
facet normal 0.0 0.0 -1.0
  outer loop
    vertex 8.796843382923784 843.9181816581016 12.450237518924013
    vertex 8.622804617862844 855.3041849484657 12.450237518924013
    vertex 8.796843382923822 855.9537064621599 12.450237518924013
  endloop
endfacet
facet normal -0.9659258262890819 -0.2588190451024707 2.5232121895711423e-15
  outer loop
    vertex 8.622804617862787 844.567703171796 13.950237518924013
    vertex 8.84838027899428 843.7258433435021 12.39870062285351
    vertex 8.84838027899428 843.7258433435021 13.950237518924013
  endloop
endfacet
facet normal -0.9659258262890819 -0.2588190451024707 2.5232121895711423e-15
  outer loop
    vertex 8.84838027899428 843.7258433435021 12.39870062285351
    vertex 8.622804617862787 844.567703171796 13.950237518924013
    vertex 8.796843382923784 843.9181816581016 12.450237518924013
  endloop
endfacet
facet normal -0.9659258262890819 -0.2588190451024707 2.5232121895711423e-15
  outer loop
    vertex 8.796843382923784 843.9181816581016 12.450237518924013
    vertex 8.622804617862787 844.567703171796 13.950237518924013
    vertex 8.622804617862787 844.567703171796 12.450237518924013
  endloop
endfacet
facet normal -0.9961946980917448 -0.08715574274766721 -0.0
  outer loop
    vertex 8.546843382923827 845.4359440601305 13.950237518924013
    vertex 8.622804617862787 844.567703171796 12.450237518924013
    vertex 8.622804617862787 844.567703171796 13.950237518924013
  endloop
endfacet
facet normal -0.9961946980917448 -0.08715574274766721 -0.0
  outer loop
    vertex 8.622804617862787 844.567703171796 12.450237518924013
    vertex 8.546843382923827 845.4359440601305 13.950237518924013
    vertex 8.546843382923827 845.4359440601305 12.450237518924013
  endloop
endfacet
facet normal -0.9063077870366328 -0.4226182617407362 -0.0
  outer loop
    vertex 8.84838027899428 843.7258433435021 13.950237518924013
    vertex 9.216716364001627 842.9359440601305 12.030364537846172
    vertex 9.216716364001627 842.9359440601305 13.950237518924013
  endloop
endfacet
facet normal -0.9063077870366328 -0.4226182617407362 -0.0
  outer loop
    vertex 9.216716364001627 842.9359440601305 12.030364537846172
    vertex 8.84838027899428 843.7258433435021 13.950237518924013
    vertex 8.84838027899428 843.7258433435021 12.39870062285351
  endloop
endfacet
facet normal 1.0 6.266592183439312e-15 -8.835789958547524e-31
  outer loop
    vertex 18.546843382923775 854.4359440601312 12.450237518924013
    vertex 18.546843382923832 845.4359440601305 13.950237518924013
    vertex 18.546843382923832 845.4359440601305 12.450237518924013
  endloop
endfacet
facet normal 1.0 6.266592183439312e-15 -8.835789958547524e-31
  outer loop
    vertex 18.546843382923832 845.4359440601305 13.950237518924013
    vertex 18.546843382923775 854.4359440601312 12.450237518924013
    vertex 18.546843382923775 854.4359440601312 13.950237518924013
  endloop
endfacet
facet normal 0.9659258262890804 -0.25881904510247544 -2.7564502911283385e-15
  outer loop
    vertex 18.296843382923782 843.9181816581017 12.450237518924013
    vertex 18.245306486853266 843.7258433435021 13.950237518924013
    vertex 18.245306486853266 843.7258433435021 12.398700622853495
  endloop
endfacet
facet normal 0.9659258262890804 -0.25881904510247544 -2.7564502911283385e-15
  outer loop
    vertex 18.245306486853266 843.7258433435021 13.950237518924013
    vertex 18.296843382923782 843.9181816581017 12.450237518924013
    vertex 18.47088214798476 844.567703171796 13.950237518924013
  endloop
endfacet
facet normal 0.9659258262890804 -0.25881904510247544 -2.7564502911283385e-15
  outer loop
    vertex 18.47088214798476 844.567703171796 13.950237518924013
    vertex 18.296843382923782 843.9181816581017 12.450237518924013
    vertex 18.47088214798476 844.567703171796 12.450237518924013
  endloop
endfacet
facet normal 0.9961946980917334 -0.08715574274779564 0.0
  outer loop
    vertex 18.546843382923832 845.4359440601305 12.450237518924013
    vertex 18.47088214798476 844.567703171796 13.950237518924013
    vertex 18.47088214798476 844.567703171796 12.450237518924013
  endloop
endfacet
facet normal 0.9961946980917334 -0.08715574274779564 0.0
  outer loop
    vertex 18.47088214798476 844.567703171796 13.950237518924013
    vertex 18.546843382923832 845.4359440601305 12.450237518924013
    vertex 18.546843382923832 845.4359440601305 13.950237518924013
  endloop
endfacet
facet normal 0.0 1.0 9.023892744153292e-14
  outer loop
    vertex 11.403986240066677 851.43594406013 15.950237518924007
    vertex 16.546843382923825 851.4359440601303 13.950237518924013
    vertex 10.546843382923823 851.4359440601303 13.950237518924013
  endloop
endfacet
facet normal 0.0 1.0 9.023892744153292e-14
  outer loop
    vertex 16.546843382923825 851.4359440601303 13.950237518924013
    vertex 11.403986240066677 851.43594406013 15.950237518924007
    vertex 15.68970052578097 851.43594406013 15.950237518924007
  endloop
endfacet
facet normal 0.0 0.0 -1.0
  outer loop
    vertex 15.68970052578097 855.4359440601291 15.950237518924007
    vertex 11.403986240066677 851.43594406013 15.950237518924007
    vertex 11.403986240066677 855.4359440601291 15.950237518924007
  endloop
endfacet
facet normal 0.0 0.0 -1.0
  outer loop
    vertex 11.403986240066677 851.43594406013 15.950237518924007
    vertex 15.68970052578097 855.4359440601291 15.950237518924007
    vertex 15.68970052578097 851.43594406013 15.950237518924007
  endloop
endfacet
facet normal 0.8191520442889623 0.5735764363510885 -1.5958476607549128e-15
  outer loop
    vertex 17.496843382923817 857.4788217045136 11.650237518924014
    vertex 17.876970401845973 856.9359440601312 13.950237518924013
    vertex 17.876970401845973 856.9359440601312 12.030364537846172
  endloop
endfacet
facet normal 0.8191520442889623 0.5735764363510885 -1.5958476607549128e-15
  outer loop
    vertex 17.876970401845973 856.9359440601312 13.950237518924013
    vertex 17.496843382923817 857.4788217045136 11.650237518924014
    vertex 17.37706559851868 857.6498821085637 13.950237518924013
  endloop
endfacet
facet normal 0.8191520442889623 0.5735764363510885 -1.5958476607549128e-15
  outer loop
    vertex 17.37706559851868 857.6498821085637 13.950237518924013
    vertex 17.496843382923817 857.4788217045136 11.650237518924014
    vertex 17.37706559851868 857.6498821085637 11.650237518924014
  endloop
endfacet
facet normal 0.9961946980917449 0.08715574274766721 0.0
  outer loop
    vertex 18.470882147984813 855.3041849484657 12.450237518924013
    vertex 18.546843382923775 854.4359440601312 13.950237518924013
    vertex 18.546843382923775 854.4359440601312 12.450237518924013
  endloop
endfacet
facet normal 0.9961946980917449 0.08715574274766721 0.0
  outer loop
    vertex 18.546843382923775 854.4359440601312 13.950237518924013
    vertex 18.470882147984813 855.3041849484657 12.450237518924013
    vertex 18.470882147984813 855.3041849484657 13.950237518924013
  endloop
endfacet
facet normal 0.9659258262890811 0.25881904510247294 0.0
  outer loop
    vertex 18.296843382923818 855.9537064621601 12.450237518924013
    vertex 18.470882147984813 855.3041849484657 13.950237518924013
    vertex 18.470882147984813 855.3041849484657 12.450237518924013
  endloop
endfacet
facet normal 0.9659258262890811 0.25881904510247294 0.0
  outer loop
    vertex 18.470882147984813 855.3041849484657 13.950237518924013
    vertex 18.296843382923818 855.9537064621601 12.450237518924013
    vertex 18.245306486853323 856.1460447767596 13.950237518924013
  endloop
endfacet
facet normal 0.9659258262890811 0.25881904510247294 0.0
  outer loop
    vertex 18.245306486853323 856.1460447767596 13.950237518924013
    vertex 18.296843382923818 855.9537064621601 12.450237518924013
    vertex 18.245306486853323 856.1460447767596 12.398700622853518
  endloop
endfacet
facet normal 6.832462175914351e-18 -0.9615239476408527 0.27472112789727465
  outer loop
    vertex 15.046843382923814 849.93594406013 17.45023751892401
    vertex 10.546843382923823 848.9359440601304 13.950237518924013
    vertex 16.546843382923825 848.9359440601304 13.950237518924013
  endloop
endfacet
facet normal 6.832462175914351e-18 -0.9615239476408527 0.27472112789727465
  outer loop
    vertex 10.546843382923823 848.9359440601304 13.950237518924013
    vertex 15.046843382923814 849.93594406013 17.45023751892401
    vertex 12.04684338292382 849.93594406013 17.45023751892401
  endloop
endfacet
facet normal 0.9191450300180571 3.356374414378604e-17 0.3939192985791696
  outer loop
    vertex 16.546843382923825 851.4359440601303 13.950237518924013
    vertex 15.046843382923814 849.93594406013 17.45023751892401
    vertex 16.546843382923825 848.9359440601304 13.950237518924013
  endloop
endfacet
facet normal 0.9191450300180571 3.356374414378604e-17 0.3939192985791696
  outer loop
    vertex 15.046843382923814 849.93594406013 17.45023751892401
    vertex 16.546843382923825 851.4359440601303 13.950237518924013
    vertex 15.68970052578097 851.43594406013 15.950237518924007
  endloop
endfacet
facet normal 0.9191450300180571 3.356374414378604e-17 0.3939192985791696
  outer loop
    vertex 16.546843382923825 857.9359440601283 13.95023751892401
    vertex 15.68970052578097 855.4359440601291 15.950237518924007
    vertex 16.546843382923825 855.4359440601288 13.95023751892401
  endloop
endfacet
facet normal 0.9191450300180571 3.356374414378604e-17 0.3939192985791696
  outer loop
    vertex 15.68970052578097 855.4359440601291 15.950237518924007
    vertex 16.546843382923825 857.9359440601283 13.95023751892401
    vertex 15.046843382923814 856.9359440601286 17.45023751892401
  endloop
endfacet
facet normal 0.9191450300180571 3.356374414378604e-17 0.3939192985791696
  outer loop
    vertex 15.68970052578097 851.43594406013 15.950237518924007
    vertex 15.046843382923814 856.9359440601286 17.45023751892401
    vertex 15.046843382923814 849.93594406013 17.45023751892401
  endloop
endfacet
facet normal 0.9191450300180571 3.356374414378604e-17 0.3939192985791696
  outer loop
    vertex 15.046843382923814 856.9359440601286 17.45023751892401
    vertex 15.68970052578097 851.43594406013 15.950237518924007
    vertex 15.68970052578097 855.4359440601291 15.950237518924007
  endloop
endfacet
facet normal 0.9063077870366328 -0.4226182617407362 0.0
  outer loop
    vertex 18.245306486853266 843.7258433435021 12.398700622853495
    vertex 17.876970401845917 842.9359440601305 13.950237518924013
    vertex 17.876970401845917 842.9359440601305 12.030364537846149
  endloop
endfacet
facet normal 0.9063077870366328 -0.4226182617407362 0.0
  outer loop
    vertex 17.876970401845917 842.9359440601305 13.950237518924013
    vertex 18.245306486853266 843.7258433435021 12.398700622853495
    vertex 18.245306486853266 843.7258433435021 13.950237518924013
  endloop
endfacet
facet normal 0.8191520442889643 -0.5735764363510854 9.6604824948709e-16
  outer loop
    vertex 17.49684338292378 842.3930664157481 11.650237518924014
    vertex 17.377065598518623 842.2220060116979 13.950237518924013
    vertex 17.377065598518623 842.2220060116979 11.650237518924014
  endloop
endfacet
facet normal 0.8191520442889643 -0.5735764363510854 9.6604824948709e-16
  outer loop
    vertex 17.377065598518623 842.2220060116979 13.950237518924013
    vertex 17.49684338292378 842.3930664157481 11.650237518924014
    vertex 17.876970401845917 842.9359440601305 13.950237518924013
  endloop
endfacet
facet normal 0.8191520442889643 -0.5735764363510854 9.6604824948709e-16
  outer loop
    vertex 17.876970401845917 842.9359440601305 13.950237518924013
    vertex 17.49684338292378 842.3930664157481 11.650237518924014
    vertex 17.876970401845917 842.9359440601305 12.030364537846149
  endloop
endfacet
facet normal 0.0 1.0071308866244522e-16 1.0
  outer loop
    vertex 15.046843382923814 849.93594406013 17.45023751892401
    vertex 12.04684338292382 856.9359440601286 17.45023751892401
    vertex 12.04684338292382 849.93594406013 17.45023751892401
  endloop
endfacet
facet normal 0.0 1.0071308866244522e-16 1.0
  outer loop
    vertex 12.04684338292382 856.9359440601286 17.45023751892401
    vertex 15.046843382923814 849.93594406013 17.45023751892401
    vertex 15.046843382923814 856.9359440601286 17.45023751892401
  endloop
endfacet
facet normal 6.832462176002207e-18 0.9615239476408396 0.27472112789732056
  outer loop
    vertex 12.04684338292382 856.9359440601286 17.45023751892401
    vertex 16.546843382923825 857.9359440601283 13.95023751892401
    vertex 10.546843382923823 857.9359440601283 13.95023751892401
  endloop
endfacet
facet normal 6.832462176002207e-18 0.9615239476408396 0.27472112789732056
  outer loop
    vertex 16.546843382923825 857.9359440601283 13.95023751892401
    vertex 12.04684338292382 856.9359440601286 17.45023751892401
    vertex 15.046843382923814 856.9359440601286 17.45023751892401
  endloop
endfacet
facet normal -1.8576054362177953e-30 -1.0 1.8047785488306577e-13
  outer loop
    vertex 15.68970052578097 855.4359440601291 15.950237518924007
    vertex 10.546843382923823 855.4359440601288 13.95023751892401
    vertex 16.546843382923825 855.4359440601288 13.95023751892401
  endloop
endfacet
facet normal -1.8576054362177953e-30 -1.0 1.8047785488306577e-13
  outer loop
    vertex 10.546843382923823 855.4359440601288 13.95023751892401
    vertex 15.68970052578097 855.4359440601291 15.950237518924007
    vertex 11.403986240066677 855.4359440601291 15.950237518924007
  endloop
endfacet
facet normal -0.08715574274765933 0.9961946980917455 1.6465551189090335e-18
  outer loop
    vertex 12.678602494589187 859.3599828251921 13.950237518924013
    vertex 13.546843382923829 859.4359440601311 11.650237518924014
    vertex 12.678602494589187 859.3599828251921 11.650237518924014
  endloop
endfacet
facet normal -0.08715574274765933 0.9961946980917455 1.6465551189090335e-18
  outer loop
    vertex 13.546843382923829 859.4359440601311 11.650237518924014
    vertex 12.678602494589187 859.3599828251921 13.950237518924013
    vertex 13.546843382923829 859.4359440601311 13.950237518924013
  endloop
endfacet
facet normal -0.2588190451025062 0.9659258262890722 0.0
  outer loop
    vertex 11.836742666295505 859.1344071640607 13.950237518924013
    vertex 12.678602494589187 859.3599828251921 11.650237518924014
    vertex 11.836742666295505 859.1344071640607 11.650237518924014
  endloop
endfacet
facet normal -0.2588190451025062 0.9659258262890722 0.0
  outer loop
    vertex 12.678602494589187 859.3599828251921 11.650237518924014
    vertex 11.836742666295505 859.1344071640607 13.950237518924013
    vertex 12.678602494589187 859.3599828251921 13.950237518924013
  endloop
endfacet
facet normal -0.4226182617407334 0.9063077870366341 0.0
  outer loop
    vertex 11.046843382923857 858.7660710790533 13.950237518924013
    vertex 11.836742666295505 859.1344071640607 11.650237518924014
    vertex 11.046843382923857 858.7660710790533 11.650237518924014
  endloop
endfacet
facet normal -0.4226182617407334 0.9063077870366341 0.0
  outer loop
    vertex 11.836742666295505 859.1344071640607 11.650237518924014
    vertex 11.046843382923857 858.7660710790533 13.950237518924013
    vertex 11.836742666295505 859.1344071640607 13.950237518924013
  endloop
endfacet
facet normal -0.5735764363510961 0.8191520442889568 0.0
  outer loop
    vertex 10.332905334491167 858.2661662757259 13.950237518924013
    vertex 11.046843382923857 858.7660710790533 11.650237518924014
    vertex 10.332905334491167 858.2661662757259 11.650237518924014
  endloop
endfacet
facet normal -0.5735764363510961 0.8191520442889568 0.0
  outer loop
    vertex 11.046843382923857 858.7660710790533 11.650237518924014
    vertex 10.332905334491167 858.2661662757259 13.950237518924013
    vertex 11.046843382923857 858.7660710790533 13.950237518924013
  endloop
endfacet
facet normal -0.7071067811865411 0.707106781186554 0.0
  outer loop
    vertex 9.716621167328979 857.6498821085637 13.950237518924013
    vertex 10.332905334491167 858.2661662757259 11.650237518924014
    vertex 9.716621167328979 857.6498821085637 11.650237518924014
  endloop
endfacet
facet normal -0.7071067811865411 0.707106781186554 0.0
  outer loop
    vertex 10.332905334491167 858.2661662757259 11.650237518924014
    vertex 9.716621167328979 857.6498821085637 13.950237518924013
    vertex 10.332905334491167 858.2661662757259 13.950237518924013
  endloop
endfacet
facet normal -0.8191520442889643 0.5735764363510857 8.139356798164708e-16
  outer loop
    vertex 9.716621167328979 857.6498821085637 13.950237518924013
    vertex 9.216716364001684 856.9359440601312 12.030364537846152
    vertex 9.216716364001684 856.9359440601312 13.950237518924013
  endloop
endfacet
facet normal -0.8191520442889643 0.5735764363510857 8.139356798164708e-16
  outer loop
    vertex 9.216716364001684 856.9359440601312 12.030364537846152
    vertex 9.716621167328979 857.6498821085637 13.950237518924013
    vertex 9.59684338292382 857.4788217045136 11.650237518924014
  endloop
endfacet
facet normal -0.8191520442889643 0.5735764363510857 8.139356798164708e-16
  outer loop
    vertex 9.59684338292382 857.4788217045136 11.650237518924014
    vertex 9.716621167328979 857.6498821085637 13.950237518924013
    vertex 9.716621167328979 857.6498821085637 11.650237518924014
  endloop
endfacet
facet normal -0.9063077870366328 0.4226182617407362 0.0
  outer loop
    vertex 9.216716364001684 856.9359440601312 13.950237518924013
    vertex 8.848380278994338 856.1460447767596 12.398700622853495
    vertex 8.848380278994338 856.1460447767596 13.950237518924013
  endloop
endfacet
facet normal -0.9063077870366328 0.4226182617407362 0.0
  outer loop
    vertex 8.848380278994338 856.1460447767596 12.398700622853495
    vertex 9.216716364001684 856.9359440601312 13.950237518924013
    vertex 9.216716364001684 856.9359440601312 12.030364537846152
  endloop
endfacet
facet normal 0.7071067811865437 -2.2642249525094654e-15 -0.7071067811865513
  outer loop
    vertex 17.496843382923817 857.4788217045136 11.650237518924014
    vertex 17.876970401845917 842.9359440601305 12.030364537846149
    vertex 17.49684338292378 842.3930664157481 11.650237518924014
  endloop
endfacet
facet normal 0.7071067811865437 -2.2642249525094654e-15 -0.7071067811865513
  outer loop
    vertex 17.876970401845917 842.9359440601305 12.030364537846149
    vertex 17.496843382923817 857.4788217045136 11.650237518924014
    vertex 17.876970401845973 856.9359440601312 12.030364537846172
  endloop
endfacet
facet normal 0.7071067811865437 -2.2642249525094654e-15 -0.7071067811865513
  outer loop
    vertex 17.876970401845917 842.9359440601305 12.030364537846149
    vertex 17.876970401845973 856.9359440601312 12.030364537846172
    vertex 18.245306486853266 843.7258433435021 12.398700622853495
  endloop
endfacet
facet normal 0.7071067811865437 -2.2642249525094654e-15 -0.7071067811865513
  outer loop
    vertex 18.245306486853266 843.7258433435021 12.398700622853495
    vertex 17.876970401845973 856.9359440601312 12.030364537846172
    vertex 18.110416764219174 856.435316720454 12.263810900219317
  endloop
endfacet
facet normal 0.7071067811865437 -2.2642249525094654e-15 -0.7071067811865513
  outer loop
    vertex 18.245306486853266 843.7258433435021 12.398700622853495
    vertex 18.110416764219174 856.435316720454 12.263810900219317
    vertex 18.245306486853323 856.1460447767596 12.398700622853518
  endloop
endfacet
facet normal 0.7071067811865437 -2.2642249525094654e-15 -0.7071067811865513
  outer loop
    vertex 18.245306486853266 843.7258433435021 12.398700622853495
    vertex 18.245306486853323 856.1460447767596 12.398700622853518
    vertex 18.296843382923782 843.9181816581017 12.450237518924013
  endloop
endfacet
facet normal 0.7071067811865437 -2.2642249525094654e-15 -0.7071067811865513
  outer loop
    vertex 18.296843382923782 843.9181816581017 12.450237518924013
    vertex 18.245306486853323 856.1460447767596 12.398700622853518
    vertex 18.296843382923818 855.9537064621601 12.450237518924013
  endloop
endfacet
facet normal 0.0 0.0 -1.0
  outer loop
    vertex 18.296843382923818 855.9537064621601 12.450237518924013
    vertex 18.47088214798476 844.567703171796 12.450237518924013
    vertex 18.296843382923782 843.9181816581017 12.450237518924013
  endloop
endfacet
facet normal 0.0 0.0 -1.0
  outer loop
    vertex 18.47088214798476 844.567703171796 12.450237518924013
    vertex 18.296843382923818 855.9537064621601 12.450237518924013
    vertex 18.470882147984813 855.3041849484657 12.450237518924013
  endloop
endfacet
facet normal 0.0 0.0 -1.0
  outer loop
    vertex 18.47088214798476 844.567703171796 12.450237518924013
    vertex 18.470882147984813 855.3041849484657 12.450237518924013
    vertex 18.546843382923832 845.4359440601305 12.450237518924013
  endloop
endfacet
facet normal 0.0 0.0 -1.0
  outer loop
    vertex 18.546843382923832 845.4359440601305 12.450237518924013
    vertex 18.470882147984813 855.3041849484657 12.450237518924013
    vertex 18.546843382923775 854.4359440601312 12.450237518924013
  endloop
endfacet
facet normal 0.7071067811865411 -0.707106781186554 0.0
  outer loop
    vertex 17.377065598518623 842.2220060116979 13.950237518924013
    vertex 16.760781431356435 841.6057218445358 11.650237518924014
    vertex 17.377065598518623 842.2220060116979 11.650237518924014
  endloop
endfacet
facet normal 0.7071067811865411 -0.707106781186554 0.0
  outer loop
    vertex 16.760781431356435 841.6057218445358 11.650237518924014
    vertex 17.377065598518623 842.2220060116979 13.950237518924013
    vertex 16.760781431356435 841.6057218445358 13.950237518924013
  endloop
endfacet
facet normal 0.5735764363510961 -0.8191520442889568 0.0
  outer loop
    vertex 16.760781431356435 841.6057218445358 13.950237518924013
    vertex 16.046843382923747 841.1058170412084 11.650237518924014
    vertex 16.760781431356435 841.6057218445358 11.650237518924014
  endloop
endfacet
facet normal 0.5735764363510961 -0.8191520442889568 0.0
  outer loop
    vertex 16.046843382923747 841.1058170412084 11.650237518924014
    vertex 16.760781431356435 841.6057218445358 13.950237518924013
    vertex 16.046843382923747 841.1058170412084 13.950237518924013
  endloop
endfacet
facet normal 0.4226182617407334 -0.9063077870366341 0.0
  outer loop
    vertex 16.046843382923747 841.1058170412084 13.950237518924013
    vertex 15.256944099552097 840.737480956201 11.650237518924014
    vertex 16.046843382923747 841.1058170412084 11.650237518924014
  endloop
endfacet
facet normal 0.4226182617407334 -0.9063077870366341 0.0
  outer loop
    vertex 15.256944099552097 840.737480956201 11.650237518924014
    vertex 16.046843382923747 841.1058170412084 13.950237518924013
    vertex 15.256944099552097 840.737480956201 13.950237518924013
  endloop
endfacet
facet normal 0.2588190451025062 -0.9659258262890722 0.0
  outer loop
    vertex 15.256944099552097 840.737480956201 13.950237518924013
    vertex 14.415084271258415 840.5119052950695 11.650237518924014
    vertex 15.256944099552097 840.737480956201 11.650237518924014
  endloop
endfacet
facet normal 0.2588190451025062 -0.9659258262890722 0.0
  outer loop
    vertex 14.415084271258415 840.5119052950695 11.650237518924014
    vertex 15.256944099552097 840.737480956201 13.950237518924013
    vertex 14.415084271258415 840.5119052950695 13.950237518924013
  endloop
endfacet
facet normal 0.08715574274765935 -0.9961946980917455 1.6465551189090335e-18
  outer loop
    vertex 14.415084271258415 840.5119052950695 13.950237518924013
    vertex 13.546843382923774 840.4359440601305 11.650237518924014
    vertex 14.415084271258415 840.5119052950695 11.650237518924014
  endloop
endfacet
facet normal 0.08715574274765935 -0.9961946980917455 1.6465551189090335e-18
  outer loop
    vertex 13.546843382923774 840.4359440601305 11.650237518924014
    vertex 14.415084271258415 840.5119052950695 13.950237518924013
    vertex 13.546843382923774 840.4359440601305 13.950237518924013
  endloop
endfacet
facet normal -0.08715574274765935 -0.9961946980917455 -1.6465551189090335e-18
  outer loop
    vertex 13.546843382923774 840.4359440601305 13.950237518924013
    vertex 12.67860249458913 840.5119052950695 11.650237518924014
    vertex 13.546843382923774 840.4359440601305 11.650237518924014
  endloop
endfacet
facet normal -0.08715574274765935 -0.9961946980917455 -1.6465551189090335e-18
  outer loop
    vertex 12.67860249458913 840.5119052950695 11.650237518924014
    vertex 13.546843382923774 840.4359440601305 13.950237518924013
    vertex 12.67860249458913 840.5119052950695 13.950237518924013
  endloop
endfacet
facet normal -0.2588190451025062 -0.9659258262890722 -0.0
  outer loop
    vertex 12.67860249458913 840.5119052950695 13.950237518924013
    vertex 11.836742666295448 840.737480956201 11.650237518924014
    vertex 12.67860249458913 840.5119052950695 11.650237518924014
  endloop
endfacet
facet normal -0.2588190451025062 -0.9659258262890722 -0.0
  outer loop
    vertex 11.836742666295448 840.737480956201 11.650237518924014
    vertex 12.67860249458913 840.5119052950695 13.950237518924013
    vertex 11.836742666295448 840.737480956201 13.950237518924013
  endloop
endfacet
facet normal -0.4226182617407334 -0.9063077870366341 -0.0
  outer loop
    vertex 11.836742666295448 840.737480956201 13.950237518924013
    vertex 11.0468433829238 841.1058170412084 11.650237518924014
    vertex 11.836742666295448 840.737480956201 11.650237518924014
  endloop
endfacet
facet normal -0.4226182617407334 -0.9063077870366341 -0.0
  outer loop
    vertex 11.0468433829238 841.1058170412084 11.650237518924014
    vertex 11.836742666295448 840.737480956201 13.950237518924013
    vertex 11.0468433829238 841.1058170412084 13.950237518924013
  endloop
endfacet
facet normal -0.5735764363510961 -0.8191520442889568 -0.0
  outer loop
    vertex 11.0468433829238 841.1058170412084 13.950237518924013
    vertex 10.33290533449111 841.6057218445358 11.650237518924014
    vertex 11.0468433829238 841.1058170412084 11.650237518924014
  endloop
endfacet
facet normal -0.5735764363510961 -0.8191520442889568 -0.0
  outer loop
    vertex 10.33290533449111 841.6057218445358 11.650237518924014
    vertex 11.0468433829238 841.1058170412084 13.950237518924013
    vertex 10.33290533449111 841.6057218445358 13.950237518924013
  endloop
endfacet
facet normal -0.7071067811865411 -0.707106781186554 -0.0
  outer loop
    vertex 10.33290533449111 841.6057218445358 13.950237518924013
    vertex 9.716621167328922 842.2220060116979 11.650237518924014
    vertex 10.33290533449111 841.6057218445358 11.650237518924014
  endloop
endfacet
facet normal -0.7071067811865411 -0.707106781186554 -0.0
  outer loop
    vertex 9.716621167328922 842.2220060116979 11.650237518924014
    vertex 10.33290533449111 841.6057218445358 13.950237518924013
    vertex 9.716621167328922 842.2220060116979 13.950237518924013
  endloop
endfacet
facet normal -0.8191520442889618 -0.5735764363510888 -1.3139398561768632e-15
  outer loop
    vertex 9.216716364001627 842.9359440601305 13.950237518924013
    vertex 9.716621167328922 842.2220060116979 11.650237518924014
    vertex 9.716621167328922 842.2220060116979 13.950237518924013
  endloop
endfacet
facet normal -0.8191520442889618 -0.5735764363510888 -1.3139398561768632e-15
  outer loop
    vertex 9.716621167328922 842.2220060116979 11.650237518924014
    vertex 9.216716364001627 842.9359440601305 13.950237518924013
    vertex 9.596843382923785 842.3930664157481 11.650237518924014
  endloop
endfacet
facet normal -0.8191520442889618 -0.5735764363510888 -1.3139398561768632e-15
  outer loop
    vertex 9.596843382923785 842.3930664157481 11.650237518924014
    vertex 9.216716364001627 842.9359440601305 13.950237518924013
    vertex 9.216716364001627 842.9359440601305 12.030364537846172
  endloop
endfacet
facet normal -0.9659258262890811 0.25881904510247294 0.0
  outer loop
    vertex 8.848380278994338 856.1460447767596 13.950237518924013
    vertex 8.622804617862844 855.3041849484657 12.450237518924013
    vertex 8.622804617862844 855.3041849484657 13.950237518924013
  endloop
endfacet
facet normal -0.9659258262890811 0.25881904510247294 0.0
  outer loop
    vertex 8.622804617862844 855.3041849484657 12.450237518924013
    vertex 8.848380278994338 856.1460447767596 13.950237518924013
    vertex 8.796843382923822 855.9537064621599 12.450237518924013
  endloop
endfacet
facet normal -0.9659258262890811 0.25881904510247294 0.0
  outer loop
    vertex 8.796843382923822 855.9537064621599 12.450237518924013
    vertex 8.848380278994338 856.1460447767596 13.950237518924013
    vertex 8.848380278994338 856.1460447767596 12.398700622853495
  endloop
endfacet
facet normal -0.9961946980917449 0.08715574274766721 0.0
  outer loop
    vertex 8.622804617862844 855.3041849484657 13.950237518924013
    vertex 8.546843382923884 854.4359440601312 12.450237518924013
    vertex 8.546843382923884 854.4359440601312 13.950237518924013
  endloop
endfacet
facet normal -0.9961946980917449 0.08715574274766721 0.0
  outer loop
    vertex 8.546843382923884 854.4359440601312 12.450237518924013
    vertex 8.622804617862844 855.3041849484657 13.950237518924013
    vertex 8.622804617862844 855.3041849484657 12.450237518924013
  endloop
endfacet
facet normal -0.9191450300180581 2.8120974823210976e-17 0.39391929857916735
  outer loop
    vertex 12.04684338292382 849.93594406013 17.45023751892401
    vertex 10.546843382923823 851.4359440601303 13.950237518924013
    vertex 10.546843382923823 848.9359440601304 13.950237518924013
  endloop
endfacet
facet normal -0.9191450300180581 2.8120974823210976e-17 0.39391929857916735
  outer loop
    vertex 10.546843382923823 851.4359440601303 13.950237518924013
    vertex 12.04684338292382 849.93594406013 17.45023751892401
    vertex 11.403986240066677 851.43594406013 15.950237518924007
  endloop
endfacet
facet normal -0.9191450300180581 2.8120974823210976e-17 0.39391929857916735
  outer loop
    vertex 12.04684338292382 856.9359440601286 17.45023751892401
    vertex 11.403986240066677 851.43594406013 15.950237518924007
    vertex 12.04684338292382 849.93594406013 17.45023751892401
  endloop
endfacet
facet normal -0.9191450300180581 2.8120974823210976e-17 0.39391929857916735
  outer loop
    vertex 11.403986240066677 851.43594406013 15.950237518924007
    vertex 12.04684338292382 856.9359440601286 17.45023751892401
    vertex 11.403986240066677 855.4359440601291 15.950237518924007
  endloop
endfacet
facet normal -0.9191450300180581 2.8120974823210976e-17 0.39391929857916735
  outer loop
    vertex 11.403986240066677 855.4359440601291 15.950237518924007
    vertex 10.546843382923823 857.9359440601283 13.95023751892401
    vertex 10.546843382923823 855.4359440601288 13.95023751892401
  endloop
endfacet
facet normal -0.9191450300180581 2.8120974823210976e-17 0.39391929857916735
  outer loop
    vertex 10.546843382923823 857.9359440601283 13.95023751892401
    vertex 11.403986240066677 855.4359440601291 15.950237518924007
    vertex 12.04684338292382 856.9359440601286 17.45023751892401
  endloop
endfacet
facet normal 0.0 0.0 1.0
  outer loop
    vertex 11.836742666295448 840.737480956201 13.950237518924013
    vertex 11.872670202803075 845.1407421580967 13.950237518924013
    vertex 11.84684338292383 845.4359440601305 13.950237518924013
  endloop
endfacet
facet normal 0.0 0.0 1.0
  outer loop
    vertex 11.872670202803075 845.1407421580967 13.950237518924013
    vertex 11.836742666295448 840.737480956201 13.950237518924013
    vertex 12.67860249458913 840.5119052950695 13.950237518924013
  endloop
endfacet
facet normal 0.0 0.0 1.0
  outer loop
    vertex 11.872670202803075 845.1407421580967 13.950237518924013
    vertex 12.67860249458913 840.5119052950695 13.950237518924013
    vertex 11.949365927587783 844.8545098164768 13.950237518924013
  endloop
endfacet
facet normal 0.0 0.0 1.0
  outer loop
    vertex 11.949365927587783 844.8545098164768 13.950237518924013
    vertex 12.67860249458913 840.5119052950695 13.950237518924013
    vertex 12.074600196490282 844.5859440601305 13.950237518924013
  endloop
endfacet
facet normal 0.0 0.0 1.0
  outer loop
    vertex 12.074600196490282 844.5859440601305 13.950237518924013
    vertex 12.67860249458913 840.5119052950695 13.950237518924013
    vertex 12.244567829621564 844.3432051236634 13.950237518924013
  endloop
endfacet
facet normal 0.0 0.0 1.0
  outer loop
    vertex 12.244567829621564 844.3432051236634 13.950237518924013
    vertex 12.67860249458913 840.5119052950695 13.950237518924013
    vertex 12.454104446456709 844.1336685068283 13.950237518924013
  endloop
endfacet
facet normal 0.0 0.0 1.0
  outer loop
    vertex 12.454104446456709 844.1336685068283 13.950237518924013
    vertex 12.67860249458913 840.5119052950695 13.950237518924013
    vertex 12.696843382923827 843.963700873697 13.950237518924013
  endloop
endfacet
facet normal 0.0 0.0 1.0
  outer loop
    vertex 12.696843382923827 843.963700873697 13.950237518924013
    vertex 12.67860249458913 840.5119052950695 13.950237518924013
    vertex 13.546843382923774 840.4359440601305 13.950237518924013
  endloop
endfacet
facet normal 0.0 0.0 1.0
  outer loop
    vertex 12.696843382923827 843.963700873697 13.950237518924013
    vertex 13.546843382923774 840.4359440601305 13.950237518924013
    vertex 12.96540913927019 843.8384666047946 13.950237518924013
  endloop
endfacet
facet normal 0.0 0.0 1.0
  outer loop
    vertex 12.96540913927019 843.8384666047946 13.950237518924013
    vertex 13.546843382923774 840.4359440601305 13.950237518924013
    vertex 13.251641480890044 843.7617708800097 13.950237518924013
  endloop
endfacet
facet normal 0.0 0.0 1.0
  outer loop
    vertex 13.251641480890044 843.7617708800097 13.950237518924013
    vertex 13.546843382923774 840.4359440601305 13.950237518924013
    vertex 13.546843382923823 843.7359440601306 13.950237518924013
  endloop
endfacet
facet normal 0.0 0.0 1.0
  outer loop
    vertex 13.546843382923823 843.7359440601306 13.950237518924013
    vertex 13.546843382923774 840.4359440601305 13.950237518924013
    vertex 14.415084271258415 840.5119052950695 13.950237518924013
  endloop
endfacet
facet normal 0.0 0.0 1.0
  outer loop
    vertex 13.546843382923823 843.7359440601306 13.950237518924013
    vertex 14.415084271258415 840.5119052950695 13.950237518924013
    vertex 13.842045284957607 843.7617708800097 13.950237518924013
  endloop
endfacet
facet normal 0.0 0.0 1.0
  outer loop
    vertex 13.842045284957607 843.7617708800097 13.950237518924013
    vertex 14.415084271258415 840.5119052950695 13.950237518924013
    vertex 14.12827762657746 843.8384666047946 13.950237518924013
  endloop
endfacet
facet normal 0.0 0.0 1.0
  outer loop
    vertex 14.12827762657746 843.8384666047946 13.950237518924013
    vertex 14.415084271258415 840.5119052950695 13.950237518924013
    vertex 14.396843382923825 843.963700873697 13.950237518924013
  endloop
endfacet
facet normal 0.0 0.0 1.0
  outer loop
    vertex 14.396843382923825 843.963700873697 13.950237518924013
    vertex 14.415084271258415 840.5119052950695 13.950237518924013
    vertex 14.639582319390941 844.1336685068283 13.950237518924013
  endloop
endfacet
facet normal 0.0 0.0 1.0
  outer loop
    vertex 14.639582319390941 844.1336685068283 13.950237518924013
    vertex 14.415084271258415 840.5119052950695 13.950237518924013
    vertex 15.256944099552097 840.737480956201 13.950237518924013
  endloop
endfacet
facet normal 0.0 0.0 1.0
  outer loop
    vertex 14.639582319390941 844.1336685068283 13.950237518924013
    vertex 15.256944099552097 840.737480956201 13.950237518924013
    vertex 14.849118936226086 844.3432051236634 13.950237518924013
  endloop
endfacet
facet normal 0.0 0.0 1.0
  outer loop
    vertex 14.849118936226086 844.3432051236634 13.950237518924013
    vertex 15.256944099552097 840.737480956201 13.950237518924013
    vertex 15.01908656935737 844.5859440601305 13.950237518924013
  endloop
endfacet
facet normal 0.0 0.0 1.0
  outer loop
    vertex 15.01908656935737 844.5859440601305 13.950237518924013
    vertex 15.256944099552097 840.737480956201 13.950237518924013
    vertex 15.144320838259873 844.8545098164768 13.950237518924013
  endloop
endfacet
facet normal 0.0 0.0 1.0
  outer loop
    vertex 15.144320838259873 844.8545098164768 13.950237518924013
    vertex 15.256944099552097 840.737480956201 13.950237518924013
    vertex 15.22101656304458 845.1407421580967 13.950237518924013
  endloop
endfacet
facet normal 0.0 0.0 1.0
  outer loop
    vertex 15.22101656304458 845.1407421580967 13.950237518924013
    vertex 15.256944099552097 840.737480956201 13.950237518924013
    vertex 15.24684338292383 845.4359440601305 13.950237518924013
  endloop
endfacet
facet normal 0.0 0.0 1.0
  outer loop
    vertex 8.622804617862787 844.567703171796 13.950237518924013
    vertex 8.546843382923884 854.4359440601312 13.950237518924013
    vertex 8.546843382923827 845.4359440601305 13.950237518924013
  endloop
endfacet
facet normal 0.0 0.0 1.0
  outer loop
    vertex 8.546843382923884 854.4359440601312 13.950237518924013
    vertex 8.622804617862787 844.567703171796 13.950237518924013
    vertex 8.622804617862844 855.3041849484657 13.950237518924013
  endloop
endfacet
facet normal 0.0 0.0 1.0
  outer loop
    vertex 8.622804617862844 855.3041849484657 13.950237518924013
    vertex 8.622804617862787 844.567703171796 13.950237518924013
    vertex 8.84838027899428 843.7258433435021 13.950237518924013
  endloop
endfacet
facet normal 0.0 0.0 1.0
  outer loop
    vertex 8.622804617862844 855.3041849484657 13.950237518924013
    vertex 8.84838027899428 843.7258433435021 13.950237518924013
    vertex 8.848380278994338 856.1460447767596 13.950237518924013
  endloop
endfacet
facet normal 0.0 0.0 1.0
  outer loop
    vertex 8.848380278994338 856.1460447767596 13.950237518924013
    vertex 8.84838027899428 843.7258433435021 13.950237518924013
    vertex 9.216716364001627 842.9359440601305 13.950237518924013
  endloop
endfacet
facet normal 0.0 0.0 1.0
  outer loop
    vertex 8.848380278994338 856.1460447767596 13.950237518924013
    vertex 9.216716364001627 842.9359440601305 13.950237518924013
    vertex 9.216716364001684 856.9359440601312 13.950237518924013
  endloop
endfacet
facet normal 0.0 0.0 1.0
  outer loop
    vertex 9.216716364001684 856.9359440601312 13.950237518924013
    vertex 9.216716364001627 842.9359440601305 13.950237518924013
    vertex 9.716621167328922 842.2220060116979 13.950237518924013
  endloop
endfacet
facet normal 0.0 0.0 1.0
  outer loop
    vertex 9.216716364001684 856.9359440601312 13.950237518924013
    vertex 9.716621167328922 842.2220060116979 13.950237518924013
    vertex 9.716621167328979 857.6498821085637 13.950237518924013
  endloop
endfacet
facet normal 0.0 0.0 1.0
  outer loop
    vertex 9.716621167328979 857.6498821085637 13.950237518924013
    vertex 9.716621167328922 842.2220060116979 13.950237518924013
    vertex 10.33290533449111 841.6057218445358 13.950237518924013
  endloop
endfacet
facet normal 0.0 0.0 1.0
  outer loop
    vertex 9.716621167328979 857.6498821085637 13.950237518924013
    vertex 10.33290533449111 841.6057218445358 13.950237518924013
    vertex 10.332905334491167 858.2661662757259 13.950237518924013
  endloop
endfacet
facet normal 0.0 0.0 1.0
  outer loop
    vertex 10.332905334491167 858.2661662757259 13.950237518924013
    vertex 10.33290533449111 841.6057218445358 13.950237518924013
    vertex 10.546843382923823 848.9359440601304 13.950237518924013
  endloop
endfacet
facet normal 0.0 0.0 1.0
  outer loop
    vertex 10.546843382923823 848.9359440601304 13.950237518924013
    vertex 10.33290533449111 841.6057218445358 13.950237518924013
    vertex 11.0468433829238 841.1058170412084 13.950237518924013
  endloop
endfacet
facet normal 0.0 0.0 1.0
  outer loop
    vertex 10.546843382923823 848.9359440601304 13.950237518924013
    vertex 11.0468433829238 841.1058170412084 13.950237518924013
    vertex 11.872670202803075 845.7311459621643 13.950237518924013
  endloop
endfacet
facet normal 0.0 0.0 1.0
  outer loop
    vertex 10.546843382923823 848.9359440601304 13.950237518924013
    vertex 11.872670202803075 845.7311459621643 13.950237518924013
    vertex 11.949365927587786 846.0173783037842 13.950237518924013
  endloop
endfacet
facet normal 0.0 0.0 1.0
  outer loop
    vertex 10.546843382923823 848.9359440601304 13.950237518924013
    vertex 11.949365927587786 846.0173783037842 13.950237518924013
    vertex 12.074600196490286 846.2859440601305 13.950237518924013
  endloop
endfacet
facet normal 0.0 0.0 1.0
  outer loop
    vertex 10.546843382923823 848.9359440601304 13.950237518924013
    vertex 12.074600196490286 846.2859440601305 13.950237518924013
    vertex 12.244567829621568 846.5286829965976 13.950237518924013
  endloop
endfacet
facet normal 0.0 0.0 1.0
  outer loop
    vertex 10.546843382923823 848.9359440601304 13.950237518924013
    vertex 12.244567829621568 846.5286829965976 13.950237518924013
    vertex 12.454104446456713 846.7382196134328 13.950237518924013
  endloop
endfacet
facet normal 0.0 0.0 1.0
  outer loop
    vertex 10.546843382923823 848.9359440601304 13.950237518924013
    vertex 12.454104446456713 846.7382196134328 13.950237518924013
    vertex 12.696843382923829 846.908187246564 13.950237518924013
  endloop
endfacet
facet normal 0.0 0.0 1.0
  outer loop
    vertex 10.546843382923823 848.9359440601304 13.950237518924013
    vertex 12.696843382923829 846.908187246564 13.950237518924013
    vertex 16.546843382923825 848.9359440601304 13.950237518924013
  endloop
endfacet
facet normal 0.0 0.0 1.0
  outer loop
    vertex 11.872670202803075 845.7311459621643 13.950237518924013
    vertex 11.0468433829238 841.1058170412084 13.950237518924013
    vertex 11.84684338292383 845.4359440601305 13.950237518924013
  endloop
endfacet
facet normal 0.0 0.0 1.0
  outer loop
    vertex 11.84684338292383 845.4359440601305 13.950237518924013
    vertex 11.0468433829238 841.1058170412084 13.950237518924013
    vertex 11.836742666295448 840.737480956201 13.950237518924013
  endloop
endfacet
facet normal 0.0 0.0 1.0
  outer loop
    vertex 16.546843382923825 848.9359440601304 13.950237518924013
    vertex 12.696843382923829 846.908187246564 13.950237518924013
    vertex 12.965409139270193 847.0334215154664 13.950237518924013
  endloop
endfacet
facet normal 0.0 0.0 1.0
  outer loop
    vertex 16.546843382923825 848.9359440601304 13.950237518924013
    vertex 12.965409139270193 847.0334215154664 13.950237518924013
    vertex 13.251641480890047 847.1101172402513 13.950237518924013
  endloop
endfacet
facet normal 0.0 0.0 1.0
  outer loop
    vertex 16.546843382923825 848.9359440601304 13.950237518924013
    vertex 13.251641480890047 847.1101172402513 13.950237518924013
    vertex 13.546843382923829 847.1359440601304 13.950237518924013
  endloop
endfacet
facet normal 0.0 0.0 1.0
  outer loop
    vertex 16.546843382923825 848.9359440601304 13.950237518924013
    vertex 13.546843382923829 847.1359440601304 13.950237518924013
    vertex 13.842045284957612 847.1101172402513 13.950237518924013
  endloop
endfacet
facet normal 0.0 0.0 1.0
  outer loop
    vertex 16.546843382923825 848.9359440601304 13.950237518924013
    vertex 13.842045284957612 847.1101172402513 13.950237518924013
    vertex 14.128277626577466 847.0334215154664 13.950237518924013
  endloop
endfacet
facet normal 0.0 0.0 1.0
  outer loop
    vertex 16.546843382923825 848.9359440601304 13.950237518924013
    vertex 14.128277626577466 847.0334215154664 13.950237518924013
    vertex 14.39684338292383 846.908187246564 13.950237518924013
  endloop
endfacet
facet normal 0.0 0.0 1.0
  outer loop
    vertex 16.546843382923825 848.9359440601304 13.950237518924013
    vertex 14.39684338292383 846.908187246564 13.950237518924013
    vertex 14.639582319390946 846.7382196134328 13.950237518924013
  endloop
endfacet
facet normal 0.0 0.0 1.0
  outer loop
    vertex 16.546843382923825 848.9359440601304 13.950237518924013
    vertex 14.639582319390946 846.7382196134328 13.950237518924013
    vertex 14.849118936226091 846.5286829965976 13.950237518924013
  endloop
endfacet
facet normal 0.0 0.0 1.0
  outer loop
    vertex 16.546843382923825 848.9359440601304 13.950237518924013
    vertex 14.849118936226091 846.5286829965976 13.950237518924013
    vertex 15.019086569357373 846.2859440601305 13.950237518924013
  endloop
endfacet
facet normal 0.0 0.0 1.0
  outer loop
    vertex 16.546843382923825 848.9359440601304 13.950237518924013
    vertex 15.019086569357373 846.2859440601305 13.950237518924013
    vertex 15.144320838259873 846.0173783037842 13.950237518924013
  endloop
endfacet
facet normal 0.0 0.0 1.0
  outer loop
    vertex 16.546843382923825 848.9359440601304 13.950237518924013
    vertex 15.144320838259873 846.0173783037842 13.950237518924013
    vertex 15.221016563044582 845.7311459621643 13.950237518924013
  endloop
endfacet
facet normal 0.0 0.0 1.0
  outer loop
    vertex 16.546843382923825 848.9359440601304 13.950237518924013
    vertex 15.221016563044582 845.7311459621643 13.950237518924013
    vertex 15.24684338292383 845.4359440601305 13.950237518924013
  endloop
endfacet
facet normal 0.0 0.0 1.0
  outer loop
    vertex 16.546843382923825 848.9359440601304 13.950237518924013
    vertex 15.24684338292383 845.4359440601305 13.950237518924013
    vertex 15.256944099552097 840.737480956201 13.950237518924013
  endloop
endfacet
facet normal 0.0 0.0 1.0
  outer loop
    vertex 16.546843382923825 848.9359440601304 13.950237518924013
    vertex 15.256944099552097 840.737480956201 13.950237518924013
    vertex 16.046843382923747 841.1058170412084 13.950237518924013
  endloop
endfacet
facet normal 0.0 0.0 1.0
  outer loop
    vertex 16.546843382923825 848.9359440601304 13.950237518924013
    vertex 16.046843382923747 841.1058170412084 13.950237518924013
    vertex 16.760781431356435 841.6057218445358 13.950237518924013
  endloop
endfacet
facet normal 0.0 0.0 1.0
  outer loop
    vertex 16.546843382923825 848.9359440601304 13.950237518924013
    vertex 16.760781431356435 841.6057218445358 13.950237518924013
    vertex 16.546843382923825 851.4359440601303 13.950237518924013
  endloop
endfacet
facet normal 0.0 0.0 1.0
  outer loop
    vertex 16.546843382923825 851.4359440601303 13.950237518924013
    vertex 16.760781431356435 841.6057218445358 13.950237518924013
    vertex 16.546843382923825 855.4359440601288 13.95023751892401
  endloop
endfacet
facet normal 0.0 0.0 1.0
  outer loop
    vertex 16.546843382923825 855.4359440601288 13.95023751892401
    vertex 16.760781431356435 841.6057218445358 13.950237518924013
    vertex 16.546843382923825 857.9359440601283 13.95023751892401
  endloop
endfacet
facet normal 0.0 0.0 1.0
  outer loop
    vertex 10.332905334491167 858.2661662757259 13.950237518924013
    vertex 10.546843382923823 857.9359440601283 13.95023751892401
    vertex 11.046843382923857 858.7660710790533 13.950237518924013
  endloop
endfacet
facet normal 0.0 0.0 1.0
  outer loop
    vertex 10.546843382923823 857.9359440601283 13.95023751892401
    vertex 10.332905334491167 858.2661662757259 13.950237518924013
    vertex 10.546843382923823 848.9359440601304 13.950237518924013
  endloop
endfacet
facet normal 0.0 0.0 1.0
  outer loop
    vertex 10.546843382923823 857.9359440601283 13.95023751892401
    vertex 10.546843382923823 848.9359440601304 13.950237518924013
    vertex 10.546843382923823 851.4359440601303 13.950237518924013
  endloop
endfacet
facet normal 0.0 0.0 1.0
  outer loop
    vertex 10.546843382923823 857.9359440601283 13.95023751892401
    vertex 10.546843382923823 851.4359440601303 13.950237518924013
    vertex 10.546843382923823 855.4359440601288 13.95023751892401
  endloop
endfacet
facet normal 0.0 0.0 1.0
  outer loop
    vertex 11.046843382923857 858.7660710790533 13.950237518924013
    vertex 10.546843382923823 857.9359440601283 13.95023751892401
    vertex 16.546843382923825 857.9359440601283 13.95023751892401
  endloop
endfacet
facet normal 0.0 0.0 1.0
  outer loop
    vertex 11.046843382923857 858.7660710790533 13.950237518924013
    vertex 16.546843382923825 857.9359440601283 13.95023751892401
    vertex 11.836742666295505 859.1344071640607 13.950237518924013
  endloop
endfacet
facet normal 0.0 0.0 1.0
  outer loop
    vertex 11.836742666295505 859.1344071640607 13.950237518924013
    vertex 16.546843382923825 857.9359440601283 13.95023751892401
    vertex 12.678602494589187 859.3599828251921 13.950237518924013
  endloop
endfacet
facet normal 0.0 0.0 1.0
  outer loop
    vertex 12.678602494589187 859.3599828251921 13.950237518924013
    vertex 16.546843382923825 857.9359440601283 13.95023751892401
    vertex 13.546843382923829 859.4359440601311 13.950237518924013
  endloop
endfacet
facet normal 0.0 0.0 1.0
  outer loop
    vertex 13.546843382923829 859.4359440601311 13.950237518924013
    vertex 16.546843382923825 857.9359440601283 13.95023751892401
    vertex 14.415084271258472 859.3599828251921 13.950237518924013
  endloop
endfacet
facet normal 0.0 0.0 1.0
  outer loop
    vertex 14.415084271258472 859.3599828251921 13.950237518924013
    vertex 16.546843382923825 857.9359440601283 13.95023751892401
    vertex 15.256944099552154 859.1344071640607 13.950237518924013
  endloop
endfacet
facet normal 0.0 0.0 1.0
  outer loop
    vertex 15.256944099552154 859.1344071640607 13.950237518924013
    vertex 16.546843382923825 857.9359440601283 13.95023751892401
    vertex 16.046843382923804 858.7660710790533 13.950237518924013
  endloop
endfacet
facet normal 0.0 0.0 1.0
  outer loop
    vertex 16.046843382923804 858.7660710790533 13.950237518924013
    vertex 16.546843382923825 857.9359440601283 13.95023751892401
    vertex 16.76078143135649 858.2661662757259 13.950237518924013
  endloop
endfacet
facet normal 0.0 0.0 1.0
  outer loop
    vertex 16.76078143135649 858.2661662757259 13.950237518924013
    vertex 16.546843382923825 857.9359440601283 13.95023751892401
    vertex 16.760781431356435 841.6057218445358 13.950237518924013
  endloop
endfacet
facet normal 0.0 0.0 1.0
  outer loop
    vertex 16.76078143135649 858.2661662757259 13.950237518924013
    vertex 16.760781431356435 841.6057218445358 13.950237518924013
    vertex 17.377065598518623 842.2220060116979 13.950237518924013
  endloop
endfacet
facet normal 0.0 0.0 1.0
  outer loop
    vertex 16.76078143135649 858.2661662757259 13.950237518924013
    vertex 17.377065598518623 842.2220060116979 13.950237518924013
    vertex 17.37706559851868 857.6498821085637 13.950237518924013
  endloop
endfacet
facet normal 0.0 0.0 1.0
  outer loop
    vertex 17.37706559851868 857.6498821085637 13.950237518924013
    vertex 17.377065598518623 842.2220060116979 13.950237518924013
    vertex 17.876970401845917 842.9359440601305 13.950237518924013
  endloop
endfacet
facet normal 0.0 0.0 1.0
  outer loop
    vertex 17.37706559851868 857.6498821085637 13.950237518924013
    vertex 17.876970401845917 842.9359440601305 13.950237518924013
    vertex 17.876970401845973 856.9359440601312 13.950237518924013
  endloop
endfacet
facet normal 0.0 0.0 1.0
  outer loop
    vertex 17.876970401845973 856.9359440601312 13.950237518924013
    vertex 17.876970401845917 842.9359440601305 13.950237518924013
    vertex 18.245306486853266 843.7258433435021 13.950237518924013
  endloop
endfacet
facet normal 0.0 0.0 1.0
  outer loop
    vertex 17.876970401845973 856.9359440601312 13.950237518924013
    vertex 18.245306486853266 843.7258433435021 13.950237518924013
    vertex 18.245306486853323 856.1460447767596 13.950237518924013
  endloop
endfacet
facet normal 0.0 0.0 1.0
  outer loop
    vertex 18.245306486853323 856.1460447767596 13.950237518924013
    vertex 18.245306486853266 843.7258433435021 13.950237518924013
    vertex 18.47088214798476 844.567703171796 13.950237518924013
  endloop
endfacet
facet normal 0.0 0.0 1.0
  outer loop
    vertex 18.245306486853323 856.1460447767596 13.950237518924013
    vertex 18.47088214798476 844.567703171796 13.950237518924013
    vertex 18.470882147984813 855.3041849484657 13.950237518924013
  endloop
endfacet
facet normal 0.0 0.0 1.0
  outer loop
    vertex 18.470882147984813 855.3041849484657 13.950237518924013
    vertex 18.47088214798476 844.567703171796 13.950237518924013
    vertex 18.546843382923832 845.4359440601305 13.950237518924013
  endloop
endfacet
facet normal 0.0 0.0 1.0
  outer loop
    vertex 18.470882147984813 855.3041849484657 13.950237518924013
    vertex 18.546843382923832 845.4359440601305 13.950237518924013
    vertex 18.546843382923775 854.4359440601312 13.950237518924013
  endloop
endfacet
facet normal 0.0 0.0 1.0
  outer loop
    vertex 16.546843382923825 851.4359440601303 13.950237518924013
    vertex 10.546843382923823 855.4359440601288 13.95023751892401
    vertex 10.546843382923823 851.4359440601303 13.950237518924013
  endloop
endfacet
facet normal 0.0 0.0 1.0
  outer loop
    vertex 10.546843382923823 855.4359440601288 13.95023751892401
    vertex 16.546843382923825 851.4359440601303 13.950237518924013
    vertex 16.546843382923825 855.4359440601288 13.95023751892401
  endloop
endfacet
facet normal 0.08715574274765933 0.9961946980917455 1.6465551189090335e-18
  outer loop
    vertex 13.546843382923829 859.4359440601311 13.950237518924013
    vertex 14.415084271258472 859.3599828251921 11.650237518924014
    vertex 13.546843382923829 859.4359440601311 11.650237518924014
  endloop
endfacet
facet normal 0.08715574274765933 0.9961946980917455 1.6465551189090335e-18
  outer loop
    vertex 14.415084271258472 859.3599828251921 11.650237518924014
    vertex 13.546843382923829 859.4359440601311 13.950237518924013
    vertex 14.415084271258472 859.3599828251921 13.950237518924013
  endloop
endfacet
facet normal 0.5735764363510961 0.8191520442889568 0.0
  outer loop
    vertex 16.046843382923804 858.7660710790533 13.950237518924013
    vertex 16.76078143135649 858.2661662757259 11.650237518924014
    vertex 16.046843382923804 858.7660710790533 11.650237518924014
  endloop
endfacet
facet normal 0.5735764363510961 0.8191520442889568 0.0
  outer loop
    vertex 16.76078143135649 858.2661662757259 11.650237518924014
    vertex 16.046843382923804 858.7660710790533 13.950237518924013
    vertex 16.76078143135649 858.2661662757259 13.950237518924013
  endloop
endfacet
facet normal 0.4226182617407334 0.9063077870366341 0.0
  outer loop
    vertex 15.256944099552154 859.1344071640607 13.950237518924013
    vertex 16.046843382923804 858.7660710790533 11.650237518924014
    vertex 15.256944099552154 859.1344071640607 11.650237518924014
  endloop
endfacet
facet normal 0.4226182617407334 0.9063077870366341 0.0
  outer loop
    vertex 16.046843382923804 858.7660710790533 11.650237518924014
    vertex 15.256944099552154 859.1344071640607 13.950237518924013
    vertex 16.046843382923804 858.7660710790533 13.950237518924013
  endloop
endfacet
facet normal 0.7071067811865411 0.707106781186554 0.0
  outer loop
    vertex 16.76078143135649 858.2661662757259 13.950237518924013
    vertex 17.37706559851868 857.6498821085637 11.650237518924014
    vertex 16.76078143135649 858.2661662757259 11.650237518924014
  endloop
endfacet
facet normal 0.7071067811865411 0.707106781186554 0.0
  outer loop
    vertex 17.37706559851868 857.6498821085637 11.650237518924014
    vertex 16.76078143135649 858.2661662757259 13.950237518924013
    vertex 17.37706559851868 857.6498821085637 13.950237518924013
  endloop
endfacet
facet normal 0.2588190451025062 0.9659258262890722 0.0
  outer loop
    vertex 14.415084271258472 859.3599828251921 13.950237518924013
    vertex 15.256944099552154 859.1344071640607 11.650237518924014
    vertex 14.415084271258472 859.3599828251921 11.650237518924014
  endloop
endfacet
facet normal 0.2588190451025062 0.9659258262890722 0.0
  outer loop
    vertex 15.256944099552154 859.1344071640607 11.650237518924014
    vertex 14.415084271258472 859.3599828251921 13.950237518924013
    vertex 15.256944099552154 859.1344071640607 13.950237518924013
  endloop
endfacet
facet normal -0.9961946980917453 -0.08715574274766223 -0.0
  outer loop
    vertex 15.221016563044582 845.7311459621643 13.950237518924013
    vertex 15.24684338292383 845.4359440601305 11.650237518924024
    vertex 15.24684338292383 845.4359440601305 13.950237518924013
  endloop
endfacet
facet normal -0.9961946980917453 -0.08715574274766223 -0.0
  outer loop
    vertex 15.24684338292383 845.4359440601305 11.650237518924024
    vertex 15.221016563044582 845.7311459621643 13.950237518924013
    vertex 15.221016563044582 845.7311459621643 11.650237518924024
  endloop
endfacet
facet normal -0.9659258262890834 -0.2588190451024643 -0.0
  outer loop
    vertex 15.144320838259873 846.0173783037842 13.950237518924013
    vertex 15.221016563044582 845.7311459621643 11.650237518924024
    vertex 15.221016563044582 845.7311459621643 13.950237518924013
  endloop
endfacet
facet normal -0.9659258262890834 -0.2588190451024643 -0.0
  outer loop
    vertex 15.221016563044582 845.7311459621643 11.650237518924024
    vertex 15.144320838259873 846.0173783037842 13.950237518924013
    vertex 15.144320838259873 846.0173783037842 11.650237518924024
  endloop
endfacet
facet normal -0.9063077870366084 -0.4226182617407885 -0.0
  outer loop
    vertex 15.019086569357373 846.2859440601305 13.950237518924013
    vertex 15.144320838259873 846.0173783037842 11.650237518924024
    vertex 15.144320838259873 846.0173783037842 13.950237518924013
  endloop
endfacet
facet normal -0.9063077870366084 -0.4226182617407885 -0.0
  outer loop
    vertex 15.144320838259873 846.0173783037842 11.650237518924024
    vertex 15.019086569357373 846.2859440601305 13.950237518924013
    vertex 15.019086569357373 846.2859440601305 11.650237518924024
  endloop
endfacet
facet normal -0.8191520442889613 -0.5735764363510896 -0.0
  outer loop
    vertex 14.849118936226091 846.5286829965976 13.950237518924013
    vertex 15.019086569357373 846.2859440601305 11.650237518924024
    vertex 15.019086569357373 846.2859440601305 13.950237518924013
  endloop
endfacet
facet normal -0.8191520442889613 -0.5735764363510896 -0.0
  outer loop
    vertex 15.019086569357373 846.2859440601305 11.650237518924024
    vertex 14.849118936226091 846.5286829965976 13.950237518924013
    vertex 14.849118936226091 846.5286829965976 11.650237518924024
  endloop
endfacet
facet normal -0.707106781186538 -0.707106781186557 -0.0
  outer loop
    vertex 14.849118936226091 846.5286829965976 13.950237518924013
    vertex 14.639582319390946 846.7382196134328 11.650237518924024
    vertex 14.849118936226091 846.5286829965976 11.650237518924024
  endloop
endfacet
facet normal -0.707106781186538 -0.707106781186557 -0.0
  outer loop
    vertex 14.639582319390946 846.7382196134328 11.650237518924024
    vertex 14.849118936226091 846.5286829965976 13.950237518924013
    vertex 14.639582319390946 846.7382196134328 13.950237518924013
  endloop
endfacet
facet normal -0.5735764363510449 -0.8191520442889926 -0.0
  outer loop
    vertex 14.639582319390946 846.7382196134328 13.950237518924013
    vertex 14.39684338292383 846.908187246564 11.650237518924024
    vertex 14.639582319390946 846.7382196134328 11.650237518924024
  endloop
endfacet
facet normal -0.5735764363510449 -0.8191520442889926 -0.0
  outer loop
    vertex 14.39684338292383 846.908187246564 11.650237518924024
    vertex 14.639582319390946 846.7382196134328 13.950237518924013
    vertex 14.39684338292383 846.908187246564 13.950237518924013
  endloop
endfacet
facet normal -0.42261826174065825 -0.9063077870366691 -0.0
  outer loop
    vertex 14.39684338292383 846.908187246564 13.950237518924013
    vertex 14.128277626577466 847.0334215154664 11.650237518924024
    vertex 14.39684338292383 846.908187246564 11.650237518924024
  endloop
endfacet
facet normal -0.42261826174065825 -0.9063077870366691 -0.0
  outer loop
    vertex 14.128277626577466 847.0334215154664 11.650237518924024
    vertex 14.39684338292383 846.908187246564 13.950237518924013
    vertex 14.128277626577466 847.0334215154664 13.950237518924013
  endloop
endfacet
facet normal -0.25881904510276593 -0.9659258262890027 -0.0
  outer loop
    vertex 14.128277626577466 847.0334215154664 13.950237518924013
    vertex 13.842045284957612 847.1101172402513 11.650237518924024
    vertex 14.128277626577466 847.0334215154664 11.650237518924024
  endloop
endfacet
facet normal -0.25881904510276593 -0.9659258262890027 -0.0
  outer loop
    vertex 13.842045284957612 847.1101172402513 11.650237518924024
    vertex 14.128277626577466 847.0334215154664 13.950237518924013
    vertex 13.842045284957612 847.1101172402513 13.950237518924013
  endloop
endfacet
facet normal -0.08715574274752506 -0.9961946980917573 -0.0
  outer loop
    vertex 13.842045284957612 847.1101172402513 13.950237518924013
    vertex 13.546843382923829 847.1359440601304 11.650237518924024
    vertex 13.842045284957612 847.1101172402513 11.650237518924024
  endloop
endfacet
facet normal -0.08715574274752506 -0.9961946980917573 -0.0
  outer loop
    vertex 13.546843382923829 847.1359440601304 11.650237518924024
    vertex 13.842045284957612 847.1101172402513 13.950237518924013
    vertex 13.546843382923829 847.1359440601304 13.950237518924013
  endloop
endfacet
facet normal 0.08715574274752506 -0.9961946980917573 0.0
  outer loop
    vertex 13.546843382923829 847.1359440601304 13.950237518924013
    vertex 13.251641480890047 847.1101172402513 11.650237518924024
    vertex 13.546843382923829 847.1359440601304 11.650237518924024
  endloop
endfacet
facet normal 0.08715574274752506 -0.9961946980917573 0.0
  outer loop
    vertex 13.251641480890047 847.1101172402513 11.650237518924024
    vertex 13.546843382923829 847.1359440601304 13.950237518924013
    vertex 13.251641480890047 847.1101172402513 13.950237518924013
  endloop
endfacet
facet normal 0.25881904510276593 -0.9659258262890027 0.0
  outer loop
    vertex 13.251641480890047 847.1101172402513 13.950237518924013
    vertex 12.965409139270193 847.0334215154664 11.650237518924024
    vertex 13.251641480890047 847.1101172402513 11.650237518924024
  endloop
endfacet
facet normal 0.25881904510276593 -0.9659258262890027 0.0
  outer loop
    vertex 12.965409139270193 847.0334215154664 11.650237518924024
    vertex 13.251641480890047 847.1101172402513 13.950237518924013
    vertex 12.965409139270193 847.0334215154664 13.950237518924013
  endloop
endfacet
facet normal 0.4226182617406601 -0.9063077870366683 0.0
  outer loop
    vertex 12.965409139270193 847.0334215154664 13.950237518924013
    vertex 12.696843382923829 846.908187246564 11.650237518924024
    vertex 12.965409139270193 847.0334215154664 11.650237518924024
  endloop
endfacet
facet normal 0.4226182617406601 -0.9063077870366683 0.0
  outer loop
    vertex 12.696843382923829 846.908187246564 11.650237518924024
    vertex 12.965409139270193 847.0334215154664 13.950237518924013
    vertex 12.696843382923829 846.908187246564 13.950237518924013
  endloop
endfacet
facet normal 0.5735764363510427 -0.8191520442889942 0.0
  outer loop
    vertex 12.696843382923829 846.908187246564 13.950237518924013
    vertex 12.454104446456713 846.7382196134328 11.650237518924024
    vertex 12.696843382923829 846.908187246564 11.650237518924024
  endloop
endfacet
facet normal 0.5735764363510427 -0.8191520442889942 0.0
  outer loop
    vertex 12.454104446456713 846.7382196134328 11.650237518924024
    vertex 12.696843382923829 846.908187246564 13.950237518924013
    vertex 12.454104446456713 846.7382196134328 13.950237518924013
  endloop
endfacet
facet normal 0.7071067811865404 -0.7071067811865547 0.0
  outer loop
    vertex 12.454104446456713 846.7382196134328 13.950237518924013
    vertex 12.244567829621568 846.5286829965976 11.650237518924024
    vertex 12.454104446456713 846.7382196134328 11.650237518924024
  endloop
endfacet
facet normal 0.7071067811865404 -0.7071067811865547 0.0
  outer loop
    vertex 12.244567829621568 846.5286829965976 11.650237518924024
    vertex 12.454104446456713 846.7382196134328 13.950237518924013
    vertex 12.244567829621568 846.5286829965976 13.950237518924013
  endloop
endfacet
facet normal 0.8191520442889592 -0.5735764363510928 0.0
  outer loop
    vertex 12.244567829621568 846.5286829965976 11.650237518924024
    vertex 12.074600196490286 846.2859440601305 13.950237518924013
    vertex 12.074600196490286 846.2859440601305 11.650237518924024
  endloop
endfacet
facet normal 0.8191520442889592 -0.5735764363510928 0.0
  outer loop
    vertex 12.074600196490286 846.2859440601305 13.950237518924013
    vertex 12.244567829621568 846.5286829965976 11.650237518924024
    vertex 12.244567829621568 846.5286829965976 13.950237518924013
  endloop
endfacet
facet normal 0.9063077870366084 -0.4226182617407885 0.0
  outer loop
    vertex 12.074600196490286 846.2859440601305 11.650237518924024
    vertex 11.949365927587786 846.0173783037842 13.950237518924013
    vertex 11.949365927587786 846.0173783037842 11.650237518924024
  endloop
endfacet
facet normal 0.9063077870366084 -0.4226182617407885 0.0
  outer loop
    vertex 11.949365927587786 846.0173783037842 13.950237518924013
    vertex 12.074600196490286 846.2859440601305 11.650237518924024
    vertex 12.074600196490286 846.2859440601305 13.950237518924013
  endloop
endfacet
facet normal 0.9659258262890834 -0.2588190451024643 0.0
  outer loop
    vertex 11.949365927587786 846.0173783037842 11.650237518924024
    vertex 11.872670202803075 845.7311459621643 13.950237518924013
    vertex 11.872670202803075 845.7311459621643 11.650237518924024
  endloop
endfacet
facet normal 0.9659258262890834 -0.2588190451024643 0.0
  outer loop
    vertex 11.872670202803075 845.7311459621643 13.950237518924013
    vertex 11.949365927587786 846.0173783037842 11.650237518924024
    vertex 11.949365927587786 846.0173783037842 13.950237518924013
  endloop
endfacet
facet normal 0.9961946980917453 -0.08715574274766223 0.0
  outer loop
    vertex 11.872670202803075 845.7311459621643 11.650237518924024
    vertex 11.84684338292383 845.4359440601305 13.950237518924013
    vertex 11.84684338292383 845.4359440601305 11.650237518924024
  endloop
endfacet
facet normal 0.9961946980917453 -0.08715574274766223 0.0
  outer loop
    vertex 11.84684338292383 845.4359440601305 13.950237518924013
    vertex 11.872670202803075 845.7311459621643 11.650237518924024
    vertex 11.872670202803075 845.7311459621643 13.950237518924013
  endloop
endfacet
facet normal 0.9961946980917453 0.08715574274766223 0.0
  outer loop
    vertex 11.84684338292383 845.4359440601305 11.650237518924024
    vertex 11.872670202803075 845.1407421580967 13.950237518924013
    vertex 11.872670202803075 845.1407421580967 11.650237518924024
  endloop
endfacet
facet normal 0.9961946980917453 0.08715574274766223 0.0
  outer loop
    vertex 11.872670202803075 845.1407421580967 13.950237518924013
    vertex 11.84684338292383 845.4359440601305 11.650237518924024
    vertex 11.84684338292383 845.4359440601305 13.950237518924013
  endloop
endfacet
facet normal 0.9659258262890859 0.25881904510245546 0.0
  outer loop
    vertex 11.872670202803075 845.1407421580967 11.650237518924024
    vertex 11.949365927587783 844.8545098164768 13.950237518924013
    vertex 11.949365927587783 844.8545098164768 11.650237518924024
  endloop
endfacet
facet normal 0.9659258262890859 0.25881904510245546 0.0
  outer loop
    vertex 11.949365927587783 844.8545098164768 13.950237518924013
    vertex 11.872670202803075 845.1407421580967 11.650237518924024
    vertex 11.872670202803075 845.1407421580967 13.950237518924013
  endloop
endfacet
facet normal 0.9063077870366084 0.4226182617407885 0.0
  outer loop
    vertex 11.949365927587783 844.8545098164768 11.650237518924024
    vertex 12.074600196490282 844.5859440601305 13.950237518924013
    vertex 12.074600196490282 844.5859440601305 11.650237518924024
  endloop
endfacet
facet normal 0.9063077870366084 0.4226182617407885 0.0
  outer loop
    vertex 12.074600196490282 844.5859440601305 13.950237518924013
    vertex 11.949365927587783 844.8545098164768 11.650237518924024
    vertex 11.949365927587783 844.8545098164768 13.950237518924013
  endloop
endfacet
facet normal 0.8191520442889613 0.5735764363510896 0.0
  outer loop
    vertex 12.074600196490282 844.5859440601305 11.650237518924024
    vertex 12.244567829621564 844.3432051236634 13.950237518924013
    vertex 12.244567829621564 844.3432051236634 11.650237518924024
  endloop
endfacet
facet normal 0.8191520442889613 0.5735764363510896 0.0
  outer loop
    vertex 12.244567829621564 844.3432051236634 13.950237518924013
    vertex 12.074600196490282 844.5859440601305 11.650237518924024
    vertex 12.074600196490282 844.5859440601305 13.950237518924013
  endloop
endfacet
facet normal 0.707106781186538 0.707106781186557 0.0
  outer loop
    vertex 12.244567829621564 844.3432051236634 13.950237518924013
    vertex 12.454104446456709 844.1336685068283 11.650237518924024
    vertex 12.244567829621564 844.3432051236634 11.650237518924024
  endloop
endfacet
facet normal 0.707106781186538 0.707106781186557 0.0
  outer loop
    vertex 12.454104446456709 844.1336685068283 11.650237518924024
    vertex 12.244567829621564 844.3432051236634 13.950237518924013
    vertex 12.454104446456709 844.1336685068283 13.950237518924013
  endloop
endfacet
facet normal 0.5735764363510427 0.8191520442889942 0.0
  outer loop
    vertex 12.454104446456709 844.1336685068283 13.950237518924013
    vertex 12.696843382923827 843.963700873697 11.650237518924024
    vertex 12.454104446456709 844.1336685068283 11.650237518924024
  endloop
endfacet
facet normal 0.5735764363510427 0.8191520442889942 0.0
  outer loop
    vertex 12.696843382923827 843.963700873697 11.650237518924024
    vertex 12.454104446456709 844.1336685068283 13.950237518924013
    vertex 12.696843382923827 843.963700873697 13.950237518924013
  endloop
endfacet
facet normal 0.4226182617406601 0.9063077870366683 0.0
  outer loop
    vertex 12.696843382923827 843.963700873697 13.950237518924013
    vertex 12.96540913927019 843.8384666047946 11.650237518924024
    vertex 12.696843382923827 843.963700873697 11.650237518924024
  endloop
endfacet
facet normal 0.4226182617406601 0.9063077870366683 0.0
  outer loop
    vertex 12.96540913927019 843.8384666047946 11.650237518924024
    vertex 12.696843382923827 843.963700873697 13.950237518924013
    vertex 12.96540913927019 843.8384666047946 13.950237518924013
  endloop
endfacet
facet normal 0.25881904510276593 0.9659258262890027 0.0
  outer loop
    vertex 12.96540913927019 843.8384666047946 13.950237518924013
    vertex 13.251641480890044 843.7617708800097 11.650237518924024
    vertex 12.96540913927019 843.8384666047946 11.650237518924024
  endloop
endfacet
facet normal 0.25881904510276593 0.9659258262890027 0.0
  outer loop
    vertex 13.251641480890044 843.7617708800097 11.650237518924024
    vertex 12.96540913927019 843.8384666047946 13.950237518924013
    vertex 13.251641480890044 843.7617708800097 13.950237518924013
  endloop
endfacet
facet normal 0.08715574274752588 0.9961946980917572 0.0
  outer loop
    vertex 13.251641480890044 843.7617708800097 13.950237518924013
    vertex 13.546843382923823 843.7359440601306 11.650237518924024
    vertex 13.251641480890044 843.7617708800097 11.650237518924024
  endloop
endfacet
facet normal 0.08715574274752588 0.9961946980917572 0.0
  outer loop
    vertex 13.546843382923823 843.7359440601306 11.650237518924024
    vertex 13.251641480890044 843.7617708800097 13.950237518924013
    vertex 13.546843382923823 843.7359440601306 13.950237518924013
  endloop
endfacet
facet normal -0.08715574274752506 0.9961946980917573 0.0
  outer loop
    vertex 13.546843382923823 843.7359440601306 13.950237518924013
    vertex 13.842045284957607 843.7617708800097 11.650237518924024
    vertex 13.546843382923823 843.7359440601306 11.650237518924024
  endloop
endfacet
facet normal -0.08715574274752506 0.9961946980917573 0.0
  outer loop
    vertex 13.842045284957607 843.7617708800097 11.650237518924024
    vertex 13.546843382923823 843.7359440601306 13.950237518924013
    vertex 13.842045284957607 843.7617708800097 13.950237518924013
  endloop
endfacet
facet normal -0.25881904510276593 0.9659258262890027 0.0
  outer loop
    vertex 13.842045284957607 843.7617708800097 13.950237518924013
    vertex 14.12827762657746 843.8384666047946 11.650237518924024
    vertex 13.842045284957607 843.7617708800097 11.650237518924024
  endloop
endfacet
facet normal -0.25881904510276593 0.9659258262890027 0.0
  outer loop
    vertex 14.12827762657746 843.8384666047946 11.650237518924024
    vertex 13.842045284957607 843.7617708800097 13.950237518924013
    vertex 14.12827762657746 843.8384666047946 13.950237518924013
  endloop
endfacet
facet normal -0.42261826174065825 0.9063077870366691 0.0
  outer loop
    vertex 14.12827762657746 843.8384666047946 13.950237518924013
    vertex 14.396843382923825 843.963700873697 11.650237518924024
    vertex 14.12827762657746 843.8384666047946 11.650237518924024
  endloop
endfacet
facet normal -0.42261826174065825 0.9063077870366691 0.0
  outer loop
    vertex 14.396843382923825 843.963700873697 11.650237518924024
    vertex 14.12827762657746 843.8384666047946 13.950237518924013
    vertex 14.396843382923825 843.963700873697 13.950237518924013
  endloop
endfacet
facet normal -0.5735764363510449 0.8191520442889926 0.0
  outer loop
    vertex 14.396843382923825 843.963700873697 13.950237518924013
    vertex 14.639582319390941 844.1336685068283 11.650237518924024
    vertex 14.396843382923825 843.963700873697 11.650237518924024
  endloop
endfacet
facet normal -0.5735764363510449 0.8191520442889926 0.0
  outer loop
    vertex 14.639582319390941 844.1336685068283 11.650237518924024
    vertex 14.396843382923825 843.963700873697 13.950237518924013
    vertex 14.639582319390941 844.1336685068283 13.950237518924013
  endloop
endfacet
facet normal -0.707106781186538 0.707106781186557 0.0
  outer loop
    vertex 14.639582319390941 844.1336685068283 13.950237518924013
    vertex 14.849118936226086 844.3432051236634 11.650237518924024
    vertex 14.639582319390941 844.1336685068283 11.650237518924024
  endloop
endfacet
facet normal -0.707106781186538 0.707106781186557 0.0
  outer loop
    vertex 14.849118936226086 844.3432051236634 11.650237518924024
    vertex 14.639582319390941 844.1336685068283 13.950237518924013
    vertex 14.849118936226086 844.3432051236634 13.950237518924013
  endloop
endfacet
facet normal -0.8191520442889569 0.5735764363510961 0.0
  outer loop
    vertex 15.01908656935737 844.5859440601305 13.950237518924013
    vertex 14.849118936226086 844.3432051236634 11.650237518924024
    vertex 14.849118936226086 844.3432051236634 13.950237518924013
  endloop
endfacet
facet normal -0.8191520442889569 0.5735764363510961 0.0
  outer loop
    vertex 14.849118936226086 844.3432051236634 11.650237518924024
    vertex 15.01908656935737 844.5859440601305 13.950237518924013
    vertex 15.01908656935737 844.5859440601305 11.650237518924024
  endloop
endfacet
facet normal -0.9063077870366048 0.4226182617407963 0.0
  outer loop
    vertex 15.144320838259873 844.8545098164768 13.950237518924013
    vertex 15.01908656935737 844.5859440601305 11.650237518924024
    vertex 15.01908656935737 844.5859440601305 13.950237518924013
  endloop
endfacet
facet normal -0.9063077870366048 0.4226182617407963 0.0
  outer loop
    vertex 15.01908656935737 844.5859440601305 11.650237518924024
    vertex 15.144320838259873 844.8545098164768 13.950237518924013
    vertex 15.144320838259873 844.8545098164768 11.650237518924024
  endloop
endfacet
facet normal -0.9659258262890859 0.25881904510245546 0.0
  outer loop
    vertex 15.22101656304458 845.1407421580967 13.950237518924013
    vertex 15.144320838259873 844.8545098164768 11.650237518924024
    vertex 15.144320838259873 844.8545098164768 13.950237518924013
  endloop
endfacet
facet normal -0.9659258262890859 0.25881904510245546 0.0
  outer loop
    vertex 15.144320838259873 844.8545098164768 11.650237518924024
    vertex 15.22101656304458 845.1407421580967 13.950237518924013
    vertex 15.22101656304458 845.1407421580967 11.650237518924024
  endloop
endfacet
facet normal -0.9961946980917443 0.08715574274767167 0.0
  outer loop
    vertex 15.24684338292383 845.4359440601305 13.950237518924013
    vertex 15.22101656304458 845.1407421580967 11.650237518924024
    vertex 15.22101656304458 845.1407421580967 13.950237518924013
  endloop
endfacet
facet normal -0.9961946980917443 0.08715574274767167 0.0
  outer loop
    vertex 15.22101656304458 845.1407421580967 11.650237518924024
    vertex 15.24684338292383 845.4359440601305 13.950237518924013
    vertex 15.24684338292383 845.4359440601305 11.650237518924024
  endloop
endfacet
endsolid Mechanic
