solid Mechanic
facet normal 0.0 0.0 -1.0
  outer loop
    vertex 110.65835406799265 1128.5628655856913 12.8017744149945
    vertex 81.55835406799262 1091.9628655856916 12.8017744149945
    vertex 81.55835406799262 1128.5628655856913 12.8017744149945
  endloop
endfacet
facet normal 0.0 0.0 -1.0
  outer loop
    vertex 81.55835406799262 1091.9628655856916 12.8017744149945
    vertex 110.65835406799265 1128.5628655856913 12.8017744149945
    vertex 110.65835406799265 1091.9628655856916 12.8017744149945
  endloop
endfacet
facet normal 0.0 -0.707106781186628 -0.7071067811864672
  outer loop
    vertex 110.85835406799264 1091.7628655856915 13.0017744149945
    vertex 81.55835406799262 1091.9628655856916 12.8017744149945
    vertex 110.65835406799265 1091.9628655856916 12.8017744149945
  endloop
endfacet
facet normal 0.0 -0.707106781186628 -0.7071067811864672
  outer loop
    vertex 81.55835406799262 1091.9628655856916 12.8017744149945
    vertex 110.85835406799264 1091.7628655856915 13.0017744149945
    vertex 81.35835406799262 1091.7628655856915 13.0017744149945
  endloop
endfacet
facet normal -0.7071067811865481 0.0 0.707106781186547
  outer loop
    vertex 81.55835406799262 1091.9628655856916 14.0017744149945
    vertex 81.35835406799262 1128.5628655856913 13.801774414994501
    vertex 81.35835406799262 1091.7628655856915 13.801774414994501
  endloop
endfacet
facet normal -0.7071067811865481 0.0 0.707106781186547
  outer loop
    vertex 81.35835406799262 1128.5628655856913 13.801774414994501
    vertex 81.55835406799262 1091.9628655856916 14.0017744149945
    vertex 81.55835406799262 1126.0628655856913 14.0017744149945
  endloop
endfacet
facet normal -0.7071067811865481 0.0 0.707106781186547
  outer loop
    vertex 81.35835406799262 1128.5628655856913 13.801774414994501
    vertex 81.55835406799262 1126.0628655856913 14.0017744149945
    vertex 81.55835406799262 1128.5628655856913 14.0017744149945
  endloop
endfacet
facet normal 1.0 0.0 0.0
  outer loop
    vertex 109.10835406799264 1127.0628655856913 14.301774414994501
    vertex 109.10835406799264 1126.0628655856913 15.501774414994498
    vertex 109.10835406799264 1126.0628655856913 14.0017744149945
  endloop
endfacet
facet normal 1.0 0.0 0.0
  outer loop
    vertex 109.10835406799264 1126.0628655856913 15.501774414994498
    vertex 109.10835406799264 1127.0628655856913 14.301774414994501
    vertex 109.10835406799264 1128.5628655856913 15.501774414994498
  endloop
endfacet
facet normal 1.0 0.0 0.0
  outer loop
    vertex 109.10835406799264 1128.5628655856913 15.501774414994498
    vertex 109.10835406799264 1127.0628655856913 14.301774414994501
    vertex 109.10835406799264 1128.5628655856913 14.301774414994501
  endloop
endfacet
facet normal 0.0 -1.0 0.0
  outer loop
    vertex 109.10835406799264 1126.0628655856913 15.501774414994498
    vertex 83.10835406799262 1126.0628655856913 14.0017744149945
    vertex 109.10835406799264 1126.0628655856913 14.0017744149945
  endloop
endfacet
facet normal 0.0 -1.0 0.0
  outer loop
    vertex 83.10835406799262 1126.0628655856913 14.0017744149945
    vertex 109.10835406799264 1126.0628655856913 15.501774414994498
    vertex 83.10835406799262 1126.0628655856913 15.501774414994498
  endloop
endfacet
facet normal -1.0 -0.0 -0.0
  outer loop
    vertex 83.10835406799262 1128.5628655856913 15.501774414994498
    vertex 83.10835406799262 1126.0628655856913 14.0017744149945
    vertex 83.10835406799262 1126.0628655856913 15.501774414994498
  endloop
endfacet
facet normal -1.0 -0.0 -0.0
  outer loop
    vertex 83.10835406799262 1126.0628655856913 14.0017744149945
    vertex 83.10835406799262 1128.5628655856913 15.501774414994498
    vertex 83.10835406799262 1127.0628655856913 14.301774414994501
  endloop
endfacet
facet normal -1.0 -0.0 -0.0
  outer loop
    vertex 83.10835406799262 1127.0628655856913 14.301774414994501
    vertex 83.10835406799262 1128.5628655856913 15.501774414994498
    vertex 83.10835406799262 1128.5628655856913 14.301774414994501
  endloop
endfacet
facet normal 0.0 0.0 1.0
  outer loop
    vertex 109.10835406799264 1126.0628655856913 15.501774414994498
    vertex 83.10835406799262 1128.5628655856913 15.501774414994498
    vertex 83.10835406799262 1126.0628655856913 15.501774414994498
  endloop
endfacet
facet normal 0.0 0.0 1.0
  outer loop
    vertex 83.10835406799262 1128.5628655856913 15.501774414994498
    vertex 109.10835406799264 1126.0628655856913 15.501774414994498
    vertex 109.10835406799264 1128.5628655856913 15.501774414994498
  endloop
endfacet
facet normal 0.7071067811865481 0.0 -0.707106781186547
  outer loop
    vertex 110.65835406799265 1091.9628655856916 12.8017744149945
    vertex 110.85835406799264 1128.5628655856913 13.0017744149945
    vertex 110.85835406799264 1091.7628655856915 13.0017744149945
  endloop
endfacet
facet normal 0.7071067811865481 0.0 -0.707106781186547
  outer loop
    vertex 110.85835406799264 1128.5628655856913 13.0017744149945
    vertex 110.65835406799265 1091.9628655856916 12.8017744149945
    vertex 110.65835406799265 1128.5628655856913 12.8017744149945
  endloop
endfacet
facet normal -0.7071067811865481 0.0 -0.707106781186547
  outer loop
    vertex 81.35835406799262 1091.9628655856916 13.0017744149945
    vertex 81.55835406799262 1091.9628655856916 12.8017744149945
    vertex 81.35835406799262 1091.7628655856915 13.0017744149945
  endloop
endfacet
facet normal -0.7071067811865481 0.0 -0.707106781186547
  outer loop
    vertex 81.55835406799262 1091.9628655856916 12.8017744149945
    vertex 81.35835406799262 1091.9628655856916 13.0017744149945
    vertex 81.35835406799262 1128.5628655856913 13.0017744149945
  endloop
endfacet
facet normal -0.7071067811865481 0.0 -0.707106781186547
  outer loop
    vertex 81.55835406799262 1091.9628655856916 12.8017744149945
    vertex 81.35835406799262 1128.5628655856913 13.0017744149945
    vertex 81.55835406799262 1128.5628655856913 12.8017744149945
  endloop
endfacet
facet normal 0.0 -0.707106781186628 0.7071067811864672
  outer loop
    vertex 110.65835406799265 1091.9628655856916 14.0017744149945
    vertex 81.35835406799262 1091.7628655856915 13.801774414994501
    vertex 110.85835406799264 1091.7628655856915 13.801774414994501
  endloop
endfacet
facet normal 0.0 -0.707106781186628 0.7071067811864672
  outer loop
    vertex 81.35835406799262 1091.7628655856915 13.801774414994501
    vertex 110.65835406799265 1091.9628655856916 14.0017744149945
    vertex 81.55835406799262 1091.9628655856916 14.0017744149945
  endloop
endfacet
facet normal 0.0 -1.0 0.0
  outer loop
    vertex 110.85835406799264 1091.7628655856915 13.801774414994501
    vertex 81.35835406799262 1091.7628655856915 13.0017744149945
    vertex 110.85835406799264 1091.7628655856915 13.0017744149945
  endloop
endfacet
facet normal 0.0 -1.0 0.0
  outer loop
    vertex 81.35835406799262 1091.7628655856915 13.0017744149945
    vertex 110.85835406799264 1091.7628655856915 13.801774414994501
    vertex 81.35835406799262 1091.7628655856915 13.801774414994501
  endloop
endfacet
facet normal 0.0 1.0 0.0
  outer loop
    vertex 83.10835406799262 1128.5628655856913 15.501774414994498
    vertex 109.10835406799264 1128.5628655856913 14.301774414994501
    vertex 83.10835406799262 1128.5628655856913 14.301774414994501
  endloop
endfacet
facet normal 0.0 1.0 0.0
  outer loop
    vertex 109.10835406799264 1128.5628655856913 14.301774414994501
    vertex 83.10835406799262 1128.5628655856913 15.501774414994498
    vertex 109.10835406799264 1128.5628655856913 15.501774414994498
  endloop
endfacet
facet normal 0.0 1.0 0.0
  outer loop
    vertex 81.35835406799262 1128.5628655856913 13.0017744149945
    vertex 110.65835406799265 1128.5628655856913 12.8017744149945
    vertex 81.55835406799262 1128.5628655856913 12.8017744149945
  endloop
endfacet
facet normal 0.0 1.0 0.0
  outer loop
    vertex 110.65835406799265 1128.5628655856913 12.8017744149945
    vertex 81.35835406799262 1128.5628655856913 13.0017744149945
    vertex 110.85835406799264 1128.5628655856913 13.0017744149945
  endloop
endfacet
facet normal 0.0 1.0 0.0
  outer loop
    vertex 110.85835406799264 1128.5628655856913 13.0017744149945
    vertex 81.35835406799262 1128.5628655856913 13.0017744149945
    vertex 81.35835406799262 1128.5628655856913 13.801774414994501
  endloop
endfacet
facet normal 0.0 1.0 0.0
  outer loop
    vertex 110.85835406799264 1128.5628655856913 13.0017744149945
    vertex 81.35835406799262 1128.5628655856913 13.801774414994501
    vertex 110.85835406799264 1128.5628655856913 13.801774414994501
  endloop
endfacet
facet normal 0.0 1.0 0.0
  outer loop
    vertex 110.85835406799264 1128.5628655856913 13.801774414994501
    vertex 81.35835406799262 1128.5628655856913 13.801774414994501
    vertex 81.55835406799262 1128.5628655856913 14.0017744149945
  endloop
endfacet
facet normal 0.0 1.0 0.0
  outer loop
    vertex 110.85835406799264 1128.5628655856913 13.801774414994501
    vertex 81.55835406799262 1128.5628655856913 14.0017744149945
    vertex 110.65835406799265 1128.5628655856913 14.0017744149945
  endloop
endfacet
facet normal 0.0 1.0 0.0
  outer loop
    vertex 110.65835406799265 1128.5628655856913 14.0017744149945
    vertex 81.55835406799262 1128.5628655856913 14.0017744149945
    vertex 81.55835406799262 1128.5628655856913 14.301774414994501
  endloop
endfacet
facet normal 0.0 1.0 0.0
  outer loop
    vertex 110.65835406799265 1128.5628655856913 14.0017744149945
    vertex 81.55835406799262 1128.5628655856913 14.301774414994501
    vertex 110.65835406799265 1128.5628655856913 14.301774414994501
  endloop
endfacet
facet normal 0.0 1.0 0.0
  outer loop
    vertex 110.65835406799265 1128.5628655856913 14.301774414994501
    vertex 81.55835406799262 1128.5628655856913 14.301774414994501
    vertex 83.10835406799262 1128.5628655856913 14.301774414994501
  endloop
endfacet
facet normal 0.0 1.0 0.0
  outer loop
    vertex 110.65835406799265 1128.5628655856913 14.301774414994501
    vertex 83.10835406799262 1128.5628655856913 14.301774414994501
    vertex 109.10835406799264 1128.5628655856913 14.301774414994501
  endloop
endfacet
facet normal -1.0 0.0 0.0
  outer loop
    vertex 81.35835406799262 1128.5628655856913 13.801774414994501
    vertex 81.35835406799262 1091.7628655856915 13.0017744149945
    vertex 81.35835406799262 1091.7628655856915 13.801774414994501
  endloop
endfacet
facet normal -1.0 0.0 0.0
  outer loop
    vertex 81.35835406799262 1091.7628655856915 13.0017744149945
    vertex 81.35835406799262 1128.5628655856913 13.801774414994501
    vertex 81.35835406799262 1091.9628655856916 13.0017744149945
  endloop
endfacet
facet normal -1.0 0.0 0.0
  outer loop
    vertex 81.35835406799262 1091.9628655856916 13.0017744149945
    vertex 81.35835406799262 1128.5628655856913 13.801774414994501
    vertex 81.35835406799262 1128.5628655856913 13.0017744149945
  endloop
endfacet
facet normal 1.0 0.0 0.0
  outer loop
    vertex 110.85835406799264 1128.5628655856913 13.0017744149945
    vertex 110.85835406799264 1091.7628655856915 13.801774414994501
    vertex 110.85835406799264 1091.7628655856915 13.0017744149945
  endloop
endfacet
facet normal 1.0 0.0 0.0
  outer loop
    vertex 110.85835406799264 1091.7628655856915 13.801774414994501
    vertex 110.85835406799264 1128.5628655856913 13.0017744149945
    vertex 110.85835406799264 1128.5628655856913 13.801774414994501
  endloop
endfacet
facet normal 0.7071067811865481 1.4609221123393682e-19 0.707106781186547
  outer loop
    vertex 110.85835406799264 1128.5628655856913 13.801774414994501
    vertex 110.65835406799265 1091.9628655856916 14.0017744149945
    vertex 110.85835406799264 1091.7628655856915 13.801774414994501
  endloop
endfacet
facet normal 0.7071067811865481 1.4609221123393682e-19 0.707106781186547
  outer loop
    vertex 110.65835406799265 1091.9628655856916 14.0017744149945
    vertex 110.85835406799264 1128.5628655856913 13.801774414994501
    vertex 110.65835406799265 1126.0628655856913 14.0017744149945
  endloop
endfacet
facet normal 0.7071067811865481 1.4609221123393682e-19 0.707106781186547
  outer loop
    vertex 110.65835406799265 1126.0628655856913 14.0017744149945
    vertex 110.85835406799264 1128.5628655856913 13.801774414994501
    vertex 110.65835406799265 1128.5628655856913 14.0017744149945
  endloop
endfacet
facet normal 2.434851435842448e-28 -0.2873478855663574 0.9578262852211479
  outer loop
    vertex 83.10835406799262 1126.0628655856913 14.0017744149945
    vertex 81.55835406799262 1127.0628655856913 14.301774414994501
    vertex 81.55835406799262 1126.0628655856913 14.0017744149945
  endloop
endfacet
facet normal 2.434851435842448e-28 -0.2873478855663574 0.9578262852211479
  outer loop
    vertex 81.55835406799262 1127.0628655856913 14.301774414994501
    vertex 83.10835406799262 1126.0628655856913 14.0017744149945
    vertex 83.10835406799262 1127.0628655856913 14.301774414994501
  endloop
endfacet
facet normal 0.0 0.0 1.0
  outer loop
    vertex 83.10835406799262 1127.0628655856913 14.301774414994501
    vertex 81.55835406799262 1128.5628655856913 14.301774414994501
    vertex 81.55835406799262 1127.0628655856913 14.301774414994501
  endloop
endfacet
facet normal 0.0 0.0 1.0
  outer loop
    vertex 81.55835406799262 1128.5628655856913 14.301774414994501
    vertex 83.10835406799262 1127.0628655856913 14.301774414994501
    vertex 83.10835406799262 1128.5628655856913 14.301774414994501
  endloop
endfacet
facet normal -1.0 0.0 0.0
  outer loop
    vertex 81.55835406799262 1127.0628655856913 14.301774414994501
    vertex 81.55835406799262 1128.5628655856913 14.0017744149945
    vertex 81.55835406799262 1126.0628655856913 14.0017744149945
  endloop
endfacet
facet normal -1.0 0.0 0.0
  outer loop
    vertex 81.55835406799262 1128.5628655856913 14.0017744149945
    vertex 81.55835406799262 1127.0628655856913 14.301774414994501
    vertex 81.55835406799262 1128.5628655856913 14.301774414994501
  endloop
endfacet
facet normal 0.0 0.0 1.0
  outer loop
    vertex 110.65835406799265 1091.9628655856916 14.0017744149945
    vertex 81.55835406799262 1126.0628655856913 14.0017744149945
    vertex 81.55835406799262 1091.9628655856916 14.0017744149945
  endloop
endfacet
facet normal 0.0 0.0 1.0
  outer loop
    vertex 81.55835406799262 1126.0628655856913 14.0017744149945
    vertex 110.65835406799265 1091.9628655856916 14.0017744149945
    vertex 83.10835406799262 1126.0628655856913 14.0017744149945
  endloop
endfacet
facet normal 0.0 0.0 1.0
  outer loop
    vertex 83.10835406799262 1126.0628655856913 14.0017744149945
    vertex 110.65835406799265 1091.9628655856916 14.0017744149945
    vertex 109.10835406799264 1126.0628655856913 14.0017744149945
  endloop
endfacet
facet normal 0.0 0.0 1.0
  outer loop
    vertex 109.10835406799264 1126.0628655856913 14.0017744149945
    vertex 110.65835406799265 1091.9628655856916 14.0017744149945
    vertex 110.65835406799265 1126.0628655856913 14.0017744149945
  endloop
endfacet
facet normal 0.0 0.0 1.0
  outer loop
    vertex 110.65835406799265 1127.0628655856913 14.301774414994501
    vertex 109.10835406799264 1128.5628655856913 14.301774414994501
    vertex 109.10835406799264 1127.0628655856913 14.301774414994501
  endloop
endfacet
facet normal 0.0 0.0 1.0
  outer loop
    vertex 109.10835406799264 1128.5628655856913 14.301774414994501
    vertex 110.65835406799265 1127.0628655856913 14.301774414994501
    vertex 110.65835406799265 1128.5628655856913 14.301774414994501
  endloop
endfacet
facet normal 0.0 -0.2873478855663574 0.9578262852211479
  outer loop
    vertex 110.65835406799265 1126.0628655856913 14.0017744149945
    vertex 109.10835406799264 1127.0628655856913 14.301774414994501
    vertex 109.10835406799264 1126.0628655856913 14.0017744149945
  endloop
endfacet
facet normal 0.0 -0.2873478855663574 0.9578262852211479
  outer loop
    vertex 109.10835406799264 1127.0628655856913 14.301774414994501
    vertex 110.65835406799265 1126.0628655856913 14.0017744149945
    vertex 110.65835406799265 1127.0628655856913 14.301774414994501
  endloop
endfacet
facet normal 1.0 0.0 0.0
  outer loop
    vertex 110.65835406799265 1128.5628655856913 14.0017744149945
    vertex 110.65835406799265 1127.0628655856913 14.301774414994501
    vertex 110.65835406799265 1126.0628655856913 14.0017744149945
  endloop
endfacet
facet normal 1.0 0.0 0.0
  outer loop
    vertex 110.65835406799265 1127.0628655856913 14.301774414994501
    vertex 110.65835406799265 1128.5628655856913 14.0017744149945
    vertex 110.65835406799265 1128.5628655856913 14.301774414994501
  endloop
endfacet
endsolid Mechanic
